<?xml version="1.0" encoding="utf-8"?>
<!-- Generator: Adobe Illustrator 27.0.0, SVG Export Plug-In . SVG Version: 6.00 Build 0)  -->
<svg version="1.1" id="Layer_1" xmlns="http://www.w3.org/2000/svg" xmlns:xlink="http://www.w3.org/1999/xlink" x="0px" y="0px"
	 viewBox="0 0 175.3 142.1" style="enable-background:new 0 0 175.3 142.1;" xml:space="preserve">
<style type="text/css">
	.st0{fill:none;}
	.st1{fill:#FFFFFF;}
</style>
<rect x="28" y="18.2" class="st0" width="122" height="107.1"/>
<path class="st1" d="M80.5,38.7c-0.3,0.7-0.7,1-1.1,0.8c-1.6-0.6-2.5-0.6-2.5,0c0,0.9,1.4,1.5,3.1,1.4c1.8-0.2,1.9-0.3,2-1.7
	C82.1,37.6,81.2,37.4,80.5,38.7z"/>
<path class="st1" d="M92.7,38.8c0,1.5,0.7,2,2.7,2c1.2-0.1,1.8-0.3,2.2-1c0.6-0.8,0.5-0.9-0.3-0.9c-0.5,0-1.3,0.3-1.7,0.6
	c-0.7,0.6-0.7,0.5-1.3-0.5C93.5,37.5,92.7,37.4,92.7,38.8z"/>
<path class="st1" d="M73.1,41.6c-0.8,0.8-1,2.1-0.4,2.1c0.7,0,1.4-1.2,1.2-2C73.8,40.8,73.8,40.8,73.1,41.6z"/>
<path class="st1" d="M100.6,42c0,0.8,0.2,1.3,0.6,1.5c1.1,0.4,1.2-0.9,0.2-1.9l-0.9-0.8V42z"/>
<path class="st1" d="M82.9,42.1c-0.5,0.6-0.6,1-0.3,1.2c0.6,0.6,2-0.1,2.6-1.2c0.4-0.7,0.3-0.8-0.5-0.8
	C84.1,41.3,83.3,41.7,82.9,42.1z"/>
<path class="st1" d="M93.6,39.8l-0.3,1.5l-0.9-1c-0.5-0.6-1.4-1.2-2.1-1.4c-1.2-0.3-1.3-0.3-0.6,0.7c0.4,0.5,1.2,1,1.8,1.1
	c1.1,0.1,1.3,0.4,1.8,4.3l0.3,2l-1.1-1.2c-0.9-1-1-1.2-0.4-1.6c0.6-0.4,0.5-0.6,0-1.8c-0.4-0.7-0.9-1.2-1.2-1
	c-0.8,0.4,0,2.8,1.6,5.2L94,49l0,4.4c0,3.9-0.2,4.7-1.1,6.5c-1.6,2.9-2,3-2,0.4c0-1.8,0.1-2.2,0.6-2c0.7,0.2,1.5-1,1.5-2.2
	c0-1.1-0.6-1-1.6,0.2c-0.8,1-0.8,1-1.6,0.2c-0.8-0.9-1.9-1-1.9-0.3c0,0.9,1.3,2.4,1.9,2.1c0.5-0.2,0.6,0.2,0.6,1.4
	c0,0.9-0.2,1.5-0.3,1.4c-0.2-0.1-0.3,0.4-0.3,1.2c0,1-0.3,1.7-1.3,2.6c-1.1,1.1-1.4,1.2-2.1,0.7c-1.3-0.7-2.4-2.7-2.1-3.8
	c0.1-0.6,0-0.9-0.2-0.8c-0.2,0.1-0.4-0.5-0.4-1.4c0-1.2,0.1-1.6,0.6-1.4c0.3,0.1,0.9-0.2,1.3-0.7c1.3-1.8,0.5-2.7-1.2-1.1l-0.9,0.8
	l-0.7-1c-0.9-1.3-1.5-1.3-1.5,0.2c0,1.2,0.9,2.3,1.7,1.8c0.3-0.2,0.4,0.6,0.4,2c0,2.2,0,2.3-0.8,1.6c-0.5-0.4-1.2-1.6-1.6-2.7
	c-0.8-2-0.8-2.1,0-4.3c0.6-1.7,0.6-2,0.2-1.4c-0.3,0.4-0.6,1-0.6,1.2c0,0.2-0.2,0.2-0.4-0.2c-0.5-0.6-0.2-3.9,0.5-5.6
	c0.2-0.6,0.8-1.6,1.3-2.2c0.7-1,1.1-1.2,2.2-1.1c0.9,0.1,1.6-0.1,2.1-0.7c0.8-0.8,0.8-0.8-0.7-0.8c-1.4,0-1.5-0.1-1.6-1.3
	c-0.2-1.6-0.7-1.6-1.6-0.2c-0.6,1-0.6,1.2,0,1.6c0.6,0.5,0.6,0.6-0.5,1.9c-1.1,1.3-1.2,1.3-1.1,0.4c0.1-0.6,0.3-1.8,0.4-2.7
	s0.4-2,0.5-2.4c0.2-0.5,0.1-0.6-0.2-0.4c-0.3,0.2-0.5,0-0.5-0.6c0-0.6-0.1-0.8-0.4-0.4c-0.3,0.4-0.4,0.4-0.9-0.1
	c-0.7-0.8-1.7-0.8-1.7,0c0,0.7,1.6,1.9,2.2,1.6c0.2-0.1,0.3,0.6,0.3,1.5c0,1-0.2,1.5-0.3,1.2c-0.3-0.4-0.6-0.3-1.3,0.3
	c-1,0.9-1.2,2-0.4,2c0.3,0,0.8-0.2,1.1-0.5c0.5-0.4,0.5-0.2,0.3,1.1c-0.4,2.2-0.9,2.6-1.4,1c-0.4-1.2-0.4-1.2-0.2-0.2
	c0.1,0.6,0.3,2.9,0.5,5l0.3,3.8l-1.4-0.9c-2.7-1.9-4.7-3.9-4.5-4.7c0.1-0.4,0-1.6-0.4-2.7c-0.3-1.1-0.7-2.6-0.7-3.4
	c-0.1-1.3-0.1-1.4-0.3-0.3l-0.2,1.2L70,44.1l-1.5-1.6l1.3,2c1.3,2.1,1.6,2.9,0.8,2.4c-0.3-0.2-0.1,0.2,0.4,0.7
	c0.8,0.8,1,1.4,0.8,2.7L71.7,52l-1.6-1c-1.3-0.9-1.5-1.2-1.3-2c0.3-1-0.4-2.2-1.2-2.2c-0.6,0-0.3,2.5,0.4,3.3
	c1.1,1.3-2.7-0.4-4.8-2.2c-1.8-1.5-4.4-2.4-4.4-1.6c0,0.7,1.3,1.4,2.2,1.1c0.8-0.2,1.3,0.1,2.2,1l1.2,1.2h-1.3c0,0-1.6-0.3-2-0.9
	c-0.3-0.5-1-0.8-1.7-0.8l-1.1,0l1.1,0.9c1.1,1,1.1,1,0.3,1.7c-1.1,0.9-1,1.4,0.2,1.4c0.6,0,1.4-0.4,1.9-1c0.7-0.9,1-1,2.5-0.8
	c1.7,0.3,1.7,0.3,0.9,0.9c-1.2,0.8-1.1,1.3,0.1,1.3c1,0,2.1-0.9,1.6-1.4c-0.5-0.5,3.5,1.3,5.6,2.4l2,1.1L73,54.6
	c-2.4,0.2-1.8,0.9,0.7,0.9c1.5,0,2.3,0.2,3.2,1c1.2,1,4.1,5.3,3.8,5.7c-0.1,0.1-0.9,0-1.7-0.2c-1.1-0.3-1.5-0.6-1.5-1.2
	c0-0.4-0.5-1.1-1.1-1.6l-1.2-0.9l-0.1,0.9c-0.1,0.5,0.2,1.2,0.5,1.6c0.6,0.7,0.6,0.7-0.9,0.4c-2.4-0.4-3.4-1-3.2-2
	c0.2-0.8-0.5-2-1.2-2c-0.2,0-0.4,0.4-0.4,1c0,0.8-0.2,1-1.1,1.1c-1.5,0.2-1.5,0.8,0,1.3c0.9,0.3,1.2,0.2,1.5-0.2
	c0.3-0.5,0.5-0.5,1.1,0.2c0.7,0.7,0.7,0.7-2.2,0.5c-1.6-0.1-3.5-0.5-4.2-0.8c-1.7-0.8-2.3-0.8-0.7,0c1.1,0.6,1.2,0.7,0.4,0.9
	c-0.5,0.2,1.2,0.4,4,0.6c2.6,0.2,5.5,0.4,6.2,0.6l1.4,0.3l-1.2,0.5c-0.7,0.3-2.5,0.8-4,1c-2.1,0.4-2.4,0.5-1.2,0.5
	c1.2,0,1.3,0.1,0.7,0.5c-0.9,0.5-0.5,1.2,0.7,1.2c1.1,0,1.9-0.8,1.1-1.1c-0.9-0.3-0.1-0.9,1.1-0.9c0.6,0,1.9-0.4,2.8-0.8l1.7-0.8
	l2.5,0.9c2.1,0.8,2.7,1.2,3.5,2.8c0.9,1.6,1,2.2,1,6c0,4.7-0.8,7-2.7,7.9c-0.6,0.3-3.2,0.5-6,0.6c-2.7,0-4.5,0.2-4,0.2
	c1.2,0.2,1.2,0.8-0.1,1.4c-0.5,0.2-0.9,0.6-0.8,0.8c0.1,0.2-0.4,0.4-1.1,0.6c-0.8,0.1-1.1,0.4-0.8,0.5c0.3,0.2,0,0.6-0.9,1.1
	c-0.7,0.5-1.2,0.9-0.9,0.9s1.1-0.4,1.9-0.9c1.3-0.9,4.9-1.7,4.9-1.2c0,0.2-0.7,1.1-1.5,2c-1.5,1.9-3.5,2.8-6,2.9
	c-1.3,0-1.4,0-0.4,0.3c1.3,0.4,2.5,0.3,3.6-0.3c1.2-0.6,1.6-0.6,1,0.1c-0.3,0.4-0.4,0.6,0,0.8c0.2,0.1,0.4,0.1,0.4-0.2
	c0-0.2,0.6-0.5,1.3-0.7c0.7-0.1,1.7-0.5,2.2-0.8c0.5-0.3,1-0.4,1.1-0.3c0.2,0.1,0.3,0,0.3-0.2c0-0.2,0.1-0.8,0.3-1.2
	c0.2-0.6,0-0.5-0.8,0.2c-0.6,0.6-1.1,0.8-1.1,0.7c0-0.2-0.5,0.1-1.1,0.5c-1.2,1-1.8,0.8-0.9-0.2c0.3-0.4,0.6-0.9,0.6-1.2
	c0.1-0.7,1-1.7,1.5-1.7c0.2,0,0.1,0.4-0.2,0.9c-0.5,0.8-0.5,1,0,1c0.3,0,0.5-0.2,0.4-0.4c-0.1-0.2,0-0.3,0.2-0.3
	c0.2,0,0.5-0.4,0.7-0.8s0.6-1,1-1.2c0.7-0.4,0.8-0.3,0.5,0.3c-0.1,0.4,0.2,0.2,0.7-0.4c0.5-0.6,1.3-1.1,1.7-1.1c1.1,0,1,0.3-0.3,1.7
	c-0.7,0.7-0.9,1.1-0.6,0.9c0.8-0.4,0.6,0.3-0.4,1.8c-0.6,0.8-1.9,1.8-3.2,2.4c-1.2,0.6-2.7,1.5-3.1,2C71.5,93,71.5,93,72.9,92
	c2.5-1.7,2.5-1.7,2.3-0.4c-0.1,0.6-0.1,0.9,0,0.6c0.1-0.2,0.5-0.5,0.9-0.5c0.6,0,0.6-0.1,0.1-0.4c-0.5-0.3-0.4-0.6,0.6-1.4
	c0.7-0.5,1.5-0.9,1.8-0.8c0.3,0.1,0.5,0,0.3-0.1c-0.1-0.2,0.2-0.9,0.6-1.7c0.9-1.6,1.1-1.3,0.2,0.3c-0.3,0.6-0.5,1.7-0.4,2.4
	c0.1,0.8-0.1,1.6-0.3,1.8c-0.3,0.4-0.2,0.6,0.2,0.8c0.4,0.1,0.6,0,0.6-0.4c0-0.3,0.2-1,0.5-1.7c0.2-0.6,0.5-1.3,0.5-1.5
	c0-0.2,0.3-0.4,0.6-0.6c0.4-0.1,0.5,0,0.2,0.4c-0.2,0.3,0.2,0.1,0.7-0.4c2.5-2.1,0.7,1.8-2.1,4.7c-1.7,1.8-1.8,2.2-0.1,0.7
	c1.4-1.2,1.6-1.1,0.6,0.4c-1,1.4-1.5,3.4-1.1,4.4c0.3,0.7,0.4,0.6,0.3-0.6c0-1.6,0.8-4,1.5-4c0.2,0,0.3,0.3,0.2,0.6
	c-0.1,0.3-0.1,0.5,0.2,0.4c0.2-0.2,0.4,0.5,0.4,1.7c0,1,0.2,2.2,0.4,2.5c0.2,0.3,0.3-0.7,0.3-2.7c0-1.8-0.2-3.1-0.4-3.1
	c-0.6,0.4-0.3-0.5,0.3-1c1-0.8,2,2,1.7,5.2c-0.2,2.4-0.2,2.5,0.3,1.3c0.2-0.7,0.6-1.2,0.8-1c0.6,0.6,0.3,2.5-0.6,3.6l-0.9,1.2l1-1.1
	c0.7-0.8,1.1-0.9,1.3-0.6c0.3,0.6,0-3-0.4-4.5c-0.2-0.8-0.2-0.8,0.4,0.2c0.6,1.2,0.6,1.2,0.7,0.2c0-0.6,0.3-1.6,0.6-2.2
	c0.5-1.2,0.5-1.2,0.5,1.2c0,1.3,0.2,2.9,0.5,3.4c0.4,0.8,0.4,0.5,0.2-1.6c-0.2-1.9-0.1-3,0.4-4.2c0.4-0.8,0.8-1.4,1-1.2
	c0.5,0.5,0.4,2.1-0.3,3.5c-0.8,1.6-0.5,3.9,0.7,4.8c0.7,0.5,0.7,0.5,0-0.4c-0.8-1.1-0.9-3.5-0.3-4.4c0.2-0.4,0.4-0.4,0.4-0.1
	c0,0.3,0.2,0.5,0.3,0.5c0.2,0,0.3-0.6,0.2-1.2c-0.1-0.7,0-1.2,0.3-1.2c0.7,0,1.7,2.3,1.5,3.3c-0.2,0.6,0,1.2,0.4,1.7
	c0.6,0.7,0.7,0.7,0.5,0.1c-0.1-0.4,0-0.7,0.2-0.7s0.1-0.6-0.2-1.5c-0.4-0.9-0.5-2-0.4-2.7c0.2-1,0.1-1.4-0.4-1.6
	c-0.3-0.1-0.6,0-0.6,0.1c0,0.2,0.2,0.4,0.5,0.5c0.2,0.1,0.3,0.4,0.2,0.7c-0.5,0.8-1.6-0.3-1.5-1.5c0.1-0.6-0.1-1.4-0.3-1.9
	c-0.3-0.5-0.3-1-0.1-1.4c0.3-0.5,0.5-0.4,1,0.2c0.3,0.4,0.6,1,0.6,1.4c0,0.3,0.2,0.4,0.4,0.3c0.2-0.1,0.4,0.1,0.4,0.5
	c0,0.6,0.1,0.6,0.4,0.1c0.2-0.4,0.2-0.8-0.1-1.2c-0.4-0.5-0.4-0.5,0.1-0.1c0.6,0.6,0.7,0.8,1.2,4.3c0.2,1.4,0.4,1.9,0.4,1.2
	c0-1,0.1-1.1,0.5-0.5c0.2,0.4,0.6,0.7,0.9,0.7c0.3,0,0.3-0.2,0-0.5c-0.2-0.3-0.4-1-0.5-1.6c-0.1-1.3-1.5-4.4-1.8-4.1
	c-0.1,0.1-0.5-0.2-1-0.7c-0.7-0.9-0.7-0.9,0-0.3c0.4,0.3,1.1,0.6,1.5,0.6c0.3,0,0.8,0.5,1.1,1.2c0.5,1.5,1,1.8,2,1.6
	c0.5-0.2,0.7-0.1,0.5,0.2c-0.1,0.2,0,0.6,0.4,0.9c0.7,0.6,0.7,0.4,0.2-1c-0.2-0.7-0.6-1-1.1-0.8c-0.4,0.1-0.8,0-1-0.3
	c-0.5-0.8-0.5-1.2,0.2-1c0.2,0.2,0.1,0-0.3-0.4s-0.8-0.8-0.8-1.1c0-0.3-0.3-0.9-0.6-1.5c-0.3-0.6,0.4,0,1.5,1.2
	c3.5,3.9,6.3,6.4,7.1,6.4c0.5,0,0.3-0.3-0.6-0.8c-0.7-0.5-1.4-1.2-1.4-1.6c0-0.4-0.2-0.9-0.5-1c-0.3-0.2-0.4-0.1-0.2,0.4
	c0.2,0.7,0.2,0.7-0.7,0c-2-1.6-2.4-2.6-0.8-1.8c0.5,0.2,0.9,0.3,1,0.1c0.1-0.2-0.3-0.4-1-0.6c-0.7-0.2-2.3-1.3-4-2.9
	c-1.5-1.4-3-2.5-3.4-2.5c-0.4,0-0.8-0.2-0.9-0.5c-0.1-0.4,0-0.4,0.4-0.2c0.3,0.2,1,0.4,1.5,0.4c1.1,0.1,4.2,2,4.2,2.7
	c0,0.7,3.7,2.9,5,2.9c1,0,1.2,0,0.8-0.7c-0.3-0.6-0.7-0.7-1.7-0.5c-1.1,0.2-1.5,0-4-2.4c-2.5-2.5-2.7-2.7-1.5-2.4
	c0.7,0.2,1.7,0.8,2.2,1.4c0.9,1,1,1,0.5,0.1l-0.5-1l1.2,0.9c0.7,0.5,1.6,1.3,2,1.8c0.4,0.5,1.5,1.2,2.5,1.6c2.1,0.8,2.2,0.8,2.2,0.3
	c0-0.2-0.4-0.4-0.9-0.4c-1.2,0-2.4-0.7-4.3-2.5c-1.5-1.4-1.6-1.5-0.7-1.5c0.6,0,0.9,0.2,0.9,0.7c0,0.4,0.1,0.5,0.2,0.4
	c0.2-0.2,0.8,0.1,1.5,0.6c0.6,0.4,1.4,0.7,1.7,0.6c0.4-0.2,0.3-0.2,0-0.2c-0.7,0-3.1-1.7-2.8-1.9c0.1-0.1-0.3-0.6-0.9-1.1l-1.1-0.9
	l1.8-0.3c1.4-0.3,0.4-0.4-4.3-0.5c-3.4,0-6.5-0.3-6.9-0.5c-3.3-1.7-3.8-12.7-0.7-15.5c0.5-0.4,2-1.2,3.3-1.5
	c2.4-0.7,2.4-0.7,3.7,0.2c0.8,0.5,1.8,0.9,2.5,0.8c1-0.1,1.1,0,1,0.8c0,0.7,0.2,1,0.9,1c1.4,0.2,2.1-0.6,0.9-1
	c-0.8-0.3-0.6-0.4,1.2-0.6c3.2-0.4,5.9-2.3,3.2-2.3c-1,0-2.3,0.9-2.3,1.7c0,0.3-0.8,0.3-2.4,0.1c-2.4-0.3-5.4-1.2-5-1.6
	c0.3-0.3,8.6-1.2,10.5-1.1c1.2,0,1.4-0.1,0.8-0.3c-0.7-0.2-0.7-0.4,0.6-1c0.8-0.4,1.5-0.6,1.7-0.4c0.5,0.7,1.7,0.9,2.7,0.4
	c1.3-0.6,1-1-0.8-1.3c-1.3-0.2-1.4-0.4-1.2-1.4c0.2-0.7,0-1.3-0.3-1.4c-0.7-0.5-1.7,1-1.5,2.3c0.2,0.9,0,1.1-1.5,1.7
	c-1,0.4-3,0.8-4.7,0.9c-2.7,0.2-2.8,0.2-2.1-0.4c0.6-0.4,1-0.5,1.4-0.2c0.4,0.3,0.8,0.3,1.5,0c1.4-0.6,1.3-1.3-0.2-1.3
	c-1,0-1.2-0.1-1-1c0.1-0.7,0-1-0.5-1c-0.7,0-1.3,1.7-0.9,2.4c0.4,0.6-1.7,1.5-4.3,1.8c-1.2,0.1-2.9,0.4-3.6,0.6
	c-0.7,0.2-1.4,0.2-1.4,0.1c0-0.6,2.5-4.4,3.6-5.4c0.9-0.8,1.8-1.2,3.8-1.4c2.3-0.3,2.6-0.3,2.6,0.3c0,0.8,0.7,1.4,2,1.7
	c1.2,0.3,1.2-0.7,0.1-1.4c-1-0.6-1-1,0-1.3c0.5-0.1,0.9-0.5,1-0.8c0.4-1-2.1-0.8-3,0.2c-0.5,0.6-1.2,0.8-2.4,0.8
	c-1.6,0-1.6,0-0.8-0.6c0.5-0.4,2-1.2,3.3-1.8c2.1-1,2.5-1,2.8-0.6c0.2,0.4,1,0.6,2.1,0.6l1.7,0l-1.2-0.9l-1.2-1l1.8-0.4
	c1.1-0.2,1.5-0.4,0.8-0.4c-1,0-1-0.1-0.2-0.8c0.4-0.4,0.5-0.8,0.3-0.8c-0.2,0-0.6,0.2-0.7,0.4c-0.2,0.4-4.1,2.4-4.6,2.4
	c-0.2,0-0.1-0.2,0-0.4c0.1-0.2-0.5,0-1.5,0.6l-1.6,1v-1.7c-0.1-1.3,0.2-2,1.1-2.9c0.6-0.7,0.8-1,0.4-0.7c-1.2,0.8-0.9-0.2,0.5-2.3
	l1.3-1.8l-1.5,1.6l-1.2,1.6v-1.1c0-0.8,0.3-1.4,0.8-1.7c0.8-0.5,1.2-2.5,0.5-2.5c-0.8,0-1.4,1.4-1.8,4.3c-0.5,4.7-0.5,4.8-2.4,3.6
	c-1.6-1-2.6-1.3-2.6-0.6c0,0.8,1.7,2,2.7,2c0.9,0,1.1,0.2,1.1,1.3c0,0.8-0.3,1.6-0.8,2c-1.1,0.9-1.5,0.8-0.9-0.2
	c0.3-0.4,0.4-1.1,0.3-1.4c-0.3-0.6-0.4-0.6-1.1,0.1C97.6,52.2,97.3,54,98,54c0.3,0-0.2,0.5-0.9,1.2l-1.4,1.2l-0.2-2.7
	c-0.2-1.6,0-3.4,0.3-4.5c0.7-2.3,0.6-3.1-0.1-1.2c-0.6,1.5-0.7,1.4-1.4-1.4c-0.3-1.3-0.3-1.5,0.1-0.9c0.3,0.4,1.2,0.8,2.1,0.9
	c1.2,0.2,1.6,0.1,2.1-0.6l0.6-0.8l0.3,0.9c0.4,1.3,1.3,0.7,1.5-1c0.1-0.8,0-1.4-0.2-1.4c-0.2,0.1-1.1,0.5-2.1,0.9
	c-1,0.4-1.8,0.9-1.8,1.2c0,0.2-0.5-0.2-1.3-0.9c-0.8-0.9-1.3-1.2-1.3-0.8c0,0.3-0.2,0-0.3-0.6c-0.4-1.5-0.1-2.6,0.6-2.4
	c0.5,0.2,1.9-0.8,1.9-1.5c0-0.5-1.4-0.4-2,0.1C94,40,94,39.9,94.1,39.2c0.1-0.4,0.1-0.8,0-0.8C94,38.4,93.8,39,93.6,39.8z
	 M78.2,81.5c-0.4,0.1-1.1,0.1-1.5,0c-0.4-0.1-0.1-0.2,0.7-0.2C78.3,81.3,78.6,81.4,78.2,81.5z M82.3,81.5c-0.1,0.1-0.5,0.2-0.8,0
	c-0.3-0.1-0.2-0.2,0.2-0.2C82.3,81.2,82.5,81.4,82.3,81.5z M85,82.1c-0.3,0.3-0.5,0.3-0.5,0.1c0-0.2,0.1-0.6,0.3-0.7
	c0.1-0.2,0.4-0.2,0.5-0.1C85.4,81.6,85.3,81.9,85,82.1z M93.5,81.6c0.7,0.3,0.7,0.4-0.3,0.4c-0.6,0-1.2-0.2-1.4-0.4
	C91.5,81.2,92.3,81.2,93.5,81.6z M100.7,82.4c1.1,0.7,1.1,0.7,0.2,0.8c-0.5,0.1-1.3-0.1-1.9-0.4c-0.5-0.3-1.2-0.5-1.6-0.6
	s-1.1-0.1-1.7-0.2c-1-0.1-1-0.1,0.2-0.4C97.6,81.2,99.5,81.5,100.7,82.4z M77.8,82.3c0.2,0.2-2,1-3.8,1.4c-1.7,0.3-2-0.3-0.4-1
	c0.5-0.2,0.8-0.5,0.7-0.7C74.1,81.7,77.6,82,77.8,82.3z M86.2,85c-0.4,0.3-0.4,0.3-0.2-0.3c0.1-0.4,0.3-1.1,0.3-1.6
	c0.1-0.6,0.1-0.6,0.2,0.3C86.6,84,86.5,84.8,86.2,85z M77.1,83.4c0,0.4-1.3,1.4-1.8,1.4c-0.3,0,0-0.4,0.5-0.8
	C76.7,83.2,77.1,83.1,77.1,83.4z M85,84.5c0,0.7-0.2,1.1-0.4,1c-0.2-0.1-0.4-0.7-0.4-1.2c0-0.5,0.2-1,0.4-1
	C84.8,83.2,85,83.8,85,84.5z M83.2,84.8c-0.1,0.4,0,0.8,0.2,0.8c0.6,0,0.4,1.2-0.2,1.4c-0.3,0.2-0.5,0.4-0.4,0.6
	c0.1,0.2,0,0.4-0.2,0.6c-0.7,0.5-1-0.6-0.2-1.4c0.4-0.4,0.5-0.8,0.2-0.8c-0.5-0.2-0.1-2,0.5-2C83.2,84,83.3,84.4,83.2,84.8z
	 M87.5,84.6c0,0.3-0.3,0.9-0.6,1.3c-0.5,0.7-0.6,0.6-0.2-0.6C87.1,84,87.5,83.7,87.5,84.6z M89.6,86.1c-0.4,0.8-0.4,0.7-0.4-0.7
	c0-1.2,0.1-1.4,0.4-0.9C89.8,84.9,89.8,85.5,89.6,86.1z M91.7,85c0.2,0.8,0.1,0.9-0.3,0.6c-0.7-0.5-0.8-1.6-0.2-1.6
	C91.4,84,91.6,84.5,91.7,85z M95.5,86.8c0.4,0.7,0.7,1.4,0.5,1.5c-0.5,0.4-2.8-1.1-3.2-2.1C91.9,83.8,94,84.4,95.5,86.8z M81.6,85.4
	c0,0.3-0.2,0.6-0.4,0.6c-0.2,0-0.3-0.3-0.2-0.6c0.2-0.3,0.3-0.6,0.4-0.6C81.5,84.8,81.6,85.1,81.6,85.4z M85.5,86.9
	c0.1,0.4,0,0.9-0.2,1.1c-0.2,0.1-0.3,0-0.2-0.2c0.1-0.2,0-0.5-0.2-0.6c-0.2-0.1-0.3-0.4-0.2-0.6C85.1,85.9,85.3,85.9,85.5,86.9z
	 M87.7,88c-0.2,0.9-0.3,1-0.7,0.4c-0.3-0.4-0.2-1,0.1-1.6C87.7,85.6,88.1,86.4,87.7,88z M92,87.1c0,0.1-0.2,0.6-0.5,1
	c-0.6,1-1.2,0.6-1.2-0.9c0-1.1,0.1-1.2,0.8-0.8C91.7,86.7,92,87,92,87.1z M85.9,90.5c-0.1,2-1,3.2-1,1.4c0-0.6-0.1-1.5-0.2-1.9
	c-0.2-1,0.1-1.5,0.7-1.3C85.8,88.7,86,89.5,85.9,90.5z M89.7,90.2c0.2,0.6,0.1,1-0.1,0.9s-0.3,0.4-0.2,1.1l0.1,1.3L89,92.1
	c-0.7-1.7-0.8-2.1-0.3-1.8c0.2,0.1,0.2-0.3,0.1-0.9C88.5,87.9,89.3,88.7,89.7,90.2z M90.9,90.5c0.1,0.4,0,0.7-0.2,0.6
	c-0.2-0.1-0.4-0.5-0.4-0.8C90.4,89.4,90.7,89.5,90.9,90.5z M83.3,91.5c-0.7,0.8-1,0.4-0.4-0.7c0.3-0.6,0.6-0.7,0.7-0.4
	C83.7,90.7,83.5,91.2,83.3,91.5z M88,91.1c0.3,0.8-0.1,3.3-0.7,3.6c-0.7,0.5-1-0.7-0.6-2.5C87.2,90.4,87.6,90,88,91.1z M96.5,93.8
	c-0.1,0.3-0.2,0.2-0.2-0.2c0-0.4,0.1-0.7,0.2-0.5C96.6,93.1,96.6,93.5,96.5,93.8z M85.7,95.4c-0.1,0.5-0.2,0.2-0.2-0.7
	c0-0.9,0-1.3,0.2-0.9C85.8,94.2,85.8,94.9,85.7,95.4z"/>
<path class="st1" d="M85.4,92.3c0.1,0.2,0.3,0.4,0.5,0.4c0.1,0,0.2-0.2,0.2-0.4c0-0.2-0.2-0.4-0.5-0.4
	C85.4,91.9,85.3,92.1,85.4,92.3z"/>
<path class="st1" d="M105.2,42.5c-0.6,1.1-0.6,1.4,0.4,2.4c1,1,2.9,1.2,3.7,0.4c0.9-0.9,0.5-1.2-1.2-1c-1.6,0.1-1.7,0.1-1.7-1
	C106.4,41.9,105.8,41.5,105.2,42.5z"/>
<path class="st1" d="M68.3,42.6c-0.3,0.8-0.1,1.9,0.5,2c0.6,0.1,0.8-1.7,0.2-2.2C68.7,42.1,68.5,42.2,68.3,42.6z"/>
<path class="st1" d="M69.8,43.8c0,0.3,0.3,0.9,0.6,1.4c1.1,1.5,4.8,0.4,4.8-1.4c0-0.8-0.7-0.6-2,0.4l-1.1,1l-0.5-0.9
	C71.2,43.4,69.8,43,69.8,43.8z"/>
<path class="st1" d="M99.4,44c0,0.4,0.2,0.9,0.5,1.2c0.7,0.7,2,0.6,2-0.1c0-0.6-1.5-1.8-2.2-1.8C99.5,43.3,99.4,43.6,99.4,44z"/>
<path class="st1" d="M87.6,44.4c0.1,0.4,0.4,0.9,0.6,1.2c0.2,0.3,0.1,0.6-0.4,0.8c-0.7,0.2-0.7,0.3,0.2,1c0.5,0.4,1.2,0.8,1.5,0.8
	c0.9,0,1.2-0.9,0.4-1.4c-0.4-0.3-0.6-0.8-0.5-1.1c0.3-0.7-0.8-1.9-1.7-1.9C87.5,43.7,87.4,44,87.6,44.4z"/>
<path class="st1" d="M65.6,44.6c-0.5,0.3-0.5,0.5,0.2,1c0.9,0.7,2.2,0.8,2.5,0.2C68.8,45,66.5,44,65.6,44.6z"/>
<path class="st1" d="M77.1,45.6c-0.2,0.7,0,1.2,0.4,1.6c0.5,0.6,0.7,0.5,1-0.1c0.5-0.8,0-2.6-0.7-2.6C77.5,44.5,77.2,45,77.1,45.6z"
	/>
<path class="st1" d="M95.9,45.6c-0.2,0.7-0.1,1.2,0.3,1.6c0.5,0.5,0.7,0.5,1.1-0.3c0.5-1,0.2-2.4-0.6-2.4C96.4,44.5,96,45,95.9,45.6
	z"/>
<path class="st1" d="M111.3,46.3c-0.3,1.4,0,2.8,0.7,2.5c0.7-0.2,0.8-2,0.2-2.9C111.6,45.2,111.6,45.2,111.3,46.3z"/>
<path class="st1" d="M62.3,46.9c-0.5,1-0.2,2.4,0.6,2.4c0.7,0,1.2-1.4,0.8-2.4C63.4,45.9,62.9,45.9,62.3,46.9z"/>
<path class="st1" d="M73.8,47.2c-0.7,1.7,0.2,3.3,1.2,2c0.5-0.6,0.6-0.6,1,0c0.7,0.8,1.7,0.8,1.7,0c0-0.3-0.7-1-1.7-1.6
	C74.1,46.3,74.1,46.4,73.8,47.2z"/>
<path class="st1" d="M106.9,47.4c-0.3,0.4-0.4,0.9-0.2,1c0.4,0.4,2.3-0.3,2.7-1.1c0.4-0.7,0.3-0.8-0.8-0.8
	C107.7,46.5,107.2,46.8,106.9,47.4z"/>
<path class="st1" d="M65.2,49.3c0,1.3,1.4,2.4,1.9,1.6c0.4-0.6-0.2-2-1.1-2.4C65.3,48.1,65.2,48.3,65.2,49.3z"/>
<path class="st1" d="M108.2,48.7c-1,0.7-1.3,2.2-0.4,2.2c0.8,0,1.6-1,1.4-2C109.2,48.2,109.1,48.1,108.2,48.7z"/>
<path class="st1" d="M112.7,49.1c-0.6,0.2-1.1,0.8-1.2,1.1c-0.2,0.5-0.1,0.5,0.2,0c0.2-0.3,0.6-0.4,0.9-0.2c0.7,0.4,2.5-0.1,2.5-0.8
	C115.2,48.4,114.1,48.4,112.7,49.1z"/>
<path class="st1" d="M105.4,50.8c-0.4,1.4,0.4,2.1,1.1,1c0.5-0.9,0.3-2-0.4-2C105.8,49.7,105.5,50.2,105.4,50.8z"/>
<path class="st1" d="M74.7,51.2c-1.3,0.7-1.5,1.2-0.4,1.3c1.4,0.1,2.6-0.4,3-1.1c0.4-0.7,0.3-0.8-0.5-0.8
	C76.3,50.6,75.3,50.9,74.7,51.2z"/>
<path class="st1" d="M82.3,50.7c-1.4,1-1.5,2-0.3,2c0.9,0,1.8-1.3,1.6-2.2C83.5,49.9,83.2,49.9,82.3,50.7z"/>
<path class="st1" d="M89.4,51.8c0,1.2,0.7,1.9,1.7,1.9c1,0,1-0.9,0-1.7C89.8,50.9,89.4,50.9,89.4,51.8z"/>
<path class="st1" d="M113.2,51.3c-0.5,0.4-0.3,1.2,0.3,1.2c0.2,0,0.8-0.4,1.3-0.8l1-0.8l-1,0C114.2,51,113.5,51.1,113.2,51.3z"/>
<path class="st1" d="M57.9,52.6c-1.3,0.5-1.2,1.2,0.2,1.2s2.5-1,1.5-1.4c-0.3-0.1-0.7-0.2-0.7-0.2C58.8,52.2,58.4,52.4,57.9,52.6z"
	/>
<path class="st1" d="M81,53c-0.5,1.1-0.3,2.3,0.4,2.3c0.7,0,1-1.8,0.5-2.7C81.6,52,81.5,52.1,81,53z"/>
<path class="st1" d="M92.6,52.4c-0.2,0.2-0.3,0.8-0.3,1.5c0,0.9-0.1,1.1-0.5,0.7c-0.7-0.6-2.5-0.6-2.3,0c0.1,0.3,0.6,0.7,1.1,1
	c1.2,0.6,3.4-0.3,3.4-1.4C94,53.3,93,52,92.6,52.4z"/>
<path class="st1" d="M114.8,52.6c-0.5,0.4-0.5,0.4,0,0.8c0.7,0.5,2.5,0.5,2.5,0.1c0-0.5-0.9-1.3-1.4-1.3
	C115.6,52.2,115.1,52.4,114.8,52.6z"/>
<path class="st1" d="M111.9,53.3c0,0.6,1.5,1.7,2.4,1.7c1.2,0,1.2-0.6,0-1.4C113.3,52.9,111.9,52.8,111.9,53.3z"/>
<path class="st1" d="M75.5,54.6c-0.3,1,0.3,2.3,1.2,2.3c0.7,0,0.8-0.8,0.1-2.2C76.2,53.5,75.8,53.5,75.5,54.6z"/>
<path class="st1" d="M82.7,54.8c-0.8,0.9,0,1.5,1.2,0.9c0.6-0.3,1.1-0.7,1.2-1C85.4,53.9,83.3,54,82.7,54.8z"/>
<path class="st1" d="M67.8,56.7c0.1,0.4,0.9,0.9,1.9,1.4c0.1,0-0.4,0.6-1,1.2c-1.3,1.2-1.2,1.5,0.4,1.1c1.6-0.4,2.4-2.8,1.2-3.6
	C69.5,56.1,67.6,56,67.8,56.7z"/>
<path class="st1" d="M93.1,56.8c0,0.2,0.2,0.7,0.4,1c0.2,0.3,0.4,0.4,0.4,0.2c0-0.2-0.2-0.7-0.4-1C93.3,56.7,93.1,56.5,93.1,56.8z"
	/>
<path class="st1" d="M65.4,58.3c-0.7,0.5-0.7,0.6-0.1,0.8c1.1,0.4,2.6,0.1,2.6-0.6C67.9,57.8,66.4,57.6,65.4,58.3z"/>
<path class="st1" d="M106.3,58.1c-0.2,0.1-0.1,0.5,0.2,0.8c0.5,0.6,2.7,0.7,3.1,0.2C110,58.2,107,57.3,106.3,58.1z"/>
<path class="st1" d="M57.6,58.9c0.5,1.2,1,1.7,2,1.7c1.3,0,1.2-0.6-0.1-1.6C58.2,58,57.2,57.9,57.6,58.9z"/>
<path class="st1" d="M114.9,59.1c-0.6,0.6-0.7,1.9-0.2,1.9c0.4,0,1.4-0.8,2.1-1.7c0.5-0.6,0.5-0.7-0.5-0.7
	C115.8,58.6,115.2,58.8,114.9,59.1z"/>
<path class="st1" d="M62.1,59.4C62,59.7,61.9,60.5,62,61c0.1,0.8-0.1,1-1.1,1.1c-1.8,0.2-2.2,0.8-0.9,1.3c1.6,0.6,1.7,0.5,3-0.7
	c1.2-1.3,1.3-1.8,0.2-3C62.5,58.9,62.3,58.9,62.1,59.4z"/>
<path class="st1" d="M86.6,61.5c-1,0.5-1.6,1.5-1,2c0.5,0.4,2.6-1.1,2.6-1.9C88.1,60.9,87.8,60.9,86.6,61.5z"/>
<path class="st1" d="M59.4,65.6c-0.3,0.4-0.4,0.7-0.3,0.8c0.4,0.4,2.5-0.4,2.7-1C62.1,64.8,60,64.9,59.4,65.6z"/>
<path class="st1" d="M112.7,65.4c0,0.5,1.4,1.2,2.3,1.2c0.5,0,0.6-0.2,0.2-0.8C114.7,65,112.7,64.6,112.7,65.4z"/>
<path class="st1" d="M65.6,65.7c0,0.6,1.5,1.7,2.2,1.7c1,0,1.2-0.5,0.5-1.3C67.6,65.4,65.6,65.1,65.6,65.7z"/>
<path class="st1" d="M62.9,67c-0.5,0.8,2.5,1.7,3.2,1c0.2-0.1,0.1-0.5-0.2-0.8C65.5,66.5,63.3,66.4,62.9,67z"/>
<path class="st1" d="M108.6,67.2c-0.5,0.5-0.4,0.7,0.2,0.9c0.8,0.3,2.8-0.3,2.9-0.8C111.7,66.5,109.1,66.5,108.6,67.2z"/>
<path class="st1" d="M66.2,68.8l-1.2,1l1.3,0c1.3,0,2.2-0.6,2.2-1.5C68.6,67.5,67.5,67.7,66.2,68.8z"/>
<path class="st1" d="M105.9,68.1c-0.6,0.5,1.1,1.7,2.4,1.7l1.3,0l-1.2-1C107.2,67.8,106.4,67.6,105.9,68.1z"/>
<path class="st1" d="M73.2,70.3c0.1,0.7,0.4,1.4,0.7,1.5c0.4,0.1,0.5-0.2,0.4-1.2c-0.1-0.7-0.4-1.4-0.7-1.5
	C73.2,69,73.1,69.3,73.2,70.3z"/>
<path class="st1" d="M100.2,70.4c0,1.4,0.5,1.9,1,0.8c0.5-1.1,0.2-2.2-0.4-2.2C100.4,69,100.2,69.5,100.2,70.4z"/>
<path class="st1" d="M106.4,84.8c0.6,0.3,1.1,0.5,1.2,0.4c0.3-0.2-1-0.9-1.7-0.9C105.7,84.3,105.9,84.5,106.4,84.8z"/>
<path class="st1" d="M67.8,85.2c0,0.5,0.2,0.5,0.9,0.2c1.3-0.6,1.3-0.7,0.2-0.7C68.3,84.7,67.8,84.9,67.8,85.2z"/>
<path class="st1" d="M108.4,85.5c0.3,0.3,0.7,0.3,1.2,0c0.7-0.4,0.6-0.4-0.5-0.4C108.3,85.1,108.1,85.2,108.4,85.5z"/>
<path class="st1" d="M104,86.3c0,0.5,0.7,0.5,1.9,0c0.7-0.3,0.6-0.4-0.5-0.4C104.6,85.9,104,86.1,104,86.3z"/>
<path class="st1" d="M107.5,86.3c-0.2,0.2,0.1,0.4,0.6,0.4c1,0,1.1-0.2,0.2-0.5C108,86,107.6,86.1,107.5,86.3z"/>
<path class="st1" d="M109.5,86.5c0,0.3,0.5,0.6,1,0.8c0.5,0.1,0.9,0.4,0.8,0.5c-0.1,0.2,0.2,0.3,0.6,0.3c0.4,0,0.8-0.2,0.8-0.3
	c0-0.2-0.3-0.3-0.6-0.3s-0.6-0.1-0.6-0.3c0-0.2-0.5-0.5-1-0.7C109.7,86.1,109.5,86.1,109.5,86.5z"/>
<path class="st1" d="M62.3,87.9c0.3,0.2,0.8,0.4,1,0.4c0.2,0,0.1-0.2-0.2-0.4s-0.8-0.4-1-0.4C61.9,87.5,62,87.7,62.3,87.9z"/>
<path class="st1" d="M64.8,89c0.3,0.4,0.4,0.6,0.1,0.4c-0.3-0.2-0.7,0-1,0.3c-0.6,0.7-0.1,0.6,1.7-0.1c1.4-0.6,1.1-1.3-0.4-1.3
	C64.4,88.3,64.4,88.4,64.8,89z"/>
<path class="st1" d="M71.9,88.7c0,0.2,0.2,0.3,0.4,0.2c0.2-0.1,0.4-0.3,0.4-0.4c0-0.1-0.2-0.2-0.4-0.2
	C72.1,88.3,71.9,88.5,71.9,88.7z"/>
<path class="st1" d="M110.7,90.1c0.4,0.4,0.9,0.6,1.1,0.5c0.2-0.1-0.1-0.4-0.7-0.7C110.1,89.5,110.1,89.5,110.7,90.1z"/>
<path class="st1" d="M108.9,91c0.2,0.1,0.7,0.1,1,0c0.2-0.1,0-0.2-0.5-0.2C108.8,90.8,108.6,90.9,108.9,91z"/>
<path class="st1" d="M109.8,91.8c0,0.2,0.4,0.5,0.8,0.8c0.7,0.4,0.7,0.4,0.6,0C110.9,92,109.8,91.4,109.8,91.8z"/>
<path class="st1" d="M61.1,92.6c0,0.3,4.2,0.2,4.5-0.1c0.1-0.1-0.9-0.2-2.2-0.2C62.1,92.3,61.1,92.5,61.1,92.6z"/>
<path class="st1" d="M103,92.6c-0.1,0.2,0,0.5,0.4,0.6c1,0.4,1.2,0.1,0.4-0.5C103.5,92.5,103.1,92.4,103,92.6z"/>
<path class="st1" d="M78.3,93.6c-0.9,1.9-1.2,3.4-0.9,4.1c0.3,0.8,0.3,0.8,0.3-0.1c0-0.5,0.2-1,0.5-1.1c0.2-0.1,0.3-0.5,0.1-0.8
	c-0.1-0.4,0.1-1,0.5-1.6c0.4-0.5,0.5-1,0.3-1.2C78.8,92.8,78.5,93.2,78.3,93.6z"/>
<path class="st1" d="M66.7,93.8c-0.2,0.6-0.2,0.6,0.4,0.2c0.7-0.6,0.8-0.8,0.2-0.8C67.1,93.1,66.8,93.4,66.7,93.8z"/>
<path class="st1" d="M107.6,94c0.3,0.3,0.6,0.4,0.7,0.3c0.1-0.1-0.1-0.4-0.5-0.5C107.2,93.5,107.2,93.6,107.6,94z"/>
<path class="st1" d="M70.9,95c-0.2,0.6-0.2,0.6,0.2,0.2c0.3-0.3,0.4-0.6,0.3-0.7C71.3,94.4,71,94.6,70.9,95z"/>
<path class="st1" d="M106.5,95c0.3,0.5,0.6,0.8,0.7,0.7c0.1-0.1-0.1-0.5-0.5-0.9C106,94.2,105.9,94.2,106.5,95z"/>
<path class="st1" d="M65.6,95.4c-0.5,0.6-0.5,0.7,0.2,0.2c0.4-0.3,0.7-0.6,0.7-0.7C66.5,94.6,66.1,94.8,65.6,95.4z"/>
<path class="st1" d="M98.3,96.1c0.5,0.4,1.2,0.8,1.7,1l0.8,0.4l-0.8-0.6c-0.5-0.4-1.2-0.8-1.7-1l-0.8-0.4L98.3,96.1z"/>
<path class="st1" d="M70.8,97.1c-0.1,0.2,0,0.4,0.2,0.4c0.2,0,0.5-0.2,0.5-0.4c0-0.2-0.1-0.4-0.2-0.4C71.2,96.7,71,96.9,70.8,97.1z"
	/>
<path class="st1" d="M69,99.4c-0.8,0.8-1.1,1.2-0.6,1c0.5-0.2,1-0.3,1.2-0.1c0.1,0.2,0.2,0.1,0.2-0.1c-0.1-0.2,0.1-0.8,0.4-1.3
	C70.8,97.7,70.7,97.7,69,99.4z"/>
<path class="st1" d="M98.5,98.1c0,0.1,0.3,0.3,0.7,0.4c0.3,0.1,0.5,0.1,0.4-0.2C99.3,97.9,98.5,97.8,98.5,98.1z"/>
<path class="st1" d="M97.7,100c0,0.3,0.7,1.2,1.5,2c1.4,1.2,1.4,1.2,0.5,0.2c-0.6-0.7-1.3-1.6-1.5-2C97.8,99.5,97.7,99.5,97.7,100z"
	/>
<path class="st1" d="M97.1,101.4c0.2,0.3,0.5,0.6,0.7,0.6c0.2,0,0.2-0.2-0.1-0.6c-0.3-0.3-0.6-0.6-0.7-0.6
	C97,100.7,97,101,97.1,101.4z"/>
<path class="st1" d="M104.4,100.9c0,0.1,0.3,0.4,0.7,0.7c0.6,0.5,0.7,0.5,0.1-0.2C104.7,100.8,104.4,100.6,104.4,100.9z"/>
<path class="st1" d="M75,102c-0.2,0.2-0.2,0.5-0.1,0.6c0.1,0.1,0.3-0.1,0.4-0.4C75.6,101.5,75.4,101.4,75,102z"/>
<path class="st1" d="M81.3,103.4c-0.4,0.4-0.4,1.3,0,1.3c0.2,0,0.3-0.4,0.4-0.8C81.8,103.1,81.8,103,81.3,103.4z"/>
<path class="st1" d="M90,104.1c0.1,0.4,0.4,0.6,0.5,0.5c0.1-0.1,0-0.4-0.3-0.7C89.8,103.5,89.8,103.5,90,104.1z"/>
<path class="st1" d="M93.2,104.2c0,0.4,0.1,0.6,0.2,0.2c0.1-0.3,0.1-0.6,0-0.8C93.2,103.5,93.1,103.8,93.2,104.2z"/>
<path class="st1" d="M92.2,105.4c0.2,0.8,0.3,0.9,0.4,0.4c0.1-0.4,0-0.9-0.2-1.1C92.1,104.4,92.1,104.7,92.2,105.4z"/>
<path class="st1" d="M82.2,106c0.2,0.5,0.3,0.7,0.5,0.4c0.1-0.3,0-0.7-0.2-0.9C82,105.2,82,105.3,82.2,106z"/>
</svg>
