<?xml version="1.0" encoding="utf-8"?>
<!-- Generator: Adobe Illustrator 27.0.0, SVG Export Plug-In . SVG Version: 6.00 Build 0)  -->
<svg version="1.1" id="Layer_1" xmlns="http://www.w3.org/2000/svg" xmlns:xlink="http://www.w3.org/1999/xlink" x="0px" y="0px"
	 viewBox="0 0 297 37.6" style="enable-background:new 0 0 297 37.6;" xml:space="preserve">
<style type="text/css">
	.st0{fill:#FFFFFF;}
</style>
<path class="st0" d="M133.6-200.9c-0.8,1.8-1.6,2.4-2.7,1.9c-3.8-1.6-6.1-1.6-6.1-0.1c0,2.3,3.4,3.8,7.5,3.4
	c4.3-0.5,4.5-0.7,4.8-4.2C137.4-203.6,135.1-204.2,133.6-200.9z"/>
<path class="st0" d="M162.8-200.6c0,3.8,1.6,5.1,6.4,4.9c2.8-0.2,4.3-0.8,5.4-2.5c1.4-2.1,1.3-2.2-0.8-2.2c-1.3,0-3.1,0.7-4.1,1.6
	c-1.6,1.4-1.8,1.3-3.1-1.2C164.7-203.9,162.8-204.2,162.8-200.6z"/>
<path class="st0" d="M115.6-193.7c-1.9,2.1-2.4,5.3-0.9,5.3c1.6,0,3.3-2.9,2.9-5.1C117.3-195.6,117.3-195.6,115.6-193.7z"/>
<path class="st0" d="M181.8-192.7c0,1.9,0.6,3.3,1.5,3.7c2.6,0.9,3-2.3,0.6-4.7l-2.1-2.1V-192.7z"/>
<path class="st0" d="M139.3-192.4c-1.3,1.5-1.5,2.4-0.8,3.1c1.4,1.4,4.8-0.3,6.3-3.1c0.9-1.7,0.8-2-1.3-2
	C142.2-194.4,140.3-193.5,139.3-192.4z"/>
<path class="st0" d="M165.2-190.7l-0.7,3.7l-2.1-2.6c-1.2-1.5-3.4-3-5.1-3.4c-2.9-0.7-3-0.7-1.4,1.7c0.9,1.3,2.8,2.5,4.2,2.7
	c2.7,0.3,3.1,1.1,4.3,10.7l0.6,5l-2.5-3c-2.1-2.5-2.3-3.1-1-4c1.4-1,1.3-1.5-0.1-4.4c-0.9-1.7-2.2-2.9-2.8-2.5
	c-1.8,1.1-0.1,6.9,3.9,13l3.8,5.9l-0.1,11c-0.1,9.8-0.4,11.6-2.7,16.2c-3.7,7.3-4.7,7.4-4.7,0.9c0-4.4,0.3-5.4,1.4-5
	c1.6,0.6,3.6-2.4,3.6-5.5c0-2.8-1.4-2.6-3.8,0.4c-1.9,2.4-2,2.4-3.7,0.5c-2-2.3-4.5-2.6-4.5-0.7c0,2.2,3.2,5.9,4.6,5.3
	c1.1-0.4,1.4,0.5,1.4,3.5c0,2.2-0.4,3.8-0.8,3.5c-0.4-0.2-0.8,1.1-0.8,3c0,2.5-0.8,4.3-3.1,6.5c-2.6,2.7-3.3,2.9-5,1.8
	c-3-1.8-5.6-6.7-5-9.4c0.2-1.4,0-2.2-0.4-1.9c-0.5,0.3-0.9-1.3-0.9-3.5c0-3,0.3-3.9,1.4-3.5c0.8,0.3,2.1-0.5,3-1.8
	c3.2-4.5,1.1-6.6-2.9-2.8l-2.2,2.1l-1.7-2.6c-2.2-3.3-3.6-3.2-3.6,0.4c0,3.1,2.2,5.7,4,4.6c0.6-0.4,1,1.4,1,5.1c0,5.6,0,5.7-2,3.9
	c-1.1-1-2.8-4.1-3.9-6.8c-1.8-5-1.8-5.2,0-10.7c1.4-4.2,1.5-5,0.4-3.6c-0.8,1.1-1.5,2.5-1.5,3c0,0.6-0.5,0.4-1-0.4
	c-1.1-1.6-0.4-9.8,1.2-14c0.5-1.4,1.8-3.9,3-5.5c1.7-2.5,2.6-3,5.2-2.7c2.2,0.3,3.7-0.2,5-1.7c1.9-2.1,1.9-2.1-1.7-2.1
	c-3.3,0-3.6-0.2-3.9-3.3c-0.4-3.9-1.7-4.1-3.8-0.4c-1.4,2.6-1.4,2.9,0.1,4c1.5,1.2,1.4,1.6-1.2,4.7c-2.7,3.3-2.9,3.3-2.5,1
	c0.3-1.4,0.7-4.4,1-6.7s0.9-4.9,1.3-5.9c0.4-1.2,0.3-1.5-0.5-1s-1.2-0.1-1.2-1.6c0-1.6-0.3-1.9-0.9-1c-0.6,1-1,1-2.1-0.3
	c-1.6-1.9-4-2-4-0.1c0,1.7,3.9,4.8,5.2,4c0.4-0.3,0.8,1.4,0.8,3.8c0,2.5-0.4,3.8-0.8,3c-0.6-0.9-1.4-0.7-3,0.8c-2.4,2.3-2.9,5-0.9,5
	c0.7,0,1.9-0.6,2.6-1.3c1.1-1,1.2-0.5,0.6,2.8c-0.9,5.6-2.2,6.4-3.4,2.4c-0.9-3-1-3-0.5-0.4c0.3,1.6,0.8,7.2,1.1,12.4l0.6,9.4
	l-3.3-2.3c-6.5-4.7-11.2-9.8-10.6-11.7c0.3-1-0.1-4-0.9-6.7c-0.8-2.7-1.6-6.5-1.6-8.5c-0.2-3.3-0.2-3.4-0.6-0.7l-0.5,3l-3.4-4
	l-3.5-3.9l3.1,4.9c3.2,5.3,3.8,7.2,1.8,6c-0.7-0.4-0.3,0.4,1,1.8c1.8,2,2.3,3.5,2,6.7l-0.3,4.1l-3.8-2.5c-3.1-2.2-3.6-3-3.1-5.1
	c0.6-2.4-0.9-5.4-2.8-5.4c-1.4,0-0.6,6.2,1,8.2c2.7,3.2-6.5-1.1-11.3-5.4c-4.2-3.7-10.5-6.1-10.5-4c0,1.8,3,3.4,5.3,2.8
	c1.8-0.4,3.1,0.2,5.2,2.4l2.9,3h-3.5c-2.3,0-3.8-0.6-4.7-2c-0.7-1.2-2.3-2-4-2l-2.7,0.1L84-168c2.6,2.4,2.6,2.4,0.7,4.2
	c-2.6,2.3-2.4,3.4,0.5,3.4c1.4,0,3.3-1.1,4.5-2.6c1.8-2.3,2.5-2.5,6.1-1.9c4,0.7,4.1,0.8,2.1,2.2c-2.8,1.9-2.7,3.3,0.3,3.3
	c2.5,0,5.1-2.2,3.9-3.4c-1.3-1.2,8.5,3.2,13.5,6.1l4.7,2.8l-4.3,0.3c-5.7,0.4-4.3,2.2,1.8,2.2c3.7,0,5.5,0.6,7.7,2.4
	c2.9,2.5,9.9,13.3,9.1,14.1c-0.2,0.2-2.1,0-4.1-0.6c-2.6-0.7-3.7-1.6-3.7-2.9c0-1-1.2-2.8-2.7-4l-2.8-2.2l-0.3,2.2
	c-0.2,1.2,0.4,3,1.3,4c1.5,1.7,1.4,1.7-2.2,1c-5.8-1-8.2-2.6-7.6-5c0.5-2-1.2-5-2.8-5c-0.5,0-0.9,1.1-0.9,2.4c0,1.9-0.6,2.5-2.7,2.8
	c-3.5,0.4-3.5,2,0.1,3.3c2.1,0.7,2.9,0.6,3.6-0.5c0.8-1.3,1.2-1.2,2.7,0.4c1.8,1.8,1.6,1.8-5.4,1.3c-3.9-0.3-8.5-1.3-10.2-2.1
	c-4-2.1-5.5-2-1.6,0.1c2.7,1.5,2.8,1.7,1,2.3c-1.1,0.4,3,1,9.6,1.4c6.3,0.4,13.1,1.1,15,1.5l3.4,0.8l-3,1.3
	c-1.6,0.7-5.9,1.9-9.5,2.6c-5,0.9-5.7,1.2-3,1.3c2.9,0.1,3.2,0.3,1.7,1.2c-2.2,1.3-1.3,2.9,1.8,2.9c2.6,0,4.6-2.1,2.7-2.8
	c-2.1-0.7-0.2-2.2,2.6-2.2c1.5,0,4.5-1,6.7-2.1l4-2.1l6,2.3c5,2,6.4,3.1,8.5,6.9c2.2,4,2.5,5.6,2.5,15c-0.1,11.8-2,17.5-6.6,19.7
	c-1.4,0.7-7.7,1.3-14.5,1.5c-6.5,0.1-10.9,0.4-9.6,0.6c2.9,0.4,2.8,2-0.3,3.4c-1.3,0.6-2.2,1.5-1.9,2c0.3,0.4-0.9,1.1-2.6,1.5
	c-1.9,0.3-2.7,0.9-2,1.3c0.7,0.5,0,1.5-2.2,2.8c-1.8,1.2-2.8,2.2-2.2,2.2c0.6,0,2.7-1.1,4.6-2.3c3.2-2.2,11.8-4.3,11.8-2.9
	c0,0.4-1.6,2.7-3.6,5.1c-3.7,4.7-8.3,7-14.4,7.2c-3.2,0.1-3.3,0.1-1,0.8c3.2,1,5.9,0.8,8.7-0.7c2.9-1.6,3.8-1.5,2.4,0.2
	c-0.8,1-0.9,1.6-0.1,2.1c0.5,0.3,1,0.2,1-0.4c0-0.5,1.5-1.3,3.2-1.7c1.8-0.3,4.2-1.3,5.4-2c1.1-0.8,2.4-1.1,2.7-0.7
	c0.4,0.3,0.7,0.1,0.7-0.5c0-0.5,0.3-1.9,0.7-2.9c0.5-1.4,0.1-1.3-2,0.6c-1.5,1.4-2.7,2.1-2.7,1.7c0-0.4-1.2,0.2-2.7,1.3
	c-2.9,2.4-4.3,2-2.2-0.5c0.7-0.9,1.4-2.3,1.5-3.1c0.3-1.8,2.3-4.3,3.5-4.3c0.5,0,0.3,1.1-0.6,2.3c-1.3,2-1.3,2.4,0,2.4
	c0.8,0,1.2-0.4,0.9-0.9c-0.3-0.4-0.1-0.8,0.5-0.8c0.5,0,1.3-0.9,1.6-2s1.5-2.5,2.5-3c1.6-0.9,1.9-0.8,1.3,0.7c-0.3,1,0.4,0.6,1.6-1
	c1.2-1.5,3.1-2.7,4.2-2.7c2.6,0,2.4,0.8-0.8,4.3c-1.6,1.7-2.2,2.7-1.5,2.3c1.9-1.1,1.4,0.7-1,4.4c-1.4,2-4.6,4.5-7.8,6.1
	c-3,1.5-6.4,3.7-7.5,5c-1.9,2.1-1.8,2.1,1.5-0.3c5.9-4.2,6.1-4.3,5.5-1.1c-0.3,1.5-0.2,2.2,0.1,1.5c0.3-0.6,1.3-1.2,2.2-1.2
	c1.5,0,1.5-0.2,0.2-1s-1-1.4,1.5-3.5c1.7-1.3,3.6-2.2,4.3-2c0.7,0.3,1.1,0.1,0.8-0.3c-0.2-0.4,0.4-2.3,1.5-4.2
	c2.1-4,2.6-3.3,0.6,0.8c-0.8,1.5-1.2,4.2-1,6.1c0.2,1.9-0.2,4-0.7,4.6c-0.8,0.9-0.6,1.4,0.5,1.9c0.9,0.3,1.5,0,1.5-0.9
	c0-0.7,0.5-2.6,1.2-4.2c0.6-1.5,1.2-3.2,1.2-3.7c0.1-0.5,0.7-1.1,1.5-1.4c0.9-0.3,1.1,0,0.6,0.9c-0.5,0.8,0.4,0.3,1.8-1
	c5.9-5.3,1.6,4.4-5,11.7c-4.1,4.4-4.3,5.5-0.3,1.7c3.3-3.1,3.9-2.8,1.5,0.9c-2.4,3.6-3.5,8.5-2.6,10.9c0.7,1.8,0.9,1.6,0.8-1.4
	c-0.1-4,2-9.9,3.5-9.9c0.6,0,0.7,0.7,0.4,1.6c-0.3,0.8-0.2,1.2,0.4,0.9c0.6-0.4,1,1.3,1,4.2c0,2.6,0.4,5.4,0.9,6.2s0.8-1.8,0.8-6.7
	c-0.1-4.4-0.5-7.8-0.9-7.6c-1.4,0.9-0.8-1.3,0.7-2.6c2.5-2.1,4.8,5,4.2,13c-0.5,5.9-0.4,6.2,0.7,3.2c0.6-1.8,1.5-3,1.9-2.6
	c1.4,1.4,0.7,6.2-1.4,9l-2.1,2.9l2.5-2.7c1.7-1.9,2.7-2.3,3.1-1.5c0.7,1.4-0.1-7.5-0.9-11.3c-0.5-2.1-0.4-2.1,0.9,0.5
	c1.4,3,1.4,3,1.6,0.5c0-1.4,0.7-3.9,1.5-5.5c1.3-2.9,1.3-2.9,1.3,3c0,3.3,0.5,7.1,1.1,8.5c0.9,2,1,1.2,0.5-4.1
	c-0.4-4.8-0.2-7.5,1-10.4c0.9-2.1,1.9-3.5,2.3-3.1c1.3,1.3,1,5.2-0.8,8.7c-2,4.1-1.2,9.6,1.8,12c1.6,1.3,1.6,1.2,0-1.1
	c-1.9-2.7-2.2-8.6-0.7-11c0.6-1,1-1.1,1-0.3c0,0.7,0.4,1.3,0.8,1.3c0.5,0,0.7-1.4,0.4-3c-0.2-1.8,0-3,0.7-3c1.7,0,4.2,5.7,3.6,8.2
	c-0.4,1.4,0.1,3.1,1,4.3c1.4,1.7,1.6,1.7,1.1,0.2c-0.3-0.9-0.1-1.7,0.4-1.7s0.2-1.6-0.6-3.7c-1-2.2-1.3-4.9-1-6.8
	c0.5-2.4,0.2-3.4-0.9-3.9c-0.8-0.3-1.5-0.1-1.5,0.3c0,0.5,0.5,1.1,1.2,1.3c0.6,0.2,0.8,1,0.4,1.7c-1.2,2-3.8-0.8-3.5-3.8
	c0.2-1.4-0.2-3.5-0.8-4.7c-0.8-1.3-0.8-2.5-0.2-3.5c0.8-1.2,1.2-1.1,2.4,0.5c0.8,1.1,1.5,2.6,1.5,3.4c0,0.7,0.5,1,1,0.7
	c0.6-0.3,1,0.2,1,1.2c0,1.5,0.2,1.5,1,0.3c0.6-0.9,0.5-2-0.3-3c-0.9-1.2-0.9-1.3,0.3-0.3c1.5,1.4,1.6,1.9,2.9,10.8
	c0.5,3.5,0.9,4.8,1,3c0.1-2.5,0.3-2.7,1.2-1.3c0.5,1,1.5,1.8,2.1,1.8c0.7,0,0.7-0.4,0.1-1.2c-0.5-0.7-1-2.6-1.1-4.1
	c-0.2-3.2-3.5-11-4.4-10.2c-0.2,0.3-1.3-0.5-2.4-1.7c-1.8-2.2-1.8-2.2,0-0.8c1,0.8,2.6,1.5,3.5,1.5c0.8,0,2,1.3,2.6,3
	c1.2,3.7,2.4,4.6,4.9,3.9c1.1-0.4,1.6-0.2,1.2,0.4c-0.3,0.5,0.1,1.5,0.9,2.2c1.8,1.5,1.8,1,0.5-2.4c-0.6-1.8-1.4-2.4-2.6-1.9
	c-0.9,0.3-2,0-2.5-0.8c-1.3-2-1.1-3.1,0.4-2.4c0.6,0.4,0.3-0.1-0.8-1s-2-2.1-2-2.8c-0.1-0.7-0.7-2.3-1.4-3.7s0.9,0,3.6,3
	c8.4,9.6,15.2,16,17,16c1.3,0,0.8-0.7-1.4-2.1c-1.8-1.2-3.3-2.9-3.3-3.9c0-1.1-0.5-2.2-1.2-2.6c-0.8-0.5-0.9-0.2-0.4,1.1
	c0.6,1.8,0.6,1.8-1.6-0.1c-4.7-4-5.8-6.5-1.9-4.5c1.1,0.6,2.2,0.7,2.5,0.2s-0.7-1.1-2.3-1.4c-1.7-0.4-5.6-3.2-9.5-7.1
	c-3.6-3.5-7.3-6.3-8.2-6.2c-0.9,0-1.9-0.5-2.2-1.3c-0.3-0.9,0-1.1,0.9-0.6c0.7,0.5,2.4,1,3.7,1.1c2.7,0.3,10.2,5.1,10.2,6.6
	c0,1.7,8.9,7.1,11.9,7.2c2.5,0.1,2.8-0.1,1.9-1.7c-0.7-1.4-1.6-1.7-4-1.2c-2.7,0.6-3.6,0.1-9.6-6.1c-6.1-6.2-6.4-6.7-3.7-6
	c1.7,0.4,4.1,1.9,5.3,3.4c2.2,2.5,2.3,2.5,1.2,0.3l-1.2-2.4l3,2.2c1.7,1.2,3.9,3.2,4.9,4.4c1,1.3,3.7,3.1,6.1,4c5,2,5.2,2,5.2,0.7
	c0-0.6-0.9-1-2.1-1c-2.9,0-5.8-1.7-10.4-6.2c-3.6-3.4-3.8-3.8-1.7-3.8c1.4,0,2.2,0.6,2.2,1.7c0,0.9,0.3,1.3,0.6,1
	c0.4-0.4,2,0.3,3.6,1.4c1.5,1.1,3.4,1.8,4.1,1.6c0.9-0.4,0.8-0.6-0.1-0.6c-1.8-0.1-7.5-4.2-6.8-4.8c0.3-0.3-0.7-1.5-2.2-2.8
	l-2.7-2.3l4.4-0.8c3.3-0.7,1-1-10.4-1.2c-8.1-0.1-15.6-0.7-16.6-1.3c-8-4.3-9.2-31.6-1.7-38.6c1.3-1.1,4.8-2.9,7.9-3.8
	c5.7-1.8,5.7-1.8,9,0.6c1.9,1.3,4.4,2.2,6.1,2.1c2.3-0.2,2.7,0.1,2.5,2c-0.1,1.7,0.4,2.4,2.2,2.6c3.4,0.5,5.1-1.5,2.1-2.6
	c-2-0.7-1.5-1,2.9-1.5c7.7-0.9,14.1-5.7,7.7-5.7c-2.5,0-5.6,2.3-5.6,4.2c0,0.7-2,0.8-5.7,0.3c-5.8-0.7-13-3.1-12.1-4
	c0.7-0.7,20.6-2.9,25.3-2.8c2.8,0,3.4-0.2,2-0.7c-1.8-0.6-1.7-0.9,1.4-2.4c1.9-1,3.6-1.4,4-0.9c1.1,1.8,4.1,2.2,6.6,1.1
	c3.1-1.4,2.5-2.4-2-3.2c-3.1-0.6-3.4-0.9-2.9-3.5c0.4-1.8,0.1-3.2-0.7-3.6c-1.8-1.2-4.1,2.5-3.5,5.7c0.5,2.3,0,2.8-3.7,4.3
	c-2.3,1-7.3,2-11.2,2.2c-6.4,0.5-6.8,0.4-5-1c1.4-1.1,2.4-1.2,3.3-0.5c0.9,0.8,2,0.8,3.7,0c3.4-1.5,3.2-3.2-0.4-3.2
	c-2.5,0-2.8-0.3-2.3-2.5c0.3-1.8,0-2.5-1.2-2.5c-1.7,0-3.2,4.2-2.2,5.9c1,1.5-4.2,3.8-10.4,4.6c-3,0.3-7,1-8.7,1.5
	c-1.8,0.5-3.3,0.5-3.3,0.2c0-1.6,6.1-10.9,8.7-13.4c2.2-2.1,4.4-3,9.1-3.6c5.5-0.8,6.2-0.7,6.2,0.8c0,2.1,1.6,3.5,4.8,4.3
	c2.8,0.7,3-1.8,0.2-3.5c-2.5-1.6-2.5-2.5-0.1-3.3c1.1-0.3,2.2-1.2,2.5-2c0.9-2.4-5.1-1.9-7.1,0.5c-1.2,1.4-3,2-5.8,2
	c-3.8-0.1-3.9-0.1-2-1.6c1.1-0.9,4.7-2.9,8-4.5c5-2.4,6.1-2.6,6.8-1.4c0.5,1,2.3,1.5,5,1.5l4.2-0.1l-2.9-2.3l-2.9-2.4l4.4-1
	c2.7-0.6,3.5-1,2-1.1c-2.3-0.1-2.4-0.2-0.6-2.1c1-1.1,1.3-2,0.7-2s-1.4,0.5-1.7,1c-0.6,1-9.8,6-11,6c-0.4,0-0.3-0.5,0.1-1.1
	c0.3-0.6-1.2,0.1-3.5,1.5l-4.1,2.6v-4.2c0-3.2,0.7-4.9,2.8-7.2c1.5-1.7,1.9-2.4,1-1.7c-2.8,2.1-2.2-0.4,1.2-5.8l3.1-4.6l-3.6,4
	l-3.5,4v-3c0-1.9,0.7-3.5,2-4.3c2-1.2,2.9-6.2,1.1-6.2c-2,0-3.4,3.4-4.2,10.6c-1.3,11.8-1.3,11.9-5.7,8.9c-3.8-2.6-6.2-3.2-6.2-1.5
	c0,1.9,4,5,6.5,5c2.2,0,2.5,0.4,2.5,3.3c0,2-0.8,4.1-1.8,5c-2.5,2.3-3.5,2.1-2.2-0.4c0.7-1.1,0.9-2.8,0.6-3.6
	c-0.6-1.4-0.9-1.4-2.6,0.2c-2.1,1.9-2.8,6.5-1,6.5c0.6,0-0.4,1.3-2.2,2.9l-3.3,3l-0.5-6.7c-0.4-4.1-0.1-8.4,0.7-11.1
	c1.7-5.7,1.5-7.7-0.2-3.1c-1.4,3.8-1.6,3.5-3.4-3.5c-0.8-3.3-0.8-3.7,0.2-2.3c0.7,0.9,2.9,1.9,4.9,2.3c2.9,0.6,3.8,0.3,5.1-1.5
	l1.4-2.1l0.6,2.2c0.9,3.3,3.2,1.7,3.5-2.5c0.2-2.1,0-3.6-0.5-3.4c-0.4,0.2-2.7,1.2-5,2.2c-2.4,1-4.3,2.3-4.3,2.9
	c0,0.6-1.3-0.4-3-2.3c-1.9-2.3-3-3-3.1-2c-0.1,0.8-0.4,0.1-0.8-1.5c-0.9-3.8-0.3-6.5,1.4-5.9c1.3,0.5,4.5-2.1,4.5-3.7
	c0-1.3-3.4-1.1-4.7,0.2c-0.9,0.9-1,0.7-0.6-1c0.3-1.1,0.3-2.1,0-2.1C166.1-194.4,165.6-192.7,165.2-190.7z M128.6-86.7
	c-1,0.2-2.6,0.2-3.5,0c-1-0.3-0.2-0.5,1.7-0.5S129.5-87,128.6-86.7z M138.5-86.8c-0.3,0.3-1.2,0.4-1.9,0.1c-0.8-0.3-0.5-0.6,0.6-0.6
	C138.3-87.4,138.9-87.1,138.5-86.8z M145-85.2c-0.7,0.7-1.2,0.8-1.2,0.2s0.3-1.4,0.7-1.7c0.3-0.4,0.9-0.5,1.2-0.2
	C145.9-86.6,145.6-85.8,145-85.2z M165.3-86.4c1.8,0.8,1.7,0.9-0.7,0.9c-1.5,0.1-3-0.4-3.3-0.9C160.6-87.6,162.5-87.6,165.3-86.4z
	 M182.7-84.6c2.6,1.7,2.6,1.7,0.4,2c-1.2,0.2-3.2-0.3-4.5-1s-3-1.3-3.8-1.4c-0.8-0.1-2.6-0.2-4-0.4c-2.4-0.2-2.4-0.3,0.5-1
	C175.2-87.5,179.6-86.8,182.7-84.6z M127.7-84.8c0.6,0.5-4.9,2.6-9.2,3.4c-4.2,0.8-4.7-0.7-0.9-2.6c1.2-0.6,1.9-1.3,1.6-1.7
	C118.6-86.2,127-85.4,127.7-84.8z M147.7-78c-0.9,0.8-1,0.7-0.5-0.7c0.3-1,0.7-2.8,0.7-4c0.2-1.6,0.3-1.4,0.6,0.7
	C148.8-80.4,148.4-78.6,147.7-78z M125.8-82c0,1-3.2,3.6-4.3,3.6c-0.7-0.1-0.1-1,1.2-2C125-82.4,125.8-82.8,125.8-82z M144.8-79.3
	c0,1.7-0.4,2.8-1,2.4c-0.5-0.3-1-1.7-1-3.1c0-1.3,0.5-2.4,1-2.4C144.4-82.4,144.8-81,144.8-79.3z M140.5-78.4c-0.3,1.1-0.1,2,0.4,2
	c1.5,0,1,3-0.6,3.6c-0.8,0.4-1.3,1-1,1.4c0.3,0.5,0.1,1.1-0.4,1.4c-1.8,1.2-2.3-1.5-0.6-3.4c0.9-1,1.2-1.9,0.6-2.1
	c-1.3-0.5-0.2-4.9,1.1-4.9C140.6-80.4,140.8-79.5,140.5-78.4z M150.8-79.1c0,0.7-0.7,2.2-1.5,3.3c-1.3,1.7-1.4,1.6-0.4-1.4
	C150-80.5,150.8-81.3,150.8-79.1z M155.9-75.2c-0.9,2-1,1.8-1-1.7c0-3.1,0.2-3.6,0.9-2.3C156.4-78.2,156.5-76.7,155.9-75.2z
	 M161-77.9c0.4,2,0.3,2.3-0.8,1.4c-1.6-1.3-1.9-3.9-0.5-3.9C160.2-80.4,160.8-79.3,161-77.9z M170.2-73.5c1,1.8,1.6,3.4,1.3,3.7
	c-1.1,1.1-6.8-2.8-7.8-5.2C161.5-80.9,166.6-79.6,170.2-73.5z M136.8-76.9c0,0.8-0.4,1.5-1,1.5c-0.5,0-0.7-0.7-0.4-1.5
	c0.4-0.8,0.8-1.5,1-1.5S136.8-77.7,136.8-76.9z M146.1-73.4c0.3,1.1,0,2.3-0.5,2.7c-0.6,0.3-0.8,0.1-0.4-0.5
	c0.3-0.5,0.1-1.2-0.6-1.4c-0.6-0.2-0.8-1-0.4-1.6C145.2-75.8,145.5-75.7,146.1-73.4z M151.3-70.6c-0.6,2.3-0.8,2.4-1.6,0.9
	c-0.7-1.1-0.6-2.4,0.2-3.9C151.4-76.4,152.3-74.5,151.3-70.6z M161.8-72.8c0,0.3-0.5,1.4-1.1,2.5c-1.4,2.6-2.9,1.5-2.9-2.2
	c0-2.7,0.2-2.9,2-1.9C160.9-73.8,161.8-73.1,161.8-72.8z M147.1-64.4c-0.2,5.1-2.3,8-2.4,3.4c0-1.6-0.2-3.8-0.4-4.8
	c-0.5-2.5,0.3-3.8,1.8-3.3C146.8-68.9,147.2-66.9,147.1-64.4z M156.2-65.1c0.4,1.6,0.3,2.6-0.2,2.3s-0.7,0.9-0.5,2.7l0.3,3.2
	l-1.4-3.5c-1.7-4.2-1.9-5.3-0.7-4.6c0.4,0.3,0.6-0.7,0.3-2.2C153.4-70.8,155.3-68.9,156.2-65.1z M159.1-64.4
	c0.3,1.1,0.1,1.8-0.4,1.4c-0.5-0.3-0.9-1.2-0.9-2C157.8-67,158.5-66.7,159.1-64.4z M140.8-61.8c-1.8,2.1-2.4,1-0.9-1.8
	c0.8-1.4,1.4-1.8,1.7-1C141.8-63.9,141.4-62.7,140.8-61.8z M152.2-62.8c0.8,2.1-0.3,8.2-1.6,9c-1.8,1.2-2.5-1.7-1.5-6.2
	C150.2-64.6,151.2-65.5,152.2-62.8z M172.5-56.2c-0.3,0.8-0.6,0.5-0.6-0.6c-0.1-1.1,0.2-1.7,0.5-1.3
	C172.7-57.8,172.8-56.9,172.5-56.2z M146.5-52.2c-0.2,1.3-0.4,0.5-0.4-1.7c-0.1-2.2,0.1-3.2,0.4-2.3
	C146.7-55.2,146.7-53.4,146.5-52.2z"/>
<path class="st0" d="M145.3-67.4c0.3,0.5,0.8,1,1.1,1c0.2,0,0.4-0.5,0.4-1c0-0.6-0.5-1-1.1-1C145.2-68.4,145-68,145.3-67.4z"/>
<path class="st0" d="M192.9-191.5c-1.5,2.7-1.4,3.4,0.9,5.9c2.3,2.4,6.9,2.9,8.8,1c2.2-2.2,1.3-3-2.8-2.6c-3.8,0.3-4,0.2-4-2.4
	C195.8-193,194.2-194,192.9-191.5z"/>
<path class="st0" d="M104.2-191.1c-0.7,2-0.2,4.7,1.1,5c1.4,0.3,1.9-4.3,0.6-5.6C105.2-192.4,104.7-192.3,104.2-191.1z"/>
<path class="st0" d="M107.8-188.2c0,0.7,0.7,2.3,1.5,3.5c2.6,3.8,11.5,1.1,11.5-3.4c0-1.9-1.6-1.6-4.7,1.1l-2.7,2.4l-1.1-2.2
	C111.1-189.2,107.8-190.2,107.8-188.2z"/>
<path class="st0" d="M178.8-187.6c0,1,0.5,2.3,1.2,3c1.7,1.7,4.8,1.5,4.8-0.2c0-1.4-3.6-4.6-5.2-4.6
	C179.1-189.4,178.8-188.6,178.8-187.6z"/>
<path class="st0" d="M150.5-186.7c0.3,1,1,2.3,1.5,2.9c0.5,0.8,0.2,1.4-0.9,1.9c-1.6,0.6-1.6,0.8,0.6,2.6c1.3,1,2.9,1.9,3.7,1.9
	c2.1,0,2.8-2.2,1-3.5c-0.9-0.7-1.4-1.9-1.1-2.7c0.7-1.7-1.9-4.8-4-4.8C150.4-188.4,150.1-187.8,150.5-186.7z"/>
<path class="st0" d="M97.7-186.3c-1.2,0.8-1.1,1.2,0.5,2.4c2.2,1.7,5.2,2,6,0.6C105.4-185.2,99.9-187.7,97.7-186.3z"/>
<path class="st0" d="M125.2-183.8c-0.4,1.7-0.1,3.1,0.9,4.1c1.3,1.4,1.6,1.3,2.5-0.3c1.1-2.1-0.1-6.4-1.7-6.4
	C126.3-186.4,125.5-185.2,125.2-183.8z"/>
<path class="st0" d="M170.4-183.7c-0.5,1.7-0.2,3.1,0.7,4.1c1.3,1.3,1.6,1.2,2.7-0.7c1.3-2.5,0.5-6.1-1.5-6.1
	C171.6-186.4,170.7-185.2,170.4-183.7z"/>
<path class="st0" d="M207.4-182c-0.8,3.4,0.1,6.9,1.7,6.3c1.8-0.5,2-4.9,0.4-7.1C208.2-184.6,208.1-184.6,207.4-182z"/>
<path class="st0" d="M89.8-180.4c-1.3,2.5-0.4,6,1.5,6c1.7,0,2.8-3.4,2-6S91.2-182.9,89.8-180.4z"/>
<path class="st0" d="M117.4-179.8c-1.6,4.3,0.6,8.2,2.9,5c1.1-1.4,1.4-1.5,2.5-0.1c1.6,1.9,4,1.9,4,0c0-0.8-1.8-2.6-4-4
	C118.1-181.9,118.2-181.8,117.4-179.8z"/>
<path class="st0" d="M196.8-179.3c-0.7,1.1-0.9,2.3-0.6,2.6c1,1.1,5.6-0.8,6.6-2.7c1-1.8,0.8-2-1.9-2
	C198.9-181.4,197.5-180.7,196.8-179.3z"/>
<path class="st0" d="M96.8-174.5c0,3.2,3.3,6.1,4.5,4.1c1-1.6-0.4-4.9-2.6-6C97-177.4,96.8-177.1,96.8-174.5z"/>
<path class="st0" d="M200.1-175.9c-2.5,1.8-3.1,5.5-0.9,5.5c2,0,3.8-2.6,3.4-5C202.3-177.3,202.2-177.4,200.1-175.9z"/>
<path class="st0" d="M210.9-175.1c-1.4,0.6-2.6,1.9-2.8,2.7c-0.4,1.2-0.3,1.3,0.5,0.1c0.5-0.7,1.5-1,2.1-0.6c1.8,1.1,6.1-0.3,6.1-2
	C216.8-176.7,214.2-176.8,210.9-175.1z"/>
<path class="st0" d="M193.2-170.8c-0.9,3.5,1,5.3,2.6,2.4c1.2-2.3,0.7-5-0.9-5C194.3-173.4,193.5-172.2,193.2-170.8z"/>
<path class="st0" d="M119.6-169.8c-3.2,1.7-3.6,3-1,3.2c3.4,0.2,6.2-0.9,7.2-2.8c0.9-1.7,0.8-2-1.2-2
	C123.3-171.3,121.1-170.6,119.6-169.8z"/>
<path class="st0" d="M137.8-171.1c-3.3,2.5-3.6,5-0.8,5c2.1,0,4.3-3.2,3.8-5.6C140.6-173,140-172.9,137.8-171.1z"/>
<path class="st0" d="M154.8-168.2c0,2.9,1.7,4.8,4.2,4.8c2.3,0,2.3-2.2,0.1-4.2C155.7-170.5,154.8-170.6,154.8-168.2z"/>
<path class="st0" d="M211.9-169.5c-1.3,0.9-0.7,3.1,0.8,3.1c0.5,0,1.9-0.9,3.2-2l2.4-1.9l-2.5-0.1
	C214.4-170.4,212.7-170,211.9-169.5z"/>
<path class="st0" d="M79.1-166.4c-3.2,1.3-2.9,3,0.6,3s6-2.4,3.5-3.4c-0.8-0.3-1.6-0.6-1.7-0.5C81.4-167.3,80.3-166.9,79.1-166.4z"
	/>
<path class="st0" d="M134.8-165.2c-1.3,2.8-0.8,5.8,0.9,5.8c1.6,0,2.4-4.6,1.3-6.7C136.1-167.7,135.9-167.6,134.8-165.2z"/>
<path class="st0" d="M162.5-166.8c-0.4,0.4-0.7,2.1-0.7,3.8c0,2.3-0.3,2.7-1.2,1.8c-1.6-1.6-6.1-1.6-5.6,0c0.3,0.7,1.5,1.8,2.7,2.4
	c2.8,1.4,8.1-0.8,8.1-3.5C165.8-164.5,163.5-167.7,162.5-166.8z"/>
<path class="st0" d="M215.8-166.4c-1.3,0.9-1.3,1.1,0,2c1.8,1.2,6,1.3,6,0.2c0-1.2-2.2-3.2-3.4-3.2
	C217.8-167.4,216.6-166.9,215.8-166.4z"/>
<path class="st0" d="M208.8-164.6c0,1.6,3.6,4.2,5.8,4.2c2.8,0,2.8-1.5,0-3.4C212.2-165.5,208.8-165.9,208.8-164.6z"/>
<path class="st0" d="M121.5-161.2c-0.7,2.6,0.8,5.8,2.8,5.8c1.8,0,1.9-2,0.3-5.5C123.2-164,122.2-164.1,121.5-161.2z"/>
<path class="st0" d="M138.8-160.9c-1.9,2.3,0,3.7,2.9,2.2c1.4-0.7,2.6-1.8,2.9-2.5C145.2-163,140.3-162.7,138.8-160.9z"/>
<path class="st0" d="M103-156.2c0.3,0.9,2.2,2.3,4.6,3.4c0.2,0.1-0.9,1.4-2.3,2.9c-3.2,3.1-2.9,3.7,1,2.7c3.8-1.1,5.7-6.9,2.9-8.9
	C107-157.7,102.5-157.8,103-156.2z"/>
<path class="st0" d="M163.8-155.9c0,0.5,0.5,1.7,1,2.5s1,1,1,0.5c0-0.6-0.5-1.7-1-2.5S163.8-156.5,163.8-155.9z"/>
<path class="st0" d="M97.3-152c-1.8,1.3-1.8,1.5-0.3,2.1c2.6,1,6.3,0.2,6.3-1.5C103.3-153.4,99.7-153.8,97.3-152z"/>
<path class="st0" d="M195.5-152.7c-0.4,0.3-0.2,1.2,0.4,2c1.3,1.5,6.5,1.8,7.4,0.4C204.4-152.3,197.2-154.5,195.5-152.7z"/>
<path class="st0" d="M78.5-150.7c1.1,3.1,2.5,4.3,4.9,4.3c3.1,0,3-1.4-0.2-3.9C79.9-152.9,77.6-153.1,78.5-150.7z"/>
<path class="st0" d="M216-150.2c-1.4,1.4-1.6,4.8-0.4,4.8c1,0,3.4-2,5.1-4.3c1.2-1.5,1.1-1.7-1.1-1.7
	C218.3-151.4,216.7-150.9,216-150.2z"/>
<path class="st0" d="M89.3-149.4c-0.3,0.9-0.4,2.7-0.3,4c0.3,2.1-0.2,2.6-2.7,2.8c-4.3,0.5-5.3,1.9-2.1,3.2c3.8,1.4,4.2,1.3,7.1-1.7
	c3-3.3,3.1-4.4,0.6-7.4C90.3-150.5,89.8-150.6,89.3-149.4z"/>
<path class="st0" d="M148.1-144.2c-2.5,1.2-3.8,3.7-2.5,5c1.1,1.1,6.2-2.8,6.2-4.8C151.8-145.6,151.1-145.7,148.1-144.2z"/>
<path class="st0" d="M82.8-133.9c-0.7,0.9-1,1.8-0.7,2.1c0.9,0.9,6-1,6.5-2.4C89.2-136,84.3-135.7,82.8-133.9z"/>
<path class="st0" d="M210.8-134.4c0,1.2,3.3,3,5.5,3c1.3,0,1.4-0.4,0.5-2C215.7-135.4,210.8-136.3,210.8-134.4z"/>
<path class="st0" d="M97.8-133.6c0,1.4,3.5,4.2,5.2,4.2c2.4,0,2.9-1.2,1.1-3.2C102.5-134.4,97.8-135.1,97.8-133.6z"/>
<path class="st0" d="M91.3-130.5c-1.1,2,6.1,4.2,7.8,2.4c0.4-0.3,0.2-1.2-0.4-2C97.4-131.6,92.2-131.9,91.3-130.5z"/>
<path class="st0" d="M200.9-130c-1.1,1.3-1,1.7,0.4,2.2c2,0.8,6.8-0.7,6.9-2.1C208.3-131.6,202.2-131.6,200.9-130z"/>
<path class="st0" d="M99.1-125.9l-2.8,2.4l3.1,0.1c3.2,0,5.4-1.5,5.4-3.7C104.8-129.2,102.2-128.6,99.1-125.9z"/>
<path class="st0" d="M194.5-127.7c-1.4,1.3,2.6,4.3,5.7,4.3l3.1-0.1l-2.8-2.4C197.7-128.4,195.7-129,194.5-127.7z"/>
<path class="st0" d="M116-122.3c0.2,1.8,0.9,3.4,1.6,3.7c1,0.3,1.3-0.5,1-2.9c-0.2-1.8-0.9-3.4-1.6-3.7
	C116-125.5,115.7-124.7,116-122.3z"/>
<path class="st0" d="M180.8-121.9c0,3.6,1.3,4.7,2.4,1.9c1.1-2.8,0.6-5.4-0.9-5.4C181.3-125.4,180.8-124.3,180.8-121.9z"/>
<path class="st0" d="M195.8-86.1c1.4,0.8,2.7,1.2,3,1c0.7-0.6-2.3-2.3-4-2.3C194-87.4,194.4-86.8,195.8-86.1z"/>
<path class="st0" d="M103.1-85c0,1.2,0.5,1.3,2.1,0.4c3.1-1.6,3.2-1.8,0.4-1.8C104.1-86.4,103.1-85.8,103.1-85z"/>
<path class="st0" d="M200.5-84.3c0.8,0.8,1.6,0.8,3,0c1.6-0.9,1.4-1-1.1-1.1C200.2-85.4,199.7-85.1,200.5-84.3z"/>
<path class="st0" d="M189.8-82.4c0,1.2,1.7,1.2,4.5,0c1.7-0.7,1.5-0.9-1.2-0.9C191.3-83.4,189.8-83,189.8-82.4z"/>
<path class="st0" d="M198.3-82.4c-0.4,0.6,0.3,1,1.4,1c2.5,0,2.7-0.6,0.6-1.3C199.5-83.1,198.6-82.9,198.3-82.4z"/>
<path class="st0" d="M203.1-81.8c0,0.7,1.1,1.5,2.4,1.9c1.3,0.3,2.2,0.9,1.9,1.3c-0.2,0.4,0.4,0.8,1.5,0.8c1,0,1.9-0.4,1.9-0.8
	c0-0.4-0.7-0.8-1.5-0.8s-1.5-0.3-1.5-0.8c0-0.4-1.1-1.2-2.3-1.8C203.7-82.8,203.1-82.8,203.1-81.8z"/>
<path class="st0" d="M89.8-78.4c0.8,0.5,2,1,2.5,1c0.6,0,0.3-0.5-0.5-1s-1.9-1-2.5-1C88.8-79.4,89-78.9,89.8-78.4z"/>
<path class="st0" d="M95.9-75.7c0.8,0.9,0.9,1.4,0.3,1c-0.7-0.4-1.7,0-2.3,0.7c-1.4,1.7-0.3,1.6,4.2-0.2c3.3-1.4,2.7-3.2-1-3.2
	C94.8-77.4,94.7-77.2,95.9-75.7z"/>
<path class="st0" d="M112.8-76.3c0,0.5,0.5,0.7,1,0.4c0.6-0.3,1-0.8,1-1.1c0-0.2-0.4-0.4-1-0.4C113.3-77.4,112.8-76.9,112.8-76.3z"
	/>
<path class="st0" d="M206-72.8c0.9,0.9,2.1,1.5,2.7,1.3c0.6-0.2-0.2-1-1.7-1.7C204.5-74.3,204.5-74.3,206-72.8z"/>
<path class="st0" d="M201.6-70.7c0.6,0.2,1.8,0.2,2.5,0c0.6-0.3,0.1-0.5-1.3-0.5S200.9-71,201.6-70.7z"/>
<path class="st0" d="M203.8-68.6c0,0.4,0.9,1.3,2,1.9c1.6,1.1,1.8,1,1.4-0.1C206.6-68.3,203.8-69.8,203.8-68.6z"/>
<path class="st0" d="M86.8-66.6c0,0.8,10,0.5,10.9-0.3c0.2-0.3-2.1-0.5-5.2-0.5C89.4-67.4,86.8-67,86.8-66.6z"/>
<path class="st0" d="M187.4-66.6c-0.3,0.6,0.1,1.3,1,1.6c2.3,0.9,2.8,0.2,1-1.3C188.6-67,187.7-67.1,187.4-66.6z"/>
<path class="st0" d="M128.1-64.1c-2.2,4.8-2.9,8.4-2.2,10.2c0.7,1.9,0.8,1.9,0.8-0.2c0.1-1.2,0.5-2.4,1.1-2.8c0.5-0.3,0.7-1.2,0.3-2
	c-0.3-0.9,0.2-2.6,1.1-4c0.9-1.3,1.2-2.6,0.7-2.9C129.5-66.1,128.7-65.3,128.1-64.1z"/>
<path class="st0" d="M100.4-63.8c-0.5,1.4-0.4,1.5,0.9,0.4c1.7-1.4,1.9-2,0.6-2C101.4-65.4,100.7-64.7,100.4-63.8z"/>
<path class="st0" d="M198.5-63.3c0.7,0.7,1.5,1,1.8,0.7s-0.2-0.9-1.2-1.2C197.7-64.4,197.6-64.3,198.5-63.3z"/>
<path class="st0" d="M110.4-60.7c-0.6,1.4-0.5,1.5,0.5,0.6c0.7-0.7,1-1.5,0.7-1.8C111.3-62.2,110.7-61.7,110.4-60.7z"/>
<path class="st0" d="M195.9-60.7c0.7,1.2,1.5,2,1.8,1.7c0.3-0.2-0.3-1.2-1.3-2.2C194.7-62.8,194.6-62.8,195.9-60.7z"/>
<path class="st0" d="M97.7-59.7c-1.3,1.6-1.2,1.7,0.4,0.4c0.9-0.7,1.7-1.5,1.7-1.7C99.8-61.8,99-61.3,97.7-59.7z"/>
<path class="st0" d="M176.3-57.9c1.1,0.9,2.9,2.1,4,2.6l2,1l-2-1.6c-1.1-0.9-2.9-2.1-4-2.6l-2-1L176.3-57.9z"/>
<path class="st0" d="M110.3-55.4c-0.3,0.5-0.1,1,0.4,1c0.6,0,1.1-0.5,1.1-1c0-0.6-0.2-1-0.4-1C111.1-56.4,110.6-56,110.3-55.4z"/>
<path class="st0" d="M105.9-49.7c-2,2.1-2.6,3.1-1.4,2.4c1.1-0.5,2.4-0.7,2.8-0.3c0.3,0.4,0.5,0.2,0.4-0.3c-0.2-0.6,0.2-2,0.9-3.3
	C110.3-54.1,109.9-53.9,105.9-49.7z"/>
<path class="st0" d="M176.8-53c0,0.2,0.7,0.7,1.6,1c0.8,0.3,1.2,0.2,0.9-0.4C178.7-53.4,176.8-53.8,176.8-53z"/>
<path class="st0" d="M174.8-48.3c0,0.8,1.7,3.1,3.7,5c3.3,2.9,3.4,3,1.2,0.4c-1.5-1.7-3.1-3.9-3.7-5
	C175.1-49.4,174.9-49.5,174.8-48.3z"/>
<path class="st0" d="M173.4-44.9c0.4,0.8,1.1,1.5,1.6,1.5c0.6,0,0.5-0.6-0.2-1.5c-0.7-0.8-1.4-1.5-1.6-1.5S173.1-45.7,173.4-44.9z"
	/>
<path class="st0" d="M190.8-46c0,0.2,0.8,1,1.8,1.7c1.5,1.3,1.6,1.2,0.3-0.4S190.8-46.8,190.8-46z"/>
<path class="st0" d="M120.3-43.3c-0.4,0.6-0.5,1.2-0.2,1.5c0.2,0.3,0.7-0.2,1-1.1C121.8-44.6,121.2-44.9,120.3-43.3z"/>
<path class="st0" d="M135.5-39.7c-1,0.9-0.9,3.3,0.1,3.3c0.4,0,0.8-0.9,0.9-2C136.7-40.5,136.5-40.8,135.5-39.7z"/>
<path class="st0" d="M156.4-38.1c0.3,1,0.9,1.5,1.2,1.2s0-1.1-0.7-1.8C155.9-39.6,155.8-39.5,156.4-38.1z"/>
<path class="st0" d="M163.9-37.8c0,1.1,0.3,1.4,0.6,0.6c0.3-0.7,0.2-1.6-0.1-1.9C164.1-39.5,163.8-38.9,163.9-37.8z"/>
<path class="st0" d="M161.6-34.7c0.5,2.1,0.7,2.3,1,0.9c0.2-1,0-2.2-0.6-2.8C161.4-37.2,161.3-36.6,161.6-34.7z"/>
<path class="st0" d="M137.5-33.3c0.4,1.3,0.8,1.8,1.1,1c0.2-0.7-0.1-1.8-0.6-2.3C137.2-35.4,137.1-35,137.5-33.3z"/>
</svg>
