<?xml version="1.0" encoding="utf-8"?>
<!-- Generator: Adobe Illustrator 27.0.0, SVG Export Plug-In . SVG Version: 6.00 Build 0)  -->
<svg version="1.1" id="Layer_1" xmlns="http://www.w3.org/2000/svg" xmlns:xlink="http://www.w3.org/1999/xlink" x="0px" y="0px"
	 viewBox="0 0 312 297" style="enable-background:new 0 0 312 297;" xml:space="preserve">
<style type="text/css">
	.st0{fill:#FFFFFF;}
</style>
<image style="overflow:visible;" width="300" height="300" xlink:href="5BE74046.jpg"  transform="matrix(1.04 0 0 0.9856 0 1.3194)">
</image>
<g transform="translate(0.000000,297.000000) scale(0.100000,-0.100000)">
	<path class="st0" d="M1419.7,2647.7c-8.3-17.7-16.6-23.7-28.1-18.7c-39.5,15.8-63.4,15.8-63.4,1c0-22.7,35.4-37.5,78-33.5
		c44.7,4.9,46.8,6.9,49.9,41.4C1459.2,2674.3,1435.3,2680.2,1419.7,2647.7z"/>
	<path class="st0" d="M1723.3,2644.7c0-37.5,16.6-50.3,66.6-48.3c29.1,2,44.7,7.9,56.2,24.6c14.6,20.7,13.5,21.7-8.3,21.7
		c-13.5,0-32.2-6.9-42.6-15.8c-16.6-13.8-18.7-12.8-32.2,11.8C1743.1,2677.2,1723.3,2680.2,1723.3,2644.7z"/>
	<path class="st0" d="M1232.5,2576.7c-19.8-20.7-25-52.2-9.4-52.2c16.6,0,34.3,28.6,30.2,50.3
		C1250.1,2595.4,1250.1,2595.4,1232.5,2576.7z"/>
	<path class="st0" d="M1920.9,2566.9c0-18.7,6.2-32.5,15.6-36.5c27-8.9,31.2,22.7,6.2,46.3l-21.8,20.7V2566.9z"/>
	<path class="st0" d="M1478.9,2563.9c-13.5-14.8-15.6-23.7-8.3-30.6c14.6-13.8,49.9,3,65.5,30.6c9.4,16.8,8.3,19.7-13.5,19.7
		C1509.1,2583.6,1489.3,2574.7,1478.9,2563.9z"/>
	<path class="st0" d="M1748.3,2547.1l-7.3-36.5l-21.8,25.6c-12.5,14.8-35.4,29.6-53,33.5c-30.2,6.9-31.2,6.9-14.6-16.8
		c9.4-12.8,29.1-24.6,43.7-26.6c28.1-3,32.2-10.8,44.7-105.5l6.2-49.3l-26,29.6c-21.8,24.6-23.9,30.6-10.4,39.4
		c14.6,9.9,13.5,14.8-1,43.4c-9.4,16.8-22.9,28.6-29.1,24.6c-18.7-10.8-1-68,40.6-128.1l39.5-58.2l-1-108.4
		c-1-96.6-4.2-114.3-28.1-159.7c-38.5-71.9-48.9-72.9-48.9-8.9c0,43.4,3.1,53.2,14.6,49.3c16.6-5.9,37.4,23.7,37.4,54.2
		c0,27.6-14.6,25.6-39.5-3.9c-19.8-23.7-20.8-23.7-38.5-4.9c-20.8,22.7-46.8,25.6-46.8,6.9c0-21.7,33.3-58.2,47.8-52.2
		c11.4,3.9,14.6-4.9,14.6-34.5c0-21.7-4.2-37.5-8.3-34.5c-4.2,2-8.3-10.8-8.3-29.6c0-24.6-8.3-42.4-32.2-64.1
		c-27-26.6-34.3-28.6-52-17.7c-31.2,17.7-58.2,66-52,92.6c2.1,13.8,0,21.7-4.2,18.7c-5.2-3-9.4,12.8-9.4,34.5
		c0,29.6,3.1,38.4,14.6,34.5c8.3-3,21.8,4.9,31.2,17.7c33.3,44.4,11.4,65-30.2,27.6l-22.9-20.7L1480,2145
		c-22.9,32.5-37.4,31.5-37.4-3.9c0-30.6,22.9-56.2,41.6-45.3c6.2,3.9,10.4-13.8,10.4-50.3c0-55.2,0-56.2-20.8-38.4
		c-11.4,9.9-29.1,40.4-40.6,67c-18.7,49.3-18.7,51.3,0,105.5c14.6,41.4,15.6,49.3,4.2,35.5c-8.3-10.8-15.6-24.6-15.6-29.6
		c0-5.9-5.2-3.9-10.4,3.9c-11.4,15.8-4.2,96.6,12.5,138c5.2,13.8,18.7,38.4,31.2,54.2c17.7,24.6,27,29.6,54.1,26.6
		c22.9-3,38.5,2,52,16.8c19.8,20.7,19.8,20.7-17.7,20.7c-34.3,0-37.4,2-40.6,32.5c-4.2,38.4-17.7,40.4-39.5,3.9
		c-14.6-25.6-14.6-28.6,1-39.4c15.6-11.8,14.6-15.8-12.5-46.3c-28.1-32.5-30.2-32.5-26-9.9c3.1,13.8,7.3,43.4,10.4,66
		c3.1,22.7,9.4,48.3,13.5,58.2c4.2,11.8,3.1,14.8-5.2,9.9c-8.3-4.9-12.5,1-12.5,15.8c0,15.8-3.1,18.7-9.4,9.9
		c-6.2-9.9-10.4-9.9-21.8,3c-16.6,18.7-41.6,19.7-41.6,1c0-16.8,40.6-47.3,54.1-39.4c4.2,3,8.3-13.8,8.3-37.5
		c0-24.6-4.2-37.5-8.3-29.6c-6.2,8.9-14.6,6.9-31.2-7.9c-25-22.7-30.2-49.3-9.4-49.3c7.3,0,19.8,5.9,27,12.8
		c11.4,9.9,12.5,4.9,6.2-27.6c-9.4-55.2-22.9-63.1-35.4-23.7c-9.4,29.6-10.4,29.6-5.2,3.9c3.1-15.8,8.3-71,11.4-122.2l6.2-92.6
		l-34.3,22.7c-67.6,46.3-116.5,96.6-110.2,115.3c3.1,9.9-1,39.4-9.4,66c-8.3,26.6-16.6,64.1-16.6,83.8c-2.1,32.5-2.1,33.5-6.2,6.9
		l-5.2-29.6l-35.4,39.4l-36.4,38.4l32.2-48.3c33.3-52.2,39.5-71,18.7-59.1c-7.3,3.9-3.1-3.9,10.4-17.7c18.7-19.7,23.9-34.5,20.8-66
		l-3.1-40.4l-39.5,24.6c-32.2,21.7-37.4,29.6-32.2,50.3c6.2,23.7-9.4,53.2-29.1,53.2c-14.6,0-6.2-61.1,10.4-80.8
		c28.1-31.5-67.6,10.8-117.5,53.2c-43.7,36.5-109.2,60.1-109.2,39.4c0-17.7,31.2-33.5,55.1-27.6c18.7,3.9,32.2-2,54.1-23.7
		l30.2-29.6h-36.4c-23.9,0-39.5,5.9-48.9,19.7c-7.3,11.8-23.9,19.7-41.6,19.7l-28.1-1l28.1-22.7c27-23.7,27-23.7,7.3-41.4
		c-27-22.7-25-33.5,5.2-33.5c14.6,0,34.3,10.8,46.8,25.6c18.7,22.7,26,24.6,63.4,18.7c41.6-6.9,42.6-7.9,21.8-21.7
		c-29.1-18.7-28.1-32.5,3.1-32.5c26,0,53,21.7,40.6,33.5c-13.5,11.8,88.4-31.5,140.4-60.1l48.9-27.6l-44.7-3
		c-59.3-3.9-44.7-21.7,18.7-21.7c38.5,0,57.2-5.9,80.1-23.7c30.2-24.6,103-131.1,94.6-139c-2.1-2-21.8,0-42.6,5.9
		c-27,6.9-38.5,15.8-38.5,28.6c0,9.9-12.5,27.6-28.1,39.4l-29.1,21.7l-3.1-21.7c-2.1-11.8,4.2-29.6,13.5-39.4
		c15.6-16.8,14.6-16.8-22.9-9.9c-60.3,9.9-85.3,25.6-79,49.3c5.2,19.7-12.5,49.3-29.1,49.3c-5.2,0-9.4-10.8-9.4-23.7
		c0-18.7-6.2-24.6-28.1-27.6c-36.4-3.9-36.4-19.7,1-32.5c21.8-6.9,30.2-5.9,37.4,4.9c8.3,12.8,12.5,11.8,28.1-3.9
		c18.7-17.7,16.6-17.7-56.2-12.8c-40.6,3-88.4,12.8-106.1,20.7c-41.6,20.7-57.2,19.7-16.6-1c28.1-14.8,29.1-16.8,10.4-22.7
		c-11.4-3.9,31.2-9.9,99.8-13.8c65.5-3.9,136.2-10.8,156-14.8l35.4-7.9l-31.2-12.8c-16.6-6.9-61.4-18.7-98.8-25.6
		c-52-8.9-59.3-11.8-31.2-12.8c30.2-1,33.3-3,17.7-11.8c-22.9-12.8-13.5-28.6,18.7-28.6c27,0,47.8,20.7,28.1,27.6
		c-21.8,6.9-2.1,21.7,27,21.7c15.6,0,46.8,9.9,69.7,20.7l41.6,20.7l62.4-22.7c52-19.7,66.6-30.6,88.4-68c22.9-39.4,26-55.2,26-147.8
		c-1-116.3-20.8-172.5-68.6-194.2c-14.6-6.9-80.1-12.8-150.8-14.8c-67.6-1-113.4-3.9-99.8-5.9c30.2-3.9,29.1-19.7-3.1-33.5
		c-13.5-5.9-22.9-14.8-19.8-19.7c3.1-3.9-9.4-10.8-27-14.8c-19.8-3-28.1-8.9-20.8-12.8c7.3-4.9,0-14.8-22.9-27.6
		c-18.7-11.8-29.1-21.7-22.9-21.7c6.2,0,28.1,10.8,47.8,22.7c33.3,21.7,122.7,42.4,122.7,28.6c0-3.9-16.6-26.6-37.4-50.3
		c-38.5-46.3-86.3-69-149.8-71c-33.3-1-34.3-1-10.4-7.9c33.3-9.9,61.4-7.9,90.5,6.9c30.2,15.8,39.5,14.8,25-2
		c-8.3-9.9-9.4-15.8-1-20.7c5.2-3,10.4-2,10.4,3.9c0,4.9,15.6,12.8,33.3,16.8c18.7,3,43.7,12.8,56.2,19.7c11.4,7.9,25,10.8,28.1,6.9
		c4.2-3,7.3-1,7.3,4.9c0,4.9,3.1,18.7,7.3,28.6c5.2,13.8,1,12.8-20.8-5.9c-15.6-13.8-28.1-20.7-28.1-16.8c0,3.9-12.5-2-28.1-12.8
		c-30.2-23.7-44.7-19.7-22.9,4.9c7.3,8.9,14.6,22.7,15.6,30.6c3.1,17.7,23.9,42.4,36.4,42.4c5.2,0,3.1-10.8-6.2-22.7
		c-13.5-19.7-13.5-23.7,0-23.7c8.3,0,12.5,3.9,9.4,8.9c-3.1,3.9-1,7.9,5.2,7.9c5.2,0,13.5,8.9,16.6,19.7c3.1,10.8,15.6,24.6,26,29.6
		c16.6,8.9,19.8,7.9,13.5-6.9c-3.1-9.9,4.2-5.9,16.6,9.9c12.5,14.8,32.2,26.6,43.7,26.6c27,0,25-7.9-8.3-42.4
		c-16.6-16.8-22.9-26.6-15.6-22.7c19.8,10.8,14.6-6.9-10.4-43.4c-14.6-19.7-47.8-44.4-81.1-60.1c-31.2-14.8-66.6-36.5-78-49.3
		c-19.8-20.7-18.7-20.7,15.6,3c61.4,41.4,63.4,42.4,57.2,10.8c-3.1-14.8-2.1-21.7,1-14.8c3.1,5.9,13.5,11.8,22.9,11.8
		c15.6,0,15.6,2,2.1,9.9s-10.4,13.8,15.6,34.5c17.7,12.8,37.4,21.7,44.7,19.7c7.3-3,11.4-1,8.3,3c-2.1,3.9,4.2,22.7,15.6,41.4
		c21.8,39.4,27,32.5,6.2-7.9c-8.3-14.8-12.5-41.4-10.4-60.1c2.1-18.7-2.1-39.4-7.3-45.3c-8.3-8.9-6.2-13.8,5.2-18.7
		c9.4-3,15.6,0,15.6,8.9c0,6.9,5.2,25.6,12.5,41.4c6.2,14.8,12.5,31.5,12.5,36.5c1,4.9,7.3,10.8,15.6,13.8c9.4,3,11.4,0,6.2-8.9
		c-5.2-7.9,4.2-3,18.7,9.9c61.4,52.2,16.6-43.4-52-115.3c-42.6-43.4-44.7-54.2-3.1-16.8c34.3,30.6,40.6,27.6,15.6-8.9
		c-25-35.5-36.4-83.8-27-107.4c7.3-17.7,9.4-15.8,8.3,13.8c-1,39.4,20.8,97.6,36.4,97.6c6.2,0,7.3-6.9,4.2-15.8
		c-3.1-7.9-2.1-11.8,4.2-8.9c6.2,3.9,10.4-12.8,10.4-41.4c0-25.6,4.2-53.2,9.4-61.1c5.2-7.9,8.3,17.7,8.3,66
		c-1,43.4-5.2,76.9-9.4,74.9c-14.6-8.9-8.3,12.8,7.3,25.6c26,20.7,49.9-49.3,43.7-128.1c-5.2-58.2-4.2-61.1,7.3-31.5
		c6.2,17.7,15.6,29.6,19.8,25.6c14.6-13.8,7.3-61.1-14.6-88.7l-21.8-28.6l26,26.6c17.7,18.7,28.1,22.7,32.2,14.8
		c7.3-13.8-1,73.9-9.4,111.4c-5.2,20.7-4.2,20.7,9.4-4.9c14.6-29.6,14.6-29.6,16.6-4.9c0,13.8,7.3,38.4,15.6,54.2
		c13.5,28.6,13.5,28.6,13.5-29.6c0-32.5,5.2-70,11.4-83.8c9.4-19.7,10.4-11.8,5.2,40.4c-4.2,47.3-2.1,73.9,10.4,102.5
		c9.4,20.7,19.8,34.5,23.9,30.6c13.5-12.8,10.4-51.3-8.3-85.7c-20.8-40.4-12.5-94.6,18.7-118.3c16.6-12.8,16.6-11.8,0,10.8
		c-19.8,26.6-22.9,84.8-7.3,108.4c6.2,9.9,10.4,10.8,10.4,3c0-6.9,4.2-12.8,8.3-12.8c5.2,0,7.3,13.8,4.2,29.6
		c-2.1,17.7,0,29.6,7.3,29.6c17.7,0,43.7-56.2,37.4-80.8c-4.2-13.8,1-30.6,10.4-42.4c14.6-16.8,16.6-16.8,11.4-2
		c-3.1,8.9-1,16.8,4.2,16.8c5.2,0,2.1,15.8-6.2,36.5c-10.4,21.7-13.5,48.3-10.4,67c5.2,23.7,2.1,33.5-9.4,38.4c-8.3,3-15.6,1-15.6-3
		c0-4.9,5.2-10.8,12.5-12.8c6.2-2,8.3-9.9,4.2-16.8c-12.5-19.7-39.5,7.9-36.4,37.5c2.1,13.8-2.1,34.5-8.3,46.3
		c-8.3,12.8-8.3,24.6-2.1,34.5c8.3,11.8,12.5,10.8,25-4.9c8.3-10.8,15.6-25.6,15.6-33.5c0-6.9,5.2-9.9,10.4-6.9
		c6.2,3,10.4-2,10.4-11.8c0-14.8,2.1-14.8,10.4-3c6.2,8.9,5.2,19.7-3.1,29.6c-9.4,11.8-9.4,12.8,3.1,3
		c15.6-13.8,16.6-18.7,30.2-106.4c5.2-34.5,9.4-47.3,10.4-29.6c1,24.6,3.1,26.6,12.5,12.8c5.2-9.9,15.6-17.7,21.8-17.7
		c7.3,0,7.3,3.9,1,11.8c-5.2,6.9-10.4,25.6-11.4,40.4c-2.1,31.5-36.4,108.4-45.8,100.5c-2.1-3-13.5,4.9-25,16.8
		c-18.7,21.7-18.7,21.7,0,7.9c10.4-7.9,27-14.8,36.4-14.8c8.3,0,20.8-12.8,27-29.6c12.5-36.5,25-45.3,51-38.4
		c11.4,3.9,16.6,2,12.5-3.9c-3.1-4.9,1-14.8,9.4-21.7c18.7-14.8,18.7-9.9,5.2,23.7c-6.2,17.7-14.6,23.7-27,18.7
		c-9.4-3-20.8,0-26,7.9c-13.5,19.7-11.4,30.6,4.2,23.7c6.2-3.9,3.1,1-8.3,9.9c-11.4,8.9-20.8,20.7-20.8,27.6
		c-1,6.9-7.3,22.7-14.6,36.5c-7.3,13.8,9.4,0,37.4-29.6c87.4-94.6,158.1-157.7,176.8-157.7c13.5,0,8.3,6.9-14.6,20.7
		c-18.7,11.8-34.3,28.6-34.3,38.4c0,10.8-5.2,21.7-12.5,25.6c-8.3,4.9-9.4,2-4.2-10.8c6.2-17.7,6.2-17.7-16.6,1
		c-48.9,39.4-60.3,64.1-19.8,44.4c11.4-5.9,22.9-6.9,26-2s-7.3,10.8-23.9,13.8c-17.7,3.9-58.2,31.5-98.8,70
		c-37.4,34.5-75.9,62.1-85.3,61.1c-9.4,0-19.8,4.9-22.9,12.8c-3.1,8.9,0,10.8,9.4,5.9c7.3-4.9,25-9.9,38.5-10.8
		c28.1-3,106.1-50.3,106.1-65c0-16.8,92.6-70,123.8-71c26-1,29.1,1,19.8,16.8c-7.3,13.8-16.6,16.8-41.6,11.8
		c-28.1-5.9-37.4-1-99.8,60.1c-63.4,61.1-66.6,66-38.5,59.1c17.7-3.9,42.6-18.7,55.1-33.5c22.9-24.6,23.9-24.6,12.5-3l-12.5,23.7
		l31.2-21.7c17.7-11.8,40.6-31.5,51-43.4c10.4-12.8,38.5-30.6,63.4-39.4c52-19.7,54.1-19.7,54.1-6.9c0,5.9-9.4,9.9-21.8,9.9
		c-30.2,0-60.3,16.8-108.2,61.1c-37.4,33.5-39.5,37.5-17.7,37.5c14.6,0,22.9-5.9,22.9-16.8c0-8.9,3.1-12.8,6.2-9.9
		c4.2,3.9,20.8-3,37.4-13.8c15.6-10.8,35.4-17.7,42.6-15.8c9.4,3.9,8.3,5.9-1,5.9c-18.7,1-78,41.4-70.7,47.3
		c3.1,3-7.3,14.8-22.9,27.6l-28.1,22.7l45.8,7.9c34.3,6.9,10.4,9.9-108.2,11.8c-84.2,1-162.2,6.9-172.6,12.8
		c-83.2,42.4-95.7,311.5-17.7,380.4c13.5,10.8,49.9,28.6,82.2,37.5c59.3,17.7,59.3,17.7,93.6-5.9c19.8-12.8,45.8-21.7,63.4-20.7
		c23.9,2,28.1-1,26-19.7c-1-16.8,4.2-23.7,22.9-25.6c35.4-4.9,53,14.8,21.8,25.6c-20.8,6.9-15.6,9.9,30.2,14.8
		c80.1,8.9,146.6,56.2,80.1,56.2c-26,0-58.2-22.7-58.2-41.4c0-6.9-20.8-7.9-59.3-3c-60.3,6.9-135.2,30.6-125.8,39.4
		c7.3,6.9,214.2,28.6,263.1,27.6c29.1,0,35.4,2,20.8,6.9c-18.7,5.9-17.7,8.9,14.6,23.7c19.8,9.9,37.4,13.8,41.6,8.9
		c11.4-17.7,42.6-21.7,68.6-10.8c32.2,13.8,26,23.7-20.8,31.5c-32.2,5.9-35.4,8.9-30.2,34.5c4.2,17.7,1,31.5-7.3,35.5
		c-18.7,11.8-42.6-24.6-36.4-56.2c5.2-22.7,0-27.6-38.5-42.4c-23.9-9.9-75.9-19.7-116.5-21.7c-66.6-4.9-70.7-3.9-52,9.9
		c14.6,10.8,25,11.8,34.3,4.9c9.4-7.9,20.8-7.9,38.5,0c35.4,14.8,33.3,31.5-4.2,31.5c-26,0-29.1,3-23.9,24.6
		c3.1,17.7,0,24.6-12.5,24.6c-17.7,0-33.3-41.4-22.9-58.2c10.4-14.8-43.7-37.5-108.2-45.3c-31.2-3-72.8-9.9-90.5-14.8
		c-18.7-4.9-34.3-4.9-34.3-2c0,15.8,63.4,107.4,90.5,132.1c22.9,20.7,45.8,29.6,94.6,35.5c57.2,7.9,64.5,6.9,64.5-7.9
		c0-20.7,16.6-34.5,49.9-42.4c29.1-6.9,31.2,17.7,2.1,34.5c-26,15.8-26,24.6-1,32.5c11.4,3,22.9,11.8,26,19.7
		c9.4,23.7-53,18.7-73.8-4.9c-12.5-13.8-31.2-19.7-60.3-19.7c-39.5,1-40.6,1-20.8,15.8c11.4,8.9,48.9,28.6,83.2,44.4
		c52,23.7,63.4,25.6,70.7,13.8c5.2-9.9,23.9-14.8,52-14.8l43.7,1l-30.2,22.7L2105,2286l45.8,9.9c28.1,5.9,36.4,9.9,20.8,10.8
		c-23.9,1-25,2-6.2,20.7c10.4,10.8,13.5,19.7,7.3,19.7s-14.6-4.9-17.7-9.9c-6.2-9.9-101.9-59.1-114.4-59.1c-4.2,0-3.1,4.9,1,10.8
		c3.1,5.9-12.5-1-36.4-14.8l-42.6-25.6v41.4c0,31.5,7.3,48.3,29.1,71c15.6,16.8,19.8,23.7,10.4,16.8c-29.1-20.7-22.9,3.9,12.5,57.2
		l32.2,45.3l-37.4-39.4l-36.4-39.4v29.6c0,18.7,7.3,34.5,20.8,42.4c20.8,11.8,30.2,61.1,11.4,61.1c-20.8,0-35.4-33.5-43.7-104.5
		c-13.5-116.3-13.5-117.3-59.3-87.7c-39.5,25.6-64.5,31.5-64.5,14.8c0-18.7,41.6-49.3,67.6-49.3c22.9,0,26-3.9,26-32.5
		c0-19.7-8.3-40.4-18.7-49.3c-26-22.7-36.4-20.7-22.9,3.9c7.3,10.8,9.4,27.6,6.2,35.5c-6.2,13.8-9.4,13.8-27-2
		c-21.8-18.7-29.1-64.1-10.4-64.1c6.2,0-4.2-12.8-22.9-28.6l-34.3-29.6l-5.2,66c-4.2,40.4-1,82.8,7.3,109.4
		c17.7,56.2,15.6,75.9-2.1,30.6c-14.6-37.5-16.6-34.5-35.4,34.5c-8.3,32.5-8.3,36.5,2.1,22.7c7.3-8.9,30.2-18.7,51-22.7
		c30.2-5.9,39.5-3,53,14.8l14.6,20.7l6.2-21.7c9.4-32.5,33.3-16.8,36.4,24.6c2.1,20.7,0,35.5-5.2,33.5c-4.2-2-28.1-11.8-52-21.7
		c-25-9.9-44.7-22.7-44.7-28.6s-13.5,3.9-31.2,22.7c-19.8,22.7-31.2,29.6-32.2,19.7c-1-7.9-4.2-1-8.3,14.8
		c-9.4,37.5-3.1,64.1,14.6,58.2c13.5-4.9,46.8,20.7,46.8,36.5c0,12.8-35.4,10.8-48.9-2c-9.4-8.9-10.4-6.9-6.2,9.9
		c3.1,10.8,3.1,20.7,0,20.7C1757.7,2583.6,1752.5,2566.9,1748.3,2547.1z M1367.7,1522.1c-10.4-2-27-2-36.4,0
		c-10.4,3-2.1,4.9,17.7,4.9S1377,1525.1,1367.7,1522.1z M1470.6,1523.1c-3.1-3-12.5-3.9-19.8-1c-8.3,3-5.2,5.9,6.2,5.9
		C1468.5,1529,1474.8,1526.1,1470.6,1523.1z M1538.2,1507.3c-7.3-6.9-12.5-7.9-12.5-2s3.1,13.8,7.3,16.8c3.1,3.9,9.4,4.9,12.5,2
		C1547.6,1521.1,1544.5,1513.2,1538.2,1507.3z M1749.3,1519.2c18.7-7.9,17.7-8.9-7.3-8.9c-15.6-1-31.2,3.9-34.3,8.9
		C1700.5,1531,1720.2,1531,1749.3,1519.2z M1930.3,1501.4c27-16.8,27-16.8,4.2-19.7c-12.5-2-33.3,3-46.8,9.9
		c-13.5,6.9-31.2,12.8-39.5,13.8s-27,2-41.6,3.9c-25,2-25,3,5.2,9.9C1852.3,1530,1898.1,1523.1,1930.3,1501.4z M1358.3,1503.4
		c6.2-4.9-51-25.6-95.7-33.5c-43.7-7.9-48.9,6.9-9.4,25.6c12.5,5.9,19.8,12.8,16.6,16.8C1263.7,1517.2,1351,1509.3,1358.3,1503.4z
		 M1566.3,1436.4c-9.4-7.9-10.4-6.9-5.2,6.9c3.1,9.9,7.3,27.6,7.3,39.4c2.1,15.8,3.1,13.8,6.2-6.9
		C1577.7,1460,1573.6,1442.3,1566.3,1436.4z M1338.5,1475.8c0-9.9-33.3-35.5-44.7-35.5c-7.3,1-1,9.9,12.5,19.7
		C1330.2,1479.7,1338.5,1483.7,1338.5,1475.8z M1536.1,1449.2c0-16.8-4.2-27.6-10.4-23.7c-5.2,3-10.4,16.8-10.4,30.6
		c0,12.8,5.2,23.7,10.4,23.7C1532,1479.7,1536.1,1465.9,1536.1,1449.2z M1491.4,1440.3c-3.1-10.8-1-19.7,4.2-19.7
		c15.6,0,10.4-29.6-6.2-35.5c-8.3-3.9-13.5-9.9-10.4-13.8c3.1-4.9,1-10.8-4.2-13.8c-18.7-11.8-23.9,14.8-6.2,33.5
		c9.4,9.9,12.5,18.7,6.2,20.7c-13.5,4.9-2.1,48.3,11.4,48.3C1492.5,1460,1494.5,1451.1,1491.4,1440.3z M1598.5,1447.2
		c0-6.9-7.3-21.7-15.6-32.5c-13.5-16.8-14.6-15.8-4.2,13.8C1590.2,1461,1598.5,1468.9,1598.5,1447.2z M1651.6,1408.8
		c-9.4-19.7-10.4-17.7-10.4,16.8c0,30.6,2.1,35.5,9.4,22.7C1656.8,1438.3,1657.8,1423.6,1651.6,1408.8z M1704.6,1435.4
		c4.2-19.7,3.1-22.7-8.3-13.8c-16.6,12.8-19.8,38.4-5.2,38.4C1696.3,1460,1702.5,1449.2,1704.6,1435.4z M1800.3,1392
		c10.4-17.7,16.6-33.5,13.5-36.5c-11.4-10.8-70.7,27.6-81.1,51.3C1709.8,1464.9,1762.9,1452.1,1800.3,1392z M1452.9,1425.5
		c0-7.9-4.2-14.8-10.4-14.8c-5.2,0-7.3,6.9-4.2,14.8c4.2,7.9,8.3,14.8,10.4,14.8S1452.9,1433.4,1452.9,1425.5z M1549.7,1391
		c3.1-10.8,0-22.7-5.2-26.6c-6.2-3-8.3-1-4.2,4.9c3.1,4.9,1,11.8-6.2,13.8c-6.2,2-8.3,9.9-4.2,15.8
		C1540.3,1414.7,1543.4,1413.7,1549.7,1391z M1603.7,1363.4c-6.2-22.7-8.3-23.7-16.6-8.9c-7.3,10.8-6.2,23.7,2.1,38.4
		C1604.8,1420.6,1614.1,1401.9,1603.7,1363.4z M1712.9,1385.1c0-3-5.2-13.8-11.4-24.6c-14.6-25.6-30.2-14.8-30.2,21.7
		c0,26.6,2.1,28.6,20.8,18.7C1703.6,1395,1712.9,1388.1,1712.9,1385.1z M1560.1,1302.3c-2.1-50.3-23.9-78.8-25-33.5
		c0,15.8-2.1,37.5-4.2,47.3c-5.2,24.6,3.1,37.5,18.7,32.5C1556.9,1346.7,1561.1,1327,1560.1,1302.3z M1654.7,1309.2
		c4.2-15.8,3.1-25.6-2.1-22.7c-5.2,3-7.3-8.9-5.2-26.6l3.1-31.5l-14.6,34.5c-17.7,41.4-19.8,52.2-7.3,45.3c4.2-3,6.2,6.9,3.1,21.7
		C1625.6,1365.4,1645.3,1346.7,1654.7,1309.2z M1684.9,1302.3c3.1-10.8,1-17.7-4.2-13.8c-5.2,3-9.4,11.8-9.4,19.7
		C1671.3,1327.9,1678.6,1325,1684.9,1302.3z M1494.5,1276.7c-18.7-20.7-25-9.9-9.4,17.7c8.3,13.8,14.6,17.7,17.7,9.9
		C1504.9,1297.4,1500.8,1285.6,1494.5,1276.7z M1613.1,1286.6c8.3-20.7-3.1-80.8-16.6-88.7c-18.7-11.8-26,16.8-15.6,61.1
		C1592.3,1304.3,1602.7,1313.2,1613.1,1286.6z M1824.2,1221.5c-3.1-7.9-6.2-4.9-6.2,5.9c-1,10.8,2.1,16.8,5.2,12.8
		C1826.3,1237.3,1827.3,1228.4,1824.2,1221.5z M1553.8,1182.1c-2.1-12.8-4.2-4.9-4.2,16.8c-1,21.7,1,31.5,4.2,22.7
		C1555.9,1211.6,1555.9,1193.9,1553.8,1182.1z"/>
	<path class="st0" d="M1541.3,1331.9c3.1-4.9,8.3-9.9,11.4-9.9c2.1,0,4.2,4.9,4.2,9.9c0,5.9-5.2,9.9-11.4,9.9
		C1540.3,1341.7,1538.2,1337.8,1541.3,1331.9z"/>
	<path class="st0" d="M2036.4,2555c-15.6-26.6-14.6-33.5,9.4-58.2c23.9-23.7,71.8-28.6,91.5-9.9c22.9,21.7,13.5,29.6-29.1,25.6
		c-39.5-3-41.6-2-41.6,23.7C2066.5,2569.8,2049.9,2579.7,2036.4,2555z"/>
	<path class="st0" d="M1113.9,2551.1c-7.3-19.7-2.1-46.3,11.4-49.3c14.6-3,19.8,42.4,6.2,55.2
		C1124.3,2563.9,1119.1,2562.9,1113.9,2551.1z"/>
	<path class="st0" d="M1151.3,2522.5c0-6.9,7.3-22.7,15.6-34.5c27-37.5,119.6-10.8,119.6,33.5c0,18.7-16.6,15.8-48.9-10.8
		l-28.1-23.7l-11.4,21.7C1185.7,2532.4,1151.3,2542.2,1151.3,2522.5z"/>
	<path class="st0" d="M1889.7,2516.6c0-9.9,5.2-22.7,12.5-29.6c17.7-16.8,49.9-14.8,49.9,2c0,13.8-37.4,45.3-54.1,45.3
		C1892.9,2534.3,1889.7,2526.4,1889.7,2516.6z"/>
	<path class="st0" d="M1595.4,2507.7c3.1-9.9,10.4-22.7,15.6-28.6c5.2-7.9,2.1-13.8-9.4-18.7c-16.6-5.9-16.6-7.9,6.2-25.6
		c13.5-9.9,30.2-18.7,38.5-18.7c21.8,0,29.1,21.7,10.4,34.5c-9.4,6.9-14.6,18.7-11.4,26.6c7.3,16.8-19.8,47.3-41.6,47.3
		C1594.4,2524.5,1591.3,2518.6,1595.4,2507.7z"/>
	<path class="st0" d="M1046.3,2503.8c-12.5-7.9-11.4-11.8,5.2-23.7c22.9-16.8,54.1-19.7,62.4-5.9
		C1126.4,2492.9,1069.2,2517.6,1046.3,2503.8z"/>
	<path class="st0" d="M1332.3,2479.1c-4.2-16.8-1-30.6,9.4-40.4c13.5-13.8,16.6-12.8,26,3c11.4,20.7-1,63.1-17.7,63.1
		C1343.7,2504.8,1335.4,2492.9,1332.3,2479.1z"/>
	<path class="st0" d="M1802.4,2478.1c-5.2-16.8-2.1-30.6,7.3-40.4c13.5-12.8,16.6-11.8,28.1,6.9c13.5,24.6,5.2,60.1-15.6,60.1
		C1814.9,2504.8,1805.5,2492.9,1802.4,2478.1z"/>
	<path class="st0" d="M2187.2,2461.4c-8.3-33.5,1-68,17.7-62.1c18.7,4.9,20.8,48.3,4.2,70C2195.5,2487,2194.5,2487,2187.2,2461.4z"
		/>
	<path class="st0" d="M964.1,2445.6c-13.5-24.6-4.2-59.1,15.6-59.1c17.7,0,29.1,33.5,20.8,59.1
		C992.2,2471.2,978.7,2470.3,964.1,2445.6z"/>
	<path class="st0" d="M1251.2,2439.7c-16.6-42.4,6.2-80.8,30.2-49.3c11.4,13.8,14.6,14.8,26,1c16.6-18.7,41.6-18.7,41.6,0
		c0,7.9-18.7,25.6-41.6,39.4C1258.5,2460.4,1259.5,2459.4,1251.2,2439.7z"/>
	<path class="st0" d="M2076.9,2434.8c-7.3-10.8-9.4-22.7-6.2-25.6c10.4-10.8,58.2,7.9,68.6,26.6c10.4,17.7,8.3,19.7-19.8,19.7
		C2098.8,2455.5,2084.2,2448.6,2076.9,2434.8z"/>
	<path class="st0" d="M1036.9,2387.5c0-31.5,34.3-60.1,46.8-40.4c10.4,15.8-4.2,48.3-27,59.1
		C1039,2416.1,1036.9,2413.1,1036.9,2387.5z"/>
	<path class="st0" d="M2111.3,2401.3c-26-17.7-32.2-54.2-9.4-54.2c20.8,0,39.5,25.6,35.4,49.3
		C2134.1,2415.1,2133.1,2416.1,2111.3,2401.3z"/>
	<path class="st0" d="M2223.6,2393.4c-14.6-5.9-27-18.7-29.1-26.6c-4.2-11.8-3.1-12.8,5.2-1c5.2,6.9,15.6,9.9,21.8,5.9
		c18.7-10.8,63.4,3,63.4,19.7C2284.9,2409.2,2257.9,2410.1,2223.6,2393.4z"/>
	<path class="st0" d="M2039.5,2351c-9.4-34.5,10.4-52.2,27-23.7c12.5,22.7,7.3,49.3-9.4,49.3
		C2050.9,2376.6,2042.6,2364.8,2039.5,2351z"/>
	<path class="st0" d="M1274.1,2341.1c-33.3-16.8-37.4-29.6-10.4-31.5c35.4-2,64.5,8.9,74.9,27.6c9.4,16.8,8.3,19.7-12.5,19.7
		C1312.5,2355.9,1289.7,2349,1274.1,2341.1z"/>
	<path class="st0" d="M1502.9,2327.3c-34.3-24.6-37.4-49.3-8.3-49.3c21.8,0,44.7,31.5,39.5,55.2
		C1532,2346.1,1525.7,2345.1,1502.9,2327.3z"/>
	<path class="st0" d="M1640.1,2325.4c0-28.6,17.7-47.3,43.7-47.3c23.9,0,23.9,21.7,1,41.4C1649.5,2348,1640.1,2349,1640.1,2325.4z"
		/>
	<path class="st0" d="M2234,2338.2c-13.5-8.9-7.3-30.6,8.3-30.6c5.2,0,19.8,8.9,33.3,19.7l25,18.7l-26,1
		C2260,2347.1,2242.3,2343.1,2234,2338.2z"/>
	<path class="st0" d="M852.9,2307.6c-33.3-12.8-30.2-29.6,6.2-29.6c36.4,0,62.4,23.7,36.4,33.5c-8.3,3-16.6,5.9-17.7,4.9
		C876.8,2316.5,865.3,2312.6,852.9,2307.6z"/>
	<path class="st0" d="M1432.1,2295.8c-13.5-27.6-8.3-57.2,9.4-57.2c16.6,0,25,45.3,13.5,66
		C1445.7,2320.5,1443.6,2319.5,1432.1,2295.8z"/>
	<path class="st0" d="M1720.2,2311.6c-4.2-3.9-7.3-20.7-7.3-37.5c0-22.7-3.1-26.6-12.5-17.7c-16.6,15.8-63.4,15.8-58.2,0
		c3.1-6.9,15.6-17.7,28.1-23.7c29.1-13.8,84.2,7.9,84.2,34.5C1754.5,2288.9,1730.6,2320.5,1720.2,2311.6z"/>
	<path class="st0" d="M2274.5,2307.6c-13.5-8.9-13.5-10.8,0-19.7c18.7-11.8,62.4-12.8,62.4-2c0,11.8-22.9,31.5-35.4,31.5
		C2295.3,2317.5,2282.9,2312.6,2274.5,2307.6z"/>
	<path class="st0" d="M2201.7,2289.9c0-15.8,37.4-41.4,60.3-41.4c29.1,0,29.1,14.8,0,33.5
		C2237.1,2298.8,2201.7,2302.7,2201.7,2289.9z"/>
	<path class="st0" d="M1293.8,2256.4c-7.3-25.6,8.3-57.2,29.1-57.2c18.7,0,19.8,19.7,3.1,54.2
		C1311.5,2284,1301.1,2285,1293.8,2256.4z"/>
	<path class="st0" d="M1473.7,2253.4c-19.8-22.7,0-36.5,30.2-21.7c14.6,6.9,27,17.7,30.2,24.6
		C1540.3,2274.1,1489.3,2271.2,1473.7,2253.4z"/>
	<path class="st0" d="M1101.4,2207.1c3.1-8.9,22.9-22.7,47.8-33.5c2.1-1-9.4-13.8-23.9-28.6c-33.3-30.6-30.2-36.5,10.4-26.6
		c39.5,10.8,59.3,68,30.2,87.7C1143,2221.9,1096.2,2222.9,1101.4,2207.1z"/>
	<path class="st0" d="M1733.7,2204.1c0-4.9,5.2-16.8,10.4-24.6s10.4-9.9,10.4-4.9c0,5.9-5.2,16.8-10.4,24.6
		C1738.9,2207.1,1733.7,2210.1,1733.7,2204.1z"/>
	<path class="st0" d="M1042.1,2165.7c-18.7-12.8-18.7-14.8-3.1-20.7c27-9.9,65.5-2,65.5,14.8
		C1104.5,2179.5,1067.1,2183.5,1042.1,2165.7z"/>
	<path class="st0" d="M2063.4,2172.6c-4.2-3-2.1-11.8,4.2-19.7c13.5-14.8,67.6-17.7,77-3.9C2156,2168.7,2081.1,2190.4,2063.4,2172.6
		z"/>
	<path class="st0" d="M846.6,2152.9c11.4-30.6,26-42.4,51-42.4c32.2,0,31.2,13.8-2.1,38.4C861.2,2174.6,837.3,2176.6,846.6,2152.9z"
		/>
	<path class="st0" d="M2276.6,2148c-14.6-13.8-16.6-47.3-4.2-47.3c10.4,0,35.4,19.7,53,42.4c12.5,14.8,11.4,16.8-11.4,16.8
		C2300.5,2159.8,2283.9,2154.9,2276.6,2148z"/>
	<path class="st0" d="M958.9,2140.1c-3.1-8.9-4.2-26.6-3.1-39.4c3.1-20.7-2.1-25.6-28.1-27.6c-44.7-4.9-55.1-18.7-21.8-31.5
		c39.5-13.8,43.7-12.8,73.8,16.8c31.2,32.5,32.2,43.4,6.2,72.9C969.3,2150.9,964.1,2151.9,958.9,2140.1z"/>
	<path class="st0" d="M1570.5,2088.8c-26-11.8-39.5-36.5-26-49.3c11.4-10.8,64.5,27.6,64.5,47.3
		C1608.9,2102.6,1601.7,2103.6,1570.5,2088.8z"/>
	<path class="st0" d="M891.3,1987.3c-7.3-8.9-10.4-17.7-7.3-20.7c9.4-8.9,62.4,9.9,67.6,23.7C957.9,2008,906.9,2005.1,891.3,1987.3z
		"/>
	<path class="st0" d="M2222.5,1992.2c0-11.8,34.3-29.6,57.2-29.6c13.5,0,14.6,3.9,5.2,19.7C2273.5,2002.1,2222.5,2011,2222.5,1992.2
		z"/>
	<path class="st0" d="M1047.3,1984.4c0-13.8,36.4-41.4,54.1-41.4c25,0,30.2,11.8,11.4,31.5
		C1096.2,1992.2,1047.3,1999.1,1047.3,1984.4z"/>
	<path class="st0" d="M979.7,1953.8c-11.4-19.7,63.4-41.4,81.1-23.7c4.2,3,2.1,11.8-4.2,19.7
		C1043.2,1964.6,989.1,1967.6,979.7,1953.8z"/>
	<path class="st0" d="M2119.6,1948.9c-11.4-12.8-10.4-16.8,4.2-21.7c20.8-7.9,70.7,6.9,71.8,20.7
		C2196.5,1964.6,2133.1,1964.6,2119.6,1948.9z"/>
	<path class="st0" d="M1060.9,1908.5l-29.1-23.7l32.2-1c33.3,0,56.2,14.8,56.2,36.5C1120.1,1941,1093.1,1935.1,1060.9,1908.5z"/>
	<path class="st0" d="M2053,1926.2c-14.6-12.8,27-42.4,59.3-42.4l32.2,1l-29.1,23.7C2086.3,1933.1,2065.5,1939,2053,1926.2z"/>
	<path class="st0" d="M1236.6,1873c2.1-17.7,9.4-33.5,16.6-36.5c10.4-3,13.5,4.9,10.4,28.6c-2.1,17.7-9.4,33.5-16.6,36.5
		C1236.6,1904.5,1233.5,1896.6,1236.6,1873z"/>
	<path class="st0" d="M1910.5,1869c0-35.5,13.5-46.3,25-18.7c11.4,27.6,6.2,53.2-9.4,53.2C1915.7,1903.5,1910.5,1892.7,1910.5,1869z
		"/>
	<path class="st0" d="M2066.5,1516.2c14.6-7.9,28.1-11.8,31.2-9.9c7.3,5.9-23.9,22.7-41.6,22.7
		C2047.8,1529,2052,1523.1,2066.5,1516.2z"/>
	<path class="st0" d="M1102.5,1505.4c0-11.8,5.2-12.8,21.8-3.9c32.2,15.8,33.3,17.7,4.2,17.7
		C1112.9,1519.2,1102.5,1513.2,1102.5,1505.4z"/>
	<path class="st0" d="M2115.4,1498.5c8.3-7.9,16.6-7.9,31.2,0c16.6,8.9,14.6,9.9-11.4,10.8
		C2112.3,1509.3,2107.1,1506.3,2115.4,1498.5z"/>
	<path class="st0" d="M2004.1,1479.7c0-11.8,17.7-11.8,46.8,0c17.7,6.9,15.6,8.9-12.5,8.9
		C2019.7,1489.6,2004.1,1485.6,2004.1,1479.7z"/>
	<path class="st0" d="M2092.5,1479.7c-4.2-5.9,3.1-9.9,14.6-9.9c26,0,28.1,5.9,6.2,12.8C2105,1486.6,2095.7,1484.7,2092.5,1479.7z"
		/>
	<path class="st0" d="M2142.5,1473.8c0-6.9,11.4-14.8,25-18.7c13.5-3,22.9-8.9,19.8-12.8c-2.1-3.9,4.2-7.9,15.6-7.9
		c10.4,0,19.8,3.9,19.8,7.9c0,3.9-7.3,7.9-15.6,7.9c-8.3,0-15.6,3-15.6,7.9c0,3.9-11.4,11.8-23.9,17.7
		C2148.7,1483.7,2142.5,1483.7,2142.5,1473.8z"/>
	<path class="st0" d="M964.1,1440.3c8.3-4.9,20.8-9.9,26-9.9c6.2,0,3.1,4.9-5.2,9.9c-8.3,4.9-19.8,9.9-26,9.9
		C953.7,1450.2,955.8,1445.2,964.1,1440.3z"/>
	<path class="st0" d="M1027.6,1413.7c8.3-8.9,9.4-13.8,3.1-9.9c-7.3,3.9-17.7,0-23.9-6.9c-14.6-16.8-3.1-15.8,43.7,2
		c34.3,13.8,28.1,31.5-10.4,31.5C1016.1,1430.5,1015.1,1428.5,1027.6,1413.7z"/>
	<path class="st0" d="M1203.3,1419.6c0-4.9,5.2-6.9,10.4-3.9c6.2,3,10.4,7.9,10.4,10.8c0,2-4.2,3.9-10.4,3.9
		C1208.5,1430.5,1203.3,1425.5,1203.3,1419.6z"/>
	<path class="st0" d="M2172.6,1385.1c9.4-8.9,21.8-14.8,28.1-12.8s-2.1,9.9-17.7,16.8C2157,1399.9,2157,1399.9,2172.6,1385.1z"/>
	<path class="st0" d="M2126.9,1364.4c6.2-2,18.7-2,26,0c6.2,3,1,4.9-13.5,4.9S2119.6,1367.4,2126.9,1364.4z"/>
	<path class="st0" d="M2149.7,1343.7c0-3.9,9.4-12.8,20.8-18.7c16.6-10.8,18.7-9.9,14.6,1
		C2178.9,1340.8,2149.7,1355.5,2149.7,1343.7z"/>
	<path class="st0" d="M932.9,1324c0-7.9,104-4.9,113.4,3c2.1,3-21.8,4.9-54.1,4.9C960,1331.9,932.9,1327.9,932.9,1324z"/>
	<path class="st0" d="M1979.2,1324c-3.1-5.9,1-12.8,10.4-15.8c23.9-8.9,29.1-2,10.4,12.8C1991.7,1327.9,1982.3,1328.9,1979.2,1324z"
		/>
	<path class="st0" d="M1362.5,1299.4c-22.9-47.3-30.2-82.8-22.9-100.5c7.3-18.7,8.3-18.7,8.3,2c1,11.8,5.2,23.7,11.4,27.6
		c5.2,3,7.3,11.8,3.1,19.7c-3.1,8.9,2.1,25.6,11.4,39.4c9.4,12.8,12.5,25.6,7.3,28.6C1377,1319.1,1368.7,1311.2,1362.5,1299.4z"/>
	<path class="st0" d="M1074.4,1296.4c-5.2-13.8-4.2-14.8,9.4-3.9c17.7,13.8,19.8,19.7,6.2,19.7
		C1084.8,1312.2,1077.5,1305.3,1074.4,1296.4z"/>
	<path class="st0" d="M2094.6,1291.5c7.3-6.9,15.6-9.9,18.7-6.9c3.1,3-2.1,8.9-12.5,11.8C2086.3,1302.3,2085.3,1301.3,2094.6,1291.5
		z"/>
	<path class="st0" d="M1178.4,1265.9c-6.2-13.8-5.2-14.8,5.2-5.9c7.3,6.9,10.4,14.8,7.3,17.7S1181.5,1275.7,1178.4,1265.9z"/>
	<path class="st0" d="M2067.6,1265.9c7.3-11.8,15.6-19.7,18.7-16.8c3.1,2-3.1,11.8-13.5,21.7
		C2055.1,1286.6,2054.1,1286.6,2067.6,1265.9z"/>
	<path class="st0" d="M1046.3,1256c-13.5-15.8-12.5-16.8,4.2-3.9c9.4,6.9,17.7,14.8,17.7,16.8
		C1068.1,1276.7,1059.8,1271.8,1046.3,1256z"/>
	<path class="st0" d="M1863.7,1238.3c11.4-8.9,30.2-20.7,41.6-25.6l20.8-9.9l-20.8,15.8c-11.4,8.9-30.2,20.7-41.6,25.6l-20.8,9.9
		L1863.7,1238.3z"/>
	<path class="st0" d="M1177.3,1213.6c-3.1-4.9-1-9.9,4.2-9.9c6.2,0,11.4,4.9,11.4,9.9c0,5.9-2.1,9.9-4.2,9.9
		C1185.7,1223.5,1180.5,1219.5,1177.3,1213.6z"/>
	<path class="st0" d="M1131.6,1157.4c-20.8-20.7-27-30.6-14.6-23.7c11.4,4.9,25,6.9,29.1,3c3.1-3.9,5.2-2,4.2,3
		c-2.1,5.9,2.1,19.7,9.4,32.5C1177.3,1200.8,1173.2,1198.8,1131.6,1157.4z"/>
	<path class="st0" d="M1868.9,1190c0-2,7.3-6.9,16.6-9.9c8.3-3,12.5-2,9.4,3.9C1888.7,1193.9,1868.9,1197.8,1868.9,1190z"/>
	<path class="st0" d="M1848.1,1143.6c0-7.9,17.7-30.6,38.5-49.3c34.3-28.6,35.4-29.6,12.5-3.9c-15.6,16.8-32.2,38.4-38.5,49.3
		C1851.3,1154.5,1849.2,1155.5,1848.1,1143.6z"/>
	<path class="st0" d="M1833.6,1110.1c4.2-7.9,11.4-14.8,16.6-14.8c6.2,0,5.2,5.9-2.1,14.8c-7.3,7.9-14.6,14.8-16.6,14.8
		C1829.4,1124.9,1830.5,1118,1833.6,1110.1z"/>
	<path class="st0" d="M2014.5,1121c0-2,8.3-9.9,18.7-16.8c15.6-12.8,16.6-11.8,3.1,3.9C2022.9,1123.9,2014.5,1128.9,2014.5,1121z"/>
	<path class="st0" d="M1281.3,1094.4c-4.2-5.9-5.2-11.8-2.1-14.8c2.1-3,7.3,2,10.4,10.8C1296.9,1107.2,1290.7,1110.1,1281.3,1094.4z
		"/>
	<path class="st0" d="M1439.4,1058.9c-10.4-8.9-9.4-32.5,1-32.5c4.2,0,8.3,8.9,9.4,19.7C1451.9,1066.8,1449.8,1069.7,1439.4,1058.9z
		"/>
	<path class="st0" d="M1656.8,1043.1c3.1-9.9,9.4-14.8,12.5-11.8c3.1,3,0,10.8-7.3,17.7C1651.6,1057.9,1650.5,1056.9,1656.8,1043.1z
		"/>
	<path class="st0" d="M1734.8,1040.2c0-10.8,3.1-13.8,6.2-5.9c3.1,6.9,2.1,15.8-1,18.7C1736.9,1056.9,1733.7,1051,1734.8,1040.2z"/>
	<path class="st0" d="M1710.9,1009.6c5.2-20.7,7.3-22.7,10.4-8.9c2.1,9.9,0,21.7-6.2,27.6
		C1708.8,1034.2,1707.7,1028.3,1710.9,1009.6z"/>
	<path class="st0" d="M1460.2,995.8c4.2-12.8,8.3-17.7,11.4-9.9c2.1,6.9-1,17.7-6.2,22.7C1457.1,1016.5,1456.1,1012.6,1460.2,995.8z
		"/>
	<path class="st0" d="M1621.4,679.4c-5.2-6.9-13.5-26.6-16.6-44.4c-9.4-37.5-20.8-47.3-80.1-67c-96.7-32.5-192.4-78.8-224.6-110.4
		c-39.5-36.5-41.6-47.3-14.6-62.1c26-12.8,43.7-12.8,19.8,1c-46.8,25.6,0,67,141.4,126.2c55.1,22.7,105,40.4,111.3,38.4
		c5.2-2-7.3-29.6-30.2-62.1c-37.4-55.2-58.2-78.8-139.4-158.7c-16.6-17.7-27-33.5-21.8-36.5c5.2-3,56.2,11.8,112.3,33.5
		c66.6,24.6,122.7,38.4,156,39.4c45.8,1,47.8,2,17.7,7.9c-35.4,5.9-35.4,5.9,36.4,34.5c38.5,15.8,136.2,58.2,216.3,95.6
		c158.1,71.9,231.9,122.2,220.5,149.8c-14.6,36.5-230.9,14.8-423.3-41.4c-36.4-10.8-68.6-18.7-69.7-16.8c-2.1,2,3.1,18.7,11.4,37.5
		C1663,686.3,1648.5,710,1621.4,679.4z M2108.1,662.7c0-29.6-260-162.6-520-265.1c-54.1-21.7-116.5-46.3-139.4-56.2l-40.6-15.8
		l56.2,60.1c31.2,33.5,80.1,92.6,108.2,131.1c52,69,54.1,71,130,92.6C1873.1,659.7,2108.1,690.3,2108.1,662.7z"/>
	<path class="st0" d="M1020.3,649.9c-28.1-16.8-113.4-59.1-189.3-93.6c-106.1-48.3-153.9-64.1-202.8-69c-35.4-3-71.8-9.9-80.1-14.8
		c-9.4-4.9,8.3-5.9,46.8-3l62.4,5.9l-37.4-19.7c-42.6-22.7-71.8-50.3-51-50.3c6.2,0,25,7.9,39.5,18.7
		c56.2,36.5,116.5,60.1,158.1,60.1c22.9,0,41.6-3,41.6-5.9c0-3-13.5-21.7-30.2-41.4c-41.6-50.3-94.6-137-87.4-143.9
		c13.5-12.8,23.9-4.9,38.5,27.6C779,435,894.5,557.2,1003.7,611.4c43.7,21.7,89.4,46.3,100.9,54.2c20.8,14.8,19.8,14.8-6.2,15.8
		C1083.7,681.4,1049.4,667.6,1020.3,649.9z M859.1,527.6c-30.2-28.6-43.7-34.5-72.8-31.5c-35.4,3-35.4,3,32.2,34.5
		c37.4,16.8,69.7,31.5,72.8,31.5C893.4,563.1,879.9,547.4,859.1,527.6z"/>
	<path class="st0" d="M2427.4,573c-14.6-10.8-39.5-19.7-56.2-19.7c-20.8,0-25-3-14.6-8.9c12.5-7.9,7.3-19.7-28.1-63.1
		c-41.6-50.3-53-75.9-35.4-75.9c4.2,0,20.8,19.7,36.4,44.4c45.8,67,83.2,93.6,140.4,94.6l48.9,2l-41.6,5.9
		c-30.2,3.9-36.4,7.9-22.9,12.8c17.7,7.9,25,27.6,8.3,27.6C2458.6,592.7,2442,583.8,2427.4,573z"/>
	<path class="st0" d="M1301.1,553.3c-21.8-16.8-51-46.3-65.5-65c-28.1-36.5-34.3-39.4-51-20.7c-9.4,9.9-3.1,15.8,25,25.6
		c20.8,6.9,35.4,14.8,32.2,16.8c-2.1,2-21.8-3-43.7-11.8c-21.8-7.9-47.8-12.8-59.3-10.8c-10.4,3-16.6,1-12.5-3.9
		c3.1-4.9,13.5-8.9,23.9-8.9c21.8,0,49.9-26.6,54.1-53.2c6.2-29.6,22.9-23.7,30.2,9.9c9.4,42.4,18.7,53.2,44.7,53.2
		c18.7,0,19.8,2,7.3,9.9c-12.5,8.9-8.3,15.8,26,44.4C1364.5,580.9,1355.2,593.7,1301.1,553.3z"/>
	<path class="st0" d="M2303.7,536.5c6.2-2,18.7-2,26,0c6.2,3,1,4.9-13.5,4.9C2301.6,541.4,2296.4,539.5,2303.7,536.5z"/>
	<path class="st0" d="M997.4,505c-11.4-6.9-11.4-8.9,2.1-13.8c9.4-3.9,13.5-12.8,10.4-21.7c-5.2-11.8,2.1-14.8,38.5-13.8
		c40.6,1,42.6,2,14.6,7.9c-29.1,5.9-30.2,6.9-10.4,18.7c17.7,9.9,18.7,12.8,5.2,21.7C1039,515.8,1015.1,516.8,997.4,505z"/>
	<path class="st0" d="M2480.5,503c-9.4-4.9-15.6-15.8-12.5-22.7c3.1-7.9-4.2-16.8-18.7-20.7c-22.9-7.9-22.9-7.9,5.2-11.8
		c34.3-4.9,68.6,14.8,47.8,27.6c-10.4,5.9-10.4,10.8,0,22.7C2517.9,515.8,2507.5,517.8,2480.5,503z"/>
	<path class="st0" d="M2084.2,497.1c-12.5-10.8-8.3-32.5,8.3-38.4c8.3-3,27,3,41.6,13.8c21.8,15.8,22.9,20.7,9.4,25.6
		C2121.7,506,2092.5,506,2084.2,497.1z M2123.7,475.4c-3.1-5.9-11.4-10.8-17.7-10.8s-6.2,5.9,2.1,14.8
		C2122.7,496.1,2135.2,492.2,2123.7,475.4z"/>
	<path class="st0" d="M2215.3,497.1c-7.3-2-13.5-10.8-13.5-18.7c0-21.7,56.2-13.8,60.3,8.9C2265.2,504,2244.4,508.9,2215.3,497.1z
		 M2253.7,490.2c0-3-4.2-7.9-10.4-10.8c-5.2-3-10.4-1-10.4,3.9c0,5.9,5.2,10.8,10.4,10.8C2249.6,494.1,2253.7,492.2,2253.7,490.2z"
		/>
	<path class="st0" d="M2553.3,477.4c7.3-3,16.6-2,19.8,1c4.2,3-2.1,5.9-13.5,4.9C2548.1,483.3,2544.9,480.3,2553.3,477.4z"/>
	<path class="st0" d="M1998.9,415.3l-52-6.9h46.8c26-1,58.2,3,72.8,6.9C2098.8,425.1,2074.9,425.1,1998.9,415.3z"/>
	<path class="st0" d="M1877.3,398.5c6.2-2,18.7-2,26,0c6.2,3,1,4.9-13.5,4.9C1875.2,403.5,1870,401.5,1877.3,398.5z"/>
	<path class="st0" d="M1752.5,388.7c12.5-2,31.2-2,41.6,0c9.4,3-1,4.9-23.9,3.9C1747.3,392.6,1738.9,390.6,1752.5,388.7z"/>
	<path class="st0" d="M1362.5,378.8c9.4-2,23.9-2,31.2,0c6.2,3-1,4.9-18.7,4.9C1358.3,383.7,1352.1,381.8,1362.5,378.8z"/>
</g>
</svg>
