<?xml version="1.0" encoding="utf-8"?>
<!-- Generator: Adobe Illustrator 27.0.0, SVG Export Plug-In . SVG Version: 6.00 Build 0)  -->
<svg version="1.1" id="Layer_1" xmlns="http://www.w3.org/2000/svg" xmlns:xlink="http://www.w3.org/1999/xlink" x="0px" y="0px"
	 viewBox="0 0 841.9 595.3" style="enable-background:new 0 0 841.9 595.3;" xml:space="preserve">
<style type="text/css">
	.st0{fill:#FFFFFF;}
</style>
<image style="overflow:visible;enable-background:new    ;" width="301" height="301" xlink:href="4B595452.jpg"  transform="matrix(0.9967 0 0 0.9967 270.945 147.64)">
</image>
<g transform="translate(0.000000,173.000000) scale(0.100000,-0.100000)">
	<path class="st0" d="M4151.1-474.8c-4-11-12-13-30-6c-26,10-32-1-10-19c18-15,66,2,66,24C4177.1-456.8,4158.1-455.8,4151.1-474.8z"
		/>
	<path class="st0" d="M4327.1-470.8c0-6,5-19,12-29c6-11,8-26,3-37c-8-20-8-42,1-83c4-21,3-23-10-12c-10,8-8,0,5-26
		c17-31,19-49,14-102c-3-35-13-78-23-95l-17-31l-3,28c-2,15,3,34,12,43c18,17,21,44,6,44c-5,0-13-7-18-16c-6-11-11-13-16-5
		c-10,16-26,14-26-4c0-9,7-18,16-22c21-8,11-80-15-106c-18-18-19-18-40,4c-11,12-21,34-22,48c0,23-1,24-8,6s-9-17-26,9
		c-10,15-19,42-20,59c-1,18-5,40-9,49c-9,20,1,41,16,32c6-4,15,0,20,7c7,10,7,7,3-8c-7-26,7-30,25-8c10,12,10,15-1,15
		c-10,0-10,3-1,12c7,7,12,19,12,27c0,11-4,11-19-3c-11-10-25-15-30-11c-6,3-11,1-11-6s-3-10-6-6c-3,3,1,20,9,37c9,16,11,28,6,25
		c-5-4-9,3-9,14c0,28-17,35-32,12c-12-19-12-19-39-1c-28,21-39,17-39-11c0-14,8-17,50-15c41,2,50,0,45-11c-3-8-5-20-5-26
		c0-9-2-9-8,0c-4,7-6-18-4-55c4-66,4-67-15-49c-13,11-19,26-16,41c3,13,0,27-6,30c-7,5-11-3-11-20c0-22-2-25-15-14c-8,7-15,19-15,28
		c0,25-23,92-31,92c-5,0-4-12,1-26c6-14,10-37,10-51c0-24-1-25-22-11c-13,9-23,26-23,39s-5,24-12,24s-18,6-24,13c-19,18-28,15-22-8
		c3-11,11-20,19-20c7,0,18-9,24-20c13-24,2-26-26-5c-27,21-40,18-20-4c13-15,14-20,4-24c-7-2-9-8-5-13c4-4,17-3,28,4
		c17,11,27,10,65-8c24-12,44-26,44-30c0-5,9-12,20-15c19-6,86-92,78-100c-8-9-48,8-48,20c0,16-25,37-33,29c-3-4-2-16,4-27
		c8-14,8-18-1-12c-6,4-27,7-46,7c-29,0-32,2-19,12c10,7,14,18,9,29c-8,21-24,22-24,2c0-8-7-15-15-15c-18,0-20-16-2-24c6-4-3-4-20-1
		c-18,2-33,1-33-4s37-12,82-16c75-7,80-8,57-21c-22-12-22-13-4-14c12,0,26,5,33,12c18,18,88-7,110-39c12-20,17-47,17-105
		c-1-67-4-81-23-100c-17-17-32-22-67-20c-56,2-80-8-130-54c-27-26-31-32-13-21c32,20,74,22,84,5c4-6,3-8-4-4c-6,3-19-4-29-17
		c-10-12-29-28-43-35c-24-12-25-12-1-6c16,4,21,3,17-5c-4-6-4-11,1-11c11,0,35,16,32,21c-1,2,0,14,3,27c4,15,11,20,22,16
		c9-3,16-1,16,5c0,12,59,45,67,37c3-3,1-12-6-19c-6-8-8-23-4-32c4-12,3-16-4-12c-6,4-14,0-17-9c-3-8-2-12,4-9c15,9,12-11-4-24
		c-15-13-29-64-15-55c5,3,9,14,9,24c0,25,17,35,22,13c3-10,12,8,23,42c23,72,24,73,35,55c8-12,10-10,11,10c1,18,3,20,6,7
		c3-10-3-27-13-38c-12-13-13-19-4-19s9-5-2-22c-20-30-40-90-28-83c5,3,14-9,19-27c10-30,10-29,5,15c-3,28-1,47,5,47
		c13,0,25-38,23-72c-3-34,5-36,18-5c8,17,8,14,4-15c-4-22-2-38,3-38c6,0,9,31,7,75c-2,49,1,75,8,75c6,0,8-12,6-28c-3-19,0-29,9-29
		c8,0,11,13,9,41c-2,23-1,29,1,13c3-16,9-25,15-21c7,5,9-4,6-24c-6-42,10-30,18,13c4,24,1,43-10,60c-19,29-21,48-3,42
		c6-2,11-9,10-15c-1-5,13-26,32-46s32-43,29-50s1-16,9-19c10-4,12,3,9,24c-3,23-1,28,11,23c8-3,18,0,23,7c4,8,3,10-4,5
		c-8-4-16,3-22,19c-14,37-13,40,8,23c9-8,26-18,37-21c20-6,20-6,1,6c-11,7-31,23-45,37s-37,33-51,42c-18,13-20,18-9,18
		c9,0,28-9,42-20c32-26,45-26,22,0c-31,34,8,25,52-12c36-31,37-31,13-4c-19,22-21,28-7,23c9-4,17-3,17,2s-23,11-51,15
		c-47,6-50,8-33,21s14,14-32,15c-70,0-87,21-92,109c-5,93,13,136,66,152c29,8,44,8,60,0c11-6,29-11,39-11c12,1,8,5-12,14
		c-29,13-29,13,40,21c93,10,87,9,110,24l20,13l-20-7c-11-4-57-11-102-15c-45-5-96-11-114-15l-31-7l18,32c23,38,70,80,90,80
		c9,0,13,4,9,10c-3,5,12,18,34,30c24,12,42,16,46,10c3-6,18-10,32-10c21,0,24,2,13,15c-10,12-10,18,1,32c13,15,12,15-7,5
		c-11-6-40-17-62-25c-41-14-42-14-42,7c0,12,5,27,12,34c16,16,18,51,2,45c-11-4-29-58-25-77c3-16-10-46-21-46c-5,0-8,7-5,15
		c4,8,2,17-3,20c-10,6-24-31-15-44c3-6-4-15-15-21c-18-9-20-8-22,17c-1,15-1,40,0,56c1,15-2,27-8,27c-5,0-10,8-10,18
		c0,15,6,18,30,14c20-3,30,0,30,8c0,10,3,10,15,0s16-9,21,3c11,28-5,36-38,19c-23-11-33-12-36-4c-2,7-10,12-18,12c-23,0-17,47,6,53
		c11,3,20,11,20,17c0,7-7,10-15,6c-10-3-15,1-15,11c0,9,3,13,6,10c8-8,44,11,44,23c0,6-9,6-24,0c-18-7-26-5-30,6
		C4347.1-458.8,4327.1-455.8,4327.1-470.8z M4097.1-1195.8c-29-16-60-19-60-6c0,11,23,18,60,19l25,1L4097.1-1195.8z M4250.1-1210.8
		c3-11,1-18-4-14c-5,3-9,12-9,20C4237.1-1184.8,4244.1-1187.8,4250.1-1210.8z M4097.1-1214.8c0-3-4-8-10-11c-5-3-10-1-10,4
		c0,6,5,11,10,11C4093.1-1210.8,4097.1-1212.8,4097.1-1214.8z M4314.1-1232.8c-3-8-6-5-6,6c-1,11,2,17,5,13
		C4316.1-1216.8,4317.1-1225.8,4314.1-1232.8z M4391.1-1264.8c3,2,2-1-3-7c-14-17-51,8-51,34c1,21,1,21,24-5
		C4374.1-1257.8,4388.1-1267.8,4391.1-1264.8z M4260.1-1266.8c-7-19-10-18-16,5c-3,13-1,18,9,14
		C4260.1-1249.8,4263.1-1258.8,4260.1-1266.8z M4397.1-1310.8c0-6-9-5-20,2s-20,16-20,21c0,4,9,3,20-3S4397.1-1305.8,4397.1-1310.8z
		 M4237.1-1307.8c0-10-5-25-10-33c-7-11-10-7-10,18c0,17,5,32,10,32C4233.1-1290.8,4237.1-1298.8,4237.1-1307.8z"/>
	<path class="st0" d="M4030.1-525.8c-8-22,6-33,17-15c13,20,12,30,0,30C4041.1-510.8,4034.1-517.8,4030.1-525.8z"/>
	<path class="st0" d="M4188.1-524.8c-19-23,4-28,24-6c15,17,16,20,3,20C4206.1-510.8,4194.1-516.8,4188.1-524.8z"/>
	<path class="st0" d="M4447.1-524.8c0-8,5-18,10-21c6-3,10,1,10,9s-4,18-10,21C4452.1-512.8,4447.1-516.8,4447.1-524.8z"/>
	<path class="st0" d="M4117.1-534.8c0-9,8-20,18-23c9-4,21-11,25-17c5-7,7-3,5,8c-2,10-13,25-25,34
		C4119.1-519.8,4117.1-519.8,4117.1-534.8z"/>
	<path class="st0" d="M4287.1-530.8c0-13,28-25,38-16c3,4,0,11-8,16C4297.1-517.8,4287.1-518.8,4287.1-530.8z"/>
	<path class="st0" d="M4509.1-534.8c-7-6-18-16-25-22c-9-8-18-7-36,5c-24,15-25,15-18-2c4-10,7-21,7-23c0-12,61-2,66,11s8,13,21-1
		c18-18,44-15,51,5c3,10-1,12-17,8c-14-3-21,0-21,8C4537.1-526.8,4524.1-520.8,4509.1-534.8z"/>
	<path class="st0" d="M3967.1-545.8c0-8-9-15-20-15s-20-4-20-10c0-14,33-13,48,2s16,38,2,38C3972.1-530.8,3967.1-537.8,3967.1-545.8
		z"/>
	<path class="st0" d="M3997.1-558.8c0-20,4-23,32-20c24,2,34,9,37,23c3,19,2,19-16,3c-18-17-20-17-36-1S3997.1-537.8,3997.1-558.8z"
		/>
	<path class="st0" d="M4257.1-564.8c0-9,7-16,16-16c17,0,14,22-4,28C4262.1-550.8,4257.1-555.8,4257.1-564.8z"/>
	<path class="st0" d="M4102.1-572.8c-9-22,4-43,17-30c7,7,7,16,0,29C4109.1-556.8,4108.1-556.8,4102.1-572.8z"/>
	<path class="st0" d="M4183.1-572.8c-4-9-3-26,4-37c9-19,14-20,33-9l22,13l-22,3c-13,2-23,12-26,25
		C4191.1-558.8,4189.1-557.8,4183.1-572.8z"/>
	<path class="st0" d="M4297.1-574.8c0-11-9-16-27-16c-27-1-27-1-9-15c10-8,24-11,30-7s16,7,21,7c14,0,12,38-2,43
		C4303.1-560.8,4297.1-565.8,4297.1-574.8z"/>
	<path class="st0" d="M4377.1-579.8c0-11,4-22,9-25c11-7,20,14,13,32C4392.1-553.8,4377.1-558.8,4377.1-579.8z"/>
	<path class="st0" d="M4604.1-595.8c-9-21,25-58,46-50c9,4,15,11,12,16c-3,4-12,6-20,2c-10-3-15,1-15,15
		C4627.1-586.8,4611.1-575.8,4604.1-595.8z"/>
	<path class="st0" d="M3881.1-604.8c-8-22,3-33,18-18c9,9,9,15,0,24S3886.1-591.8,3881.1-604.8z"/>
	<path class="st0" d="M4541.1-602.8c-4-6-3-13,3-15s8-13,5-25c-3-15-1-19,9-16c19,6,22,68,4,68
		C4554.1-590.8,4545.1-595.8,4541.1-602.8z"/>
	<path class="st0" d="M3842.1-640.8c3-5,16-10,28-10c18,0,19,2,7,10C3857.1-627.8,3834.1-627.8,3842.1-640.8z"/>
	<path class="st0" d="M4522.1-653.8c-4-10-5-21-1-24c10-10,18,4,13,24C4530.1-636.8,4530.1-636.8,4522.1-653.8z"/>
	<path class="st0" d="M4067.1-665.8c-10-12-9-15,8-15c11,0,22,7,26,15c3,9,0,15-8,15C4086.1-650.8,4074.1-657.8,4067.1-665.8z"/>
	<path class="st0" d="M4403.1-665.8c4-8,15-15,25-15c23,0,25,16,3,24C4406.1-646.8,4397.1-649.8,4403.1-665.8z"/>
	<path class="st0" d="M3830.1-667.8c4-3-1-12-11-19c-16-12-15-13,6-14c12,0,22,5,22,12c0,6,3,8,6,5c4-4,1-13-6-22c-10-13-9-15,8-15
		c12,0,24,4,27,10c10,16-15,50-37,50C3833.1-660.8,3827.1-663.8,3830.1-667.8z"/>
	<path class="st0" d="M4280.1-675.8c4-9,7-19,7-21s6-4,14-4s17-4,20-9c3-4-7-6-22-4c-26,4-26,4-8-11c14-11,24-13,38-5
		c19,10,21,44,3,44c-6,1-21,7-34,14C4277.1-659.8,4275.1-659.8,4280.1-675.8z"/>
	<path class="st0" d="M4632.1-670.8c-3-5,1-10,9-10s18,5,21,10c3,6-1,10-9,10S4635.1-664.8,4632.1-670.8z"/>
	<path class="st0" d="M4657.1-690.8c0-5,9-10,21-10c11,0,17,5,14,10c-3,6-13,10-21,10S4657.1-684.8,4657.1-690.8z"/>
	<path class="st0" d="M4619.1-702.8c3-7,13-15,22-16c12-3,17,1,14,10c-3,7-13,15-22,16C4621.1-689.8,4616.1-693.8,4619.1-702.8z"/>
	<path class="st0" d="M3969.1-757.8c14-15,15-22,5-32s-8-12,8-9c31,5,27,52-5,57C3953.1-738.8,3953.1-739.8,3969.1-757.8z"/>
	<path class="st0" d="M4491.1-755.8c-4-8-4-22-1-30c4-8,2-17-3-20c-6-4-10-15-10-26c0-14,7-19,24-19c14,0,28,5,31,10c3,6-3,10-14,10
		c-38,0-23,28,19,35c44,7,54,25,14,25c-17,0-23-4-18-12c5-10,4-10-6-1c-11,10-11,15,0,28s9,15-9,15
		C4506.1-740.8,4494.1-747.8,4491.1-755.8z"/>
	<path class="st0" d="M3935.1-767.8c-10-3-18-9-18-14c0-12,37-12,45,0C3969.1-769.8,3957.1-762.8,3935.1-767.8z"/>
	<path class="st0" d="M3817.1-790.8c6-11,15-20,20-20c16,0,11,27-6,34C3807.1-767.8,3805.1-768.8,3817.1-790.8z"/>
	<path class="st0" d="M4167.1-789.8c0-38,56-39,68-2c3,9-2,11-17,6c-13-4-28-1-36,5C4170.1-770.8,4167.1-771.8,4167.1-789.8z"/>
	<path class="st0" d="M3877.1-803.8c0-20-5-27-20-27c-11,0-20-4-20-10c0-19,49-10,61,11c9,17,8,25-5,37
		C3878.1-777.8,3877.1-778.8,3877.1-803.8z"/>
	<path class="st0" d="M4600.1-796.8c-3-9-2-24,4-33c12-18,53-28,53-12c0,6-7,11-15,11s-15,9-15,19
		C4627.1-785.8,4609.1-774.8,4600.1-796.8z"/>
	<path class="st0" d="M4652.1-791.8c-12-19,5-23,22-6c16,16,16,17,1,17C4666.1-780.8,4655.1-785.8,4652.1-791.8z"/>
	<path class="st0" d="M4227.1-835.8c-10-12-10-15,3-15c8,0,20,7,27,15c10,12,10,15-3,15C4246.1-820.8,4234.1-827.8,4227.1-835.8z"/>
	<path class="st0" d="M3837.1-885.8c-13-16-3-20,24-9c9,3,13,10,10,15C3863.1-866.8,3851.1-868.8,3837.1-885.8z"/>
	<path class="st0" d="M4629.1-882.8c3-7,13-15,24-17c16-3,17-1,5,13C4642.1-867.8,4624.1-865.8,4629.1-882.8z"/>
	<path class="st0" d="M3940.1-897.8c16-16,16-18-1-36c-16-18-16-19,8-16c45,7,37,68-10,69C3925.1-880.8,3926.1-883.8,3940.1-897.8z"
		/>
	<path class="st0" d="M4531.1-894.8c-11-28,1-51,26-54l25-3l-22,20c-18,15-20,20-8,25c8,3,15,10,15,16
		C4567.1-875.8,4537.1-878.8,4531.1-894.8z"/>
	<path class="st0" d="M3887.1-910.8c0-5,11-10,25-10s25,5,25,10c0,6-11,10-25,10S3887.1-904.8,3887.1-910.8z"/>
	<path class="st0" d="M4562.1-910.8c-4-6,5-10,19-10s26,5,26,10c0,6-9,10-19,10C4577.1-900.8,4565.1-904.8,4562.1-910.8z"/>
	<path class="st0" d="M4003.1-925.8c-3-10,1-15,13-15c11,0,22-10,26-22c7-22,7-22,12-3c3,10,0,21-6,23s-11,10-11,18
		C4037.1-905.8,4011.1-906.8,4003.1-925.8z"/>
	<path class="st0" d="M4454.1-930.8c-19-22-23-50-7-50c6,0,10,9,10,20c0,13,7,20,18,20c10,0,19,7,19,15
		C4494.1-904.8,4475.1-906.8,4454.1-930.8z"/>
	<path class="st0" d="M4437.1-1180.8c19-13,30-13,30,0c0,6-10,10-22,10C4426.1-1170.8,4425.1-1172.8,4437.1-1180.8z"/>
	<path class="st0" d="M4556.1-1188.8c9-7,10-11,2-15c-7-4-8-5,0-3c15,2,13,20-3,24C4545.1-1179.8,4545.1-1180.8,4556.1-1188.8z"/>
	<path class="st0" d="M3922.1-1240.8c-3-5,3-10,15-10s18,5,15,10c-3,6-10,10-15,10S3925.1-1234.8,3922.1-1240.8z"/>
	<path class="st0" d="M4087.1-1265.8c-7-9-8-15-2-15c5,0,12,7,16,15c3,8,4,15,2,15S4094.1-1257.8,4087.1-1265.8z"/>
	<path class="st0" d="M4462.1-1277.8c21-14,59-18,51-4c-3,5-20,11-37,13C4447.1-1263.8,4446.1-1264.8,4462.1-1277.8z"/>
	<path class="st0" d="M4582.1-1290.8c10-11,20-20,23-20s-3,9-13,20s-20,20-23,20S4572.1-1279.8,4582.1-1290.8z"/>
	<path class="st0" d="M4341.1-1347.8c4-7,2-13-4-13c-8,0-8-6,0-20c6-11,9-24,6-28s-1-14,4-22s7,5,6,34c-2,25-7,50-11,54
		C4337.1-1338.8,4337.1-1341.8,4341.1-1347.8z"/>
	<path class="st0" d="M4477.1-1344.8c0-2,8-10,18-17c15-13,16-12,3,4S4477.1-1336.8,4477.1-1344.8z"/>
	<path class="st0" d="M4272.1-1427.8c3-8,5-18,5-21c0-8,20,20,20,29c0,3-7,6-15,6C4272.1-1413.8,4268.1-1419.8,4272.1-1427.8z"/>
	<path class="st0" d="M3752.1-1796.8c-77-40-150-74-162-74c-13,0-23-4-23-9c0-6-13-18-30-28c-53-31-32-34,23-3c30,16,69,30,88,31
		c24,0,29,2,16,7c-14,6-9,12,29,30l47,23l-33-38c-37-41-110-151-110-165c0-22,18-3,44,48c45,86,118,160,198,200c37,19,68,39,68,44
		C3907.1-1714.8,3900.1-1717.8,3752.1-1796.8z"/>
	<path class="st0" d="M4266.1-1747.8c-5-16-11-32-13-38c-2-5-46-28-97-49c-112-47-162-91-127-112c7-5,8-3,3,5c-12,21,34,59,111,91
		c40,16,78,30,84,30c18,0-19-55-84-126c-32-36-56-67-53-71c7-6,143,48,317,126c126,57,240,123,240,139c0,21-14,19-31-2
		c-11-13-63-47-117-75c-136-69-372-171-372-160c0,5,6,12,13,15c8,3,31,28,52,57s51,68,66,88c30,39,49,109,30,109
		C4282.1-1720.8,4272.1-1732.8,4266.1-1747.8z"/>
	<path class="st0" d="M4560.1-1727.8c9-2,25-2,35,0c9,3,1,5-18,5S4550.1-1724.8,4560.1-1727.8z"/>
	<path class="st0" d="M4394.1-1754.8c-48-13-91-26-94-30c-10-9,13-7,44,5c15,6,66,19,113,29s72,19,55,19
		C4496.1-1731.8,4442.1-1741.8,4394.1-1754.8z"/>
	<path class="st0" d="M4033.1-1831.8c-22-16-36-29-31-29c4,0,0-9-10-20s-23-17-29-13c-7,4-7,2,1-7c6-7,9-19,6-26c-3-9,2-14,12-14
		c11,0,15,5,12,14c-6,16,32,72,66,98c12,9,19,19,17,22C4074.1-1804.8,4054.1-1815.8,4033.1-1831.8z"/>
	<path class="st0" d="M4851.1-1815.8c-10-8-35-15-54-16c-30-2-31-3-8-6l27-4l-31-44c-18-25-29-47-26-51c4-3,18,12,32,32
		c14,21,44,53,67,71C4898.1-1801.8,4892.1-1784.8,4851.1-1815.8z"/>
	<path class="st0" d="M3827.1-1860.8c-12-7-12-10-1-10c7,0,11-6,7-15c-3-8-2-15,3-15c14,0,33,28,26,40
		C3854.1-1848.8,3846.1-1847.8,3827.1-1860.8z"/>
	<path class="st0" d="M4620.1-1867.8c-7-2-13-11-13-19c0-18,19-18,43,0c16,12,16,14,1,20c-8,3-16,6-17,5
		C4633.1-1861.8,4626.1-1864.8,4620.1-1867.8z"/>
	<path class="st0" d="M4896.1-1865.8c-1-3-2-10-3-16c0-7-10-16-21-20c-16-7-14-8,10-6c23,1,30,7,31,25S4900.1-1849.8,4896.1-1865.8z
		"/>
	<path class="st0" d="M3942.1-1880.8c-3-6,1-7,9-4c18,7,21,14,7,14C3952.1-1870.8,3945.1-1874.8,3942.1-1880.8z"/>
	<path class="st0" d="M4697.1-1879.8c0-19,22-23,38-7c15,15,14,16-11,16C4709.1-1870.8,4697.1-1874.8,4697.1-1879.8z"/>
	<path class="st0" d="M3510.1-1887.8c9-2,25-2,35,0c9,3,1,5-18,5S3500.1-1884.8,3510.1-1887.8z"/>
	<path class="st0" d="M4535.1-1937.8c12-2,30-2,40,0c9,3-1,5-23,4C4530.1-1933.8,4522.1-1935.8,4535.1-1937.8z"/>
</g>
</svg>
