<?xml version="1.0" encoding="utf-8"?>
<!-- Generator: Adobe Illustrator 27.0.0, SVG Export Plug-In . SVG Version: 6.00 Build 0)  -->
<svg version="1.1" id="Layer_1" xmlns="http://www.w3.org/2000/svg" xmlns:xlink="http://www.w3.org/1999/xlink" x="0px" y="0px"
	 viewBox="0 0 841.9 595.3" style="enable-background:new 0 0 841.9 595.3;" xml:space="preserve">
<style type="text/css">
	.st0{fill:#FFFFFF;}
</style>
<image style="overflow:visible;enable-background:new    ;" width="129" height="140" xlink:href="9F0C226A.jpg"  transform="matrix(0.9047 0 0 0.7631 371.8044 228.89)">
</image>
<g transform="translate(0.000000,173.000000) scale(0.100000,-0.100000)">
	<path class="st0" d="M4201-738.3c-3-8.9-9-10.5-22.5-4.8c-19.5,8.1-24-0.8-7.5-15.3c13.5-12.1,49.4,1.6,49.4,19.4
		C4220.5-723.8,4206.2-723,4201-738.3z"/>
	<path class="st0" d="M4332.8-735.1c0-4.8,3.7-15.3,9-23.4c4.5-8.9,6-21,2.2-29.8c-6-16.1-6-33.9,0.7-66.9c3-16.9,2.2-18.5-7.5-9.7
		c-7.5,6.5-6,0,3.7-21c12.7-25,14.2-39.5,10.5-82.3c-2.2-28.2-9.7-62.9-17.2-76.6l-12.7-25l-2.2,22.6c-1.5,12.1,2.2,27.4,9,34.7
		c13.5,13.7,15.7,35.5,4.5,35.5c-3.7,0-9.7-5.6-13.5-12.9c-4.5-8.9-8.2-10.5-12-4c-7.5,12.9-19.5,11.3-19.5-3.2
		c0-7.3,5.2-14.5,12-17.7c15.7-6.5,8.2-64.5-11.2-85.5c-13.5-14.5-14.2-14.5-30,3.2c-8.2,9.7-15.7,27.4-16.5,38.7
		c0,18.5-0.7,19.4-6,4.8c-5.2-14.5-6.7-13.7-19.5,7.3c-7.5,12.1-14.2,33.9-15,47.6c-0.7,14.5-3.7,32.3-6.7,39.5
		c-6.7,16.1,0.7,33.1,12,25.8c4.5-3.2,11.2,0,15,5.6c5.2,8.1,5.2,5.6,2.2-6.5c-5.2-21,5.2-24.2,18.7-6.5c7.5,9.7,7.5,12.1-0.7,12.1
		c-7.5,0-7.5,2.4-0.7,9.7c5.2,5.6,9,15.3,9,21.8c0,8.9-3,8.9-14.2-2.4c-8.2-8.1-18.7-12.1-22.5-8.9c-4.5,2.4-8.2,0.8-8.2-4.8
		c0-5.6-2.2-8.1-4.5-4.8c-2.2,2.4,0.7,16.1,6.7,29.8c6.7,12.9,8.2,22.6,4.5,20.2c-3.7-3.2-6.7,2.4-6.7,11.3c0,22.6-12.7,28.2-24,9.7
		c-9-15.3-9-15.3-29.2-0.8c-21,16.9-29.2,13.7-29.2-8.9c0-11.3,6-13.7,37.5-12.1c30.7,1.6,37.5,0,33.7-8.9c-2.2-6.5-3.7-16.1-3.7-21
		c0-7.3-1.5-7.3-6,0c-3,5.6-4.5-14.5-3-44.4c3-53.2,3-54-11.2-39.5c-9.7,8.9-14.2,21-12,33.1c2.2,10.5,0,21.8-4.5,24.2
		c-5.2,4-8.2-2.4-8.2-16.1c0-17.7-1.5-20.2-11.2-11.3c-6,5.6-11.2,15.3-11.2,22.6c0,20.2-17.2,74.2-23.2,74.2c-3.7,0-3-9.7,0.7-21
		c4.5-11.3,7.5-29.8,7.5-41.1c0-19.4-0.7-20.2-16.5-8.9c-9.7,7.3-17.2,21-17.2,31.5c0,10.5-3.7,19.4-9,19.4c-5.2,0-13.5,4.8-18,10.5
		c-14.2,14.5-21,12.1-16.5-6.5c2.2-8.9,8.2-16.1,14.2-16.1c5.2,0,13.5-7.3,18-16.1c9.7-19.4,1.5-21-19.5-4
		c-20.2,16.9-30,14.5-15-3.2c9.7-12.1,10.5-16.1,3-19.4c-5.2-1.6-6.7-6.5-3.7-10.5c3-3.2,12.7-2.4,21,3.2
		c12.7,8.9,20.2,8.1,48.7-6.5c18-9.7,33-21,33-24.2c0-4,6.7-9.7,15-12.1c14.2-4.8,64.4-74.2,58.4-80.6c-6-7.3-36,6.5-36,16.1
		c0,12.9-18.7,29.8-24.7,23.4c-2.2-3.2-1.5-12.9,3-21.8c6-11.3,6-14.5-0.7-9.7c-4.5,3.2-20.2,5.6-34.5,5.6c-21.7,0-24,1.6-14.2,9.7
		c7.5,5.6,10.5,14.5,6.7,23.4c-6,16.9-18,17.7-18,1.6c0-6.5-5.2-12.1-11.2-12.1c-13.5,0-15-12.9-1.5-19.4c4.5-3.2-2.2-3.2-15-0.8
		c-13.5,1.6-24.7,0.8-24.7-3.2s27.7-9.7,61.4-12.9c56.2-5.6,59.9-6.5,42.7-16.9c-16.5-9.7-16.5-10.5-3-11.3c9,0,19.5,4,24.7,9.7
		c13.5,14.5,65.9-5.6,82.4-31.5c9-16.1,12.7-37.9,12.7-84.7c-0.7-54-3-65.3-17.2-80.6c-12.7-13.7-24-17.7-50.2-16.1
		c-42,1.6-59.9-6.5-97.4-43.5c-20.2-21-23.2-25.8-9.7-16.9c24,16.1,55.4,17.7,62.9,4c3-4.8,2.2-6.5-3-3.2
		c-4.5,2.4-14.2-3.2-21.7-13.7c-7.5-9.7-21.7-22.6-32.2-28.2c-18-9.7-18.7-9.7-0.7-4.8c12,3.2,15.7,2.4,12.7-4c-3-4.8-3-8.9,0.7-8.9
		c8.2,0,26.2,12.9,24,16.9c-0.7,1.6,0,11.3,2.2,21.8c3,12.1,8.2,16.1,16.5,12.9c6.7-2.4,12-0.8,12,4c0,9.7,44.2,36.3,50.2,29.8
		c2.2-2.4,0.7-9.7-4.5-15.3c-4.5-6.5-6-18.5-3-25.8c3-9.7,2.2-12.9-3-9.7c-4.5,3.2-10.5,0-12.7-7.3c-2.2-6.5-1.5-9.7,3-7.3
		c11.2,7.3,9-8.9-3-19.4c-11.2-10.5-21.7-51.6-11.2-44.4c3.7,2.4,6.7,11.3,6.7,19.4c0,20.2,12.7,28.2,16.5,10.5
		c2.2-8.1,9,6.5,17.2,33.9c17.2,58.1,18,58.9,26.2,44.4c6-9.7,7.5-8.1,8.2,8.1c0.7,14.5,2.2,16.1,4.5,5.6c2.2-8.1-2.2-21.8-9.7-30.6
		c-9-10.5-9.7-15.3-3-15.3s6.7-4-1.5-17.7c-15-24.2-30-72.6-21-66.9c3.7,2.4,10.5-7.3,14.2-21.8c7.5-24.2,7.5-23.4,3.7,12.1
		c-2.2,22.6-0.7,37.9,3.7,37.9c9.7,0,18.7-30.6,17.2-58.1c-2.2-27.4,3.7-29,13.5-4c6,13.7,6,11.3,3-12.1c-3-17.7-1.5-30.6,2.2-30.6
		c4.5,0,6.7,25,5.2,60.5c-1.5,39.5,0.7,60.5,6,60.5c4.5,0,6-9.7,4.5-22.6c-2.2-15.3,0-23.4,6.7-23.4c6,0,8.2,10.5,6.7,33.1
		c-1.5,18.5-0.7,23.4,0.7,10.5c2.2-12.9,6.7-20.2,11.2-16.9c5.2,4,6.7-3.2,4.5-19.4c-4.5-33.9,7.5-24.2,13.5,10.5
		c3,19.4,0.7,34.7-7.5,48.4c-14.2,23.4-15.7,38.7-2.2,33.9c4.5-1.6,8.2-7.3,7.5-12.1c-0.7-4,9.7-21,24-37.1
		c14.2-16.1,24-34.7,21.7-40.3s0.7-12.9,6.7-15.3c7.5-3.2,9,2.4,6.7,19.4c-2.2,18.5-0.7,22.6,8.2,18.5c6-2.4,13.5,0,17.2,5.6
		c3,6.5,2.2,8.1-3,4c-6-3.2-12,2.4-16.5,15.3c-10.5,29.8-9.7,32.3,6,18.5c6.7-6.5,19.5-14.5,27.7-16.9c15-4.8,15-4.8,0.7,4.8
		c-8.2,5.6-23.2,18.5-33.7,29.8c-10.5,11.3-27.7,26.6-38.2,33.9c-13.5,10.5-15,14.5-6.7,14.5c6.7,0,21-7.3,31.5-16.1
		c24-21,33.7-21,16.5,0c-23.2,27.4,6,20.2,39-9.7c27-25,27.7-25,9.7-3.2c-14.2,17.7-15.7,22.6-5.2,18.5c6.7-3.2,12.7-2.4,12.7,1.6
		c0,4-17.2,8.9-38.2,12.1c-35.2,4.8-37.5,6.5-24.7,16.9c12.7,10.5,10.5,11.3-24,12.1c-52.4,0-65.2,16.9-68.9,87.9
		c-3.7,75,9.7,109.7,49.4,122.6c21.7,6.5,33,6.5,44.9,0c8.2-4.8,21.7-8.9,29.2-8.9c9,0.8,6,4-9,11.3c-21.7,10.5-21.7,10.5,30,16.9
		c69.7,8.1,65.2,7.3,82.4,19.4l15,10.5l-15-5.6c-8.2-3.2-42.7-8.9-76.4-12.1c-33.7-4-71.9-8.9-85.4-12.1l-23.2-5.6l13.5,25.8
		c17.2,30.6,52.4,64.5,67.4,64.5c6.7,0,9.7,3.2,6.7,8.1c-2.2,4,9,14.5,25.5,24.2c18,9.7,31.5,12.9,34.5,8.1c2.2-4.8,13.5-8.1,24-8.1
		c15.7,0,18,1.6,9.7,12.1c-7.5,9.7-7.5,14.5,0.7,25.8c9.7,12.1,9,12.1-5.2,4c-8.2-4.8-30-13.7-46.4-20.2
		c-30.7-11.3-31.5-11.3-31.5,5.6c0,9.7,3.7,21.8,9,27.4c12,12.9,13.5,41.1,1.5,36.3c-8.2-3.2-21.7-46.8-18.7-62.1
		c2.2-12.9-7.5-37.1-15.7-37.1c-3.7,0-6,5.6-3.7,12.1c3,6.5,1.5,13.7-2.2,16.1c-7.5,4.8-18-25-11.2-35.5c2.2-4.8-3-12.1-11.2-16.9
		c-13.5-7.3-15-6.5-16.5,13.7c-0.7,12.1-0.7,32.3,0,45.2c0.7,12.1-1.5,21.8-6,21.8c-3.7,0-7.5,6.5-7.5,14.5
		c0,12.1,4.5,14.5,22.5,11.3c15-2.4,22.5,0,22.5,6.5c0,8.1,2.2,8.1,11.2,0s12-7.3,15.7,2.4c8.2,22.6-3.7,29-28.5,15.3
		c-17.2-8.9-24.7-9.7-27-3.2c-1.5,5.6-7.5,9.7-13.5,9.7c-17.2,0-12.7,37.9,4.5,42.7c8.2,2.4,15,8.9,15,13.7c0,5.6-5.2,8.1-11.2,4.8
		c-7.5-2.4-11.2,0.8-11.2,8.9c0,7.3,2.2,10.5,4.5,8.1c6-6.5,33,8.9,33,18.5c0,4.8-6.7,4.8-18,0c-13.5-5.6-19.5-4-22.5,4.8
		C4347.8-725.4,4332.8-723,4332.8-735.1z M4160.5-1319.8c-21.7-12.9-44.9-15.3-44.9-4.8c0,8.9,17.2,14.5,44.9,15.3l18.7,0.8
		L4160.5-1319.8z M4275.1-1331.9c2.2-8.9,0.7-14.5-3-11.3c-3.7,2.4-6.7,9.7-6.7,16.1C4265.4-1310.9,4270.6-1313.3,4275.1-1331.9z
		 M4160.5-1335.1c0-2.4-3-6.5-7.5-8.9c-3.7-2.4-7.5-0.8-7.5,3.2c0,4.8,3.7,8.9,7.5,8.9C4157.5-1331.9,4160.5-1333.5,4160.5-1335.1z
		 M4323.1-1349.6c-2.2-6.5-4.5-4-4.5,4.8c-0.7,8.9,1.5,13.7,3.7,10.5C4324.6-1336.7,4325.3-1344,4323.1-1349.6z M4380.8-1375.4
		c2.2,1.6,1.5-0.8-2.2-5.6c-10.5-13.7-38.2,6.5-38.2,27.4c0.7,16.9,0.7,16.9,18-4C4368-1369.8,4378.5-1377.9,4380.8-1375.4z
		 M4282.6-1377.1c-5.2-15.3-7.5-14.5-12,4c-2.2,10.5-0.7,14.5,6.7,11.3C4282.6-1363.3,4284.9-1370.6,4282.6-1377.1z M4385.3-1412.5
		c0-4.8-6.7-4-15,1.6s-15,12.9-15,16.9c0,3.2,6.7,2.4,15-2.4C4378.5-1401.2,4385.3-1408.5,4385.3-1412.5z M4265.4-1410.1
		c0-8.1-3.7-20.2-7.5-26.6c-5.2-8.9-7.5-5.6-7.5,14.5c0,13.7,3.7,25.8,7.5,25.8C4262.4-1396.4,4265.4-1402.9,4265.4-1410.1z"/>
	<path class="st0" d="M4110.3-779.5c-6-17.7,4.5-26.6,12.7-12.1c9.7,16.1,9,24.2,0,24.2C4118.6-767.4,4113.3-773,4110.3-779.5z"/>
	<path class="st0" d="M4228.7-778.7c-14.2-18.5,3-22.6,18-4.8c11.2,13.7,12,16.1,2.2,16.1C4242.2-767.4,4233.2-772.2,4228.7-778.7z"
		/>
	<path class="st0" d="M4422.7-778.7c0-6.5,3.7-14.5,7.5-16.9c4.5-2.4,7.5,0.8,7.5,7.3c0,6.5-3,14.5-7.5,16.9
		C4426.5-769,4422.7-772.2,4422.7-778.7z"/>
	<path class="st0" d="M4175.5-786.7c0-7.3,6-16.1,13.5-18.5c6.7-3.2,15.7-8.9,18.7-13.7c3.7-5.6,5.2-2.4,3.7,6.5
		c-1.5,8.1-9.7,20.2-18.7,27.4C4177-774.6,4175.5-774.6,4175.5-786.7z"/>
	<path class="st0" d="M4302.9-783.5c0-10.5,21-20.2,28.5-12.9c2.2,3.2,0,8.9-6,12.9C4310.3-773,4302.9-773.8,4302.9-783.5z"/>
	<path class="st0" d="M4469.2-786.7c-5.2-4.8-13.5-12.9-18.7-17.7c-6.7-6.5-13.5-5.6-27,4c-18,12.1-18.7,12.1-13.5-1.6
		c3-8.1,5.2-16.9,5.2-18.5c0-9.7,45.7-1.6,49.4,8.9c3.7,10.5,6,10.5,15.7-0.8c13.5-14.5,33-12.1,38.2,4c2.2,8.1-0.7,9.7-12.7,6.5
		c-10.5-2.4-15.7,0-15.7,6.5C4490.1-780.3,4480.4-775.4,4469.2-786.7z"/>
	<path class="st0" d="M4063.1-795.6c0-6.5-6.7-12.1-15-12.1s-15-3.2-15-8.1c0-11.3,24.7-10.5,36,1.6c11.2,12.1,12,30.6,1.5,30.6
		C4066.9-783.5,4063.1-789.2,4063.1-795.6z"/>
	<path class="st0" d="M4085.6-806.1c0-16.1,3-18.5,24-16.1c18,1.6,25.5,7.3,27.7,18.5c2.2,15.3,1.5,15.3-12,2.4
		c-13.5-13.7-15-13.7-27-0.8S4085.6-789.2,4085.6-806.1z"/>
	<path class="st0" d="M4280.4-810.9c0-7.3,5.2-12.9,12-12.9c12.7,0,10.5,17.7-3,22.6C4284.1-799.6,4280.4-803.7,4280.4-810.9z"/>
	<path class="st0" d="M4164.3-817.4c-6.7-17.7,3-34.7,12.7-24.2c5.2,5.6,5.2,12.9,0,23.4C4169.5-804.5,4168.8-804.5,4164.3-817.4z"
		/>
	<path class="st0" d="M4224.9-817.4c-3-7.3-2.2-21,3-29.8c6.7-15.3,10.5-16.1,24.7-7.3l16.5,10.5l-16.5,2.4
		c-9.7,1.6-17.2,9.7-19.5,20.2C4230.9-806.1,4229.4-805.3,4224.9-817.4z"/>
	<path class="st0" d="M4310.3-819c0-8.9-6.7-12.9-20.2-12.9c-20.2-0.8-20.2-0.8-6.7-12.1c7.5-6.5,18-8.9,22.5-5.6s12,5.6,15.7,5.6
		c10.5,0,9,30.6-1.5,34.7C4314.8-807.7,4310.3-811.7,4310.3-819z"/>
	<path class="st0" d="M4370.3-823c0-8.9,3-17.7,6.7-20.2c8.2-5.6,15,11.3,9.7,25.8C4381.5-802.1,4370.3-806.1,4370.3-823z"/>
	<path class="st0" d="M4540.3-835.9c-6.7-16.9,18.7-46.8,34.5-40.3c6.7,3.2,11.2,8.9,9,12.9c-2.2,3.2-9,4.8-15,1.6
		c-7.5-2.4-11.2,0.8-11.2,12.1C4557.6-828.7,4545.6-819.8,4540.3-835.9z"/>
	<path class="st0" d="M3998.7-843.2c-6-17.7,2.2-26.6,13.5-14.5c6.7,7.3,6.7,12.1,0,19.4C4005.4-831.1,4002.4-832.7,3998.7-843.2z"
		/>
	<path class="st0" d="M4493.1-841.6c-3-4.8-2.2-10.5,2.2-12.1c4.5-1.6,6-10.5,3.7-20.2c-2.2-12.1-0.7-15.3,6.7-12.9
		c14.2,4.8,16.5,54.8,3,54.8C4502.9-831.9,4496.1-835.9,4493.1-841.6z"/>
	<path class="st0" d="M3969.5-872.2c2.2-4,12-8.1,21-8.1c13.5,0,14.2,1.6,5.2,8.1C3980.7-861.7,3963.5-861.7,3969.5-872.2z"/>
	<path class="st0" d="M4478.9-882.7c-3-8.1-3.7-16.9-0.7-19.4c7.5-8.1,13.5,3.2,9.7,19.4C4484.9-869,4484.9-869,4478.9-882.7z"/>
	<path class="st0" d="M4138-892.4c-7.5-9.7-6.7-12.1,6-12.1c8.2,0,16.5,5.6,19.5,12.1c2.2,7.3,0,12.1-6,12.1
		C4152.3-880.3,4143.3-885.9,4138-892.4z"/>
	<path class="st0" d="M4389.8-892.4c3-6.5,11.2-12.1,18.7-12.1c17.2,0,18.7,12.9,2.2,19.4C4392-877.1,4385.3-879.5,4389.8-892.4z"/>
	<path class="st0" d="M3960.5-894c3-2.4-0.7-9.7-8.2-15.3c-12-9.7-11.2-10.5,4.5-11.3c9,0,16.5,4,16.5,9.7c0,4.8,2.2,6.5,4.5,4
		c3-3.2,0.7-10.5-4.5-17.7c-7.5-10.5-6.7-12.1,6-12.1c9,0,18,3.2,20.2,8.1c7.5,12.9-11.2,40.3-27.7,40.3
		C3962.7-888.3,3958.2-890.8,3960.5-894z"/>
	<path class="st0" d="M4297.6-900.4c3-7.3,5.2-15.3,5.2-16.9c0-1.6,4.5-3.2,10.5-3.2s12.7-3.2,15-7.3c2.2-3.2-5.2-4.8-16.5-3.2
		c-19.5,3.2-19.5,3.2-6-8.9c10.5-8.9,18-10.5,28.5-4c14.2,8.1,15.7,35.5,2.2,35.5c-4.5,0.8-15.7,5.6-25.5,11.3
		C4295.4-887.5,4293.9-887.5,4297.6-900.4z"/>
	<path class="st0" d="M4561.3-896.4c-2.2-4,0.7-8.1,6.7-8.1s13.5,4,15.7,8.1c2.2,4.8-0.7,8.1-6.7,8.1S4563.6-891.6,4561.3-896.4z"/>
	<path class="st0" d="M4580-912.5c0-4,6.7-8.1,15.7-8.1c8.2,0,12.7,4,10.5,8.1c-2.2,4.8-9.7,8.1-15.7,8.1S4580-907.7,4580-912.5z"/>
	<path class="st0" d="M4551.6-922.2c2.2-5.6,9.7-12.1,16.5-12.9c9-2.4,12.7,0.8,10.5,8.1c-2.2,5.6-9.7,12.1-16.5,12.9
		C4553.1-911.7,4549.3-915,4551.6-922.2z"/>
	<path class="st0" d="M4064.6-966.6c10.5-12.1,11.2-17.7,3.7-25.8c-7.5-8.1-6-9.7,6-7.3c23.2,4,20.2,41.9-3.7,46
		C4052.6-951.3,4052.6-952.1,4064.6-966.6z"/>
	<path class="st0" d="M4455.7-965c-3-6.5-3-17.7-0.7-24.2c3-6.5,1.5-13.7-2.2-16.1c-4.5-3.2-7.5-12.1-7.5-21
		c0-11.3,5.2-15.3,18-15.3c10.5,0,21,4,23.2,8.1c2.2,4.8-2.2,8.1-10.5,8.1c-28.5,0-17.2,22.6,14.2,28.2c33,5.6,40.5,20.2,10.5,20.2
		c-12.7,0-17.2-3.2-13.5-9.7c3.7-8.1,3-8.1-4.5-0.8c-8.2,8.1-8.2,12.1,0,22.6c8.2,10.5,6.7,12.1-6.7,12.1
		C4466.9-952.9,4457.9-958.5,4455.7-965z"/>
	<path class="st0" d="M4039.2-974.6c-7.5-2.4-13.5-7.3-13.5-11.3c0-9.7,27.7-9.7,33.7,0C4064.6-976.3,4055.6-970.6,4039.2-974.6z"/>
	<path class="st0" d="M3950.8-993.2c4.5-8.9,11.2-16.1,15-16.1c12,0,8.2,21.8-4.5,27.4C3943.3-974.6,3941.8-975.4,3950.8-993.2z"/>
	<path class="st0" d="M4213-992.4c0-30.6,42-31.5,50.9-1.6c2.2,7.3-1.5,8.9-12.7,4.8c-9.7-3.2-21-0.8-27,4
		C4215.2-977.1,4213-977.9,4213-992.4z"/>
	<path class="st0" d="M3995.7-1003.7c0-16.1-3.7-21.8-15-21.8c-8.2,0-15-3.2-15-8.1c0-15.3,36.7-8.1,45.7,8.9
		c6.7,13.7,6,20.2-3.7,29.8C3996.5-982.7,3995.7-983.5,3995.7-1003.7z"/>
	<path class="st0" d="M4537.3-998c-2.2-7.3-1.5-19.4,3-26.6c9-14.5,39.7-22.6,39.7-9.7c0,4.8-5.2,8.9-11.2,8.9s-11.2,7.3-11.2,15.3
		C4557.6-989.2,4544.1-980.3,4537.3-998z"/>
	<path class="st0" d="M4576.3-994c-9-15.3,3.7-18.5,16.5-4.8c12,12.9,12,13.7,0.7,13.7C4586.8-985.1,4578.5-989.2,4576.3-994z"/>
	<path class="st0" d="M4257.9-1029.5c-7.5-9.7-7.5-12.1,2.2-12.1c6,0,15,5.6,20.2,12.1c7.5,9.7,7.5,12.1-2.2,12.1
		C4272.1-1017.4,4263.2-1023,4257.9-1029.5z"/>
	<path class="st0" d="M3965.7-1069.8c-9.7-12.9-2.2-16.1,18-7.3c6.7,2.4,9.7,8.1,7.5,12.1
		C3985.2-1054.5,3976.2-1056.1,3965.7-1069.8z"/>
	<path class="st0" d="M4559.1-1067.4c2.2-5.6,9.7-12.1,18-13.7c12-2.4,12.7-0.8,3.7,10.5C4568.8-1055.3,4555.3-1053.7,4559.1-1067.4
		z"/>
	<path class="st0" d="M4042.9-1079.5c12-12.9,12-14.5-0.7-29c-12-14.5-12-15.3,6-12.9c33.7,5.6,27.7,54.8-7.5,55.6
		C4031.7-1065.8,4032.4-1068.2,4042.9-1079.5z"/>
	<path class="st0" d="M4485.6-1077.1c-8.2-22.6,0.7-41.1,19.5-43.5l18.7-2.4l-16.5,16.1c-13.5,12.1-15,16.1-6,20.2
		c6,2.4,11.2,8.1,11.2,12.9C4512.6-1061.7,4490.1-1064.2,4485.6-1077.1z"/>
	<path class="st0" d="M4003.2-1090c0-4,8.2-8.1,18.7-8.1s18.7,4,18.7,8.1c0,4.8-8.2,8.1-18.7,8.1S4003.2-1085.1,4003.2-1090z"/>
	<path class="st0" d="M4508.9-1090c-3-4.8,3.7-8.1,14.2-8.1c10.5,0,19.5,4,19.5,8.1c0,4.8-6.7,8.1-14.2,8.1
		C4520.1-1081.9,4511.1-1085.1,4508.9-1090z"/>
	<path class="st0" d="M4090.1-1102.1c-2.2-8.1,0.7-12.1,9.7-12.1c8.2,0,16.5-8.1,19.5-17.7c5.2-17.7,5.2-17.7,9-2.4
		c2.2,8.1,0,16.9-4.5,18.5c-4.5,1.6-8.2,8.1-8.2,14.5C4115.6-1085.9,4096.1-1086.7,4090.1-1102.1z"/>
	<path class="st0" d="M4428-1106.1c-14.2-17.7-17.2-40.3-5.2-40.3c4.5,0,7.5,7.3,7.5,16.1c0,10.5,5.2,16.1,13.5,16.1
		c7.5,0,14.2,5.6,14.2,12.1C4457.9-1085.1,4443.7-1086.7,4428-1106.1z"/>
	<path class="st0" d="M4415.2-1307.7c14.2-10.5,22.5-10.5,22.5,0c0,4.8-7.5,8.1-16.5,8.1C4407-1299.6,4406.2-1301.2,4415.2-1307.7z"
		/>
	<path class="st0" d="M4504.4-1314.2c6.7-5.6,7.5-8.9,1.5-12.1c-5.2-3.2-6-4,0-2.4c11.2,1.6,9.7,16.1-2.2,19.4
		C4496.1-1306.9,4496.1-1307.7,4504.4-1314.2z"/>
	<path class="st0" d="M4029.4-1356.1c-2.2-4,2.2-8.1,11.2-8.1s13.5,4,11.2,8.1c-2.2,4.8-7.5,8.1-11.2,8.1
		C4036.9-1348,4031.7-1351.2,4029.4-1356.1z"/>
	<path class="st0" d="M4153-1376.2c-5.2-7.3-6-12.1-1.5-12.1c3.7,0,9,5.6,12,12.1c2.2,6.5,3,12.1,1.5,12.1
		C4163.5-1364.2,4158.3-1369.8,4153-1376.2z"/>
	<path class="st0" d="M4434-1385.9c15.7-11.3,44.2-14.5,38.2-3.2c-2.2,4-15,8.9-27.7,10.5C4422.7-1374.6,4422-1375.4,4434-1385.9z"
		/>
	<path class="st0" d="M4523.9-1396.4c7.5-8.9,15-16.1,17.2-16.1s-2.2,7.3-9.7,16.1c-7.5,8.9-15,16.1-17.2,16.1
		C4511.9-1380.3,4516.4-1387.5,4523.9-1396.4z"/>
	<path class="st0" d="M4343.3-1442.4c3-5.6,1.5-10.5-3-10.5c-6,0-6-4.8,0-16.1c4.5-8.9,6.7-19.4,4.5-22.6c-2.2-3.2-0.7-11.3,3-17.7
		s5.2,4,4.5,27.4c-1.5,20.2-5.2,40.3-8.2,43.5C4340.3-1435.1,4340.3-1437.5,4343.3-1442.4z"/>
	<path class="st0" d="M4445.2-1440c0-1.6,6-8.1,13.5-13.7c11.2-10.5,12-9.7,2.2,3.2C4451.2-1437.5,4445.2-1433.5,4445.2-1440z"/>
	<path class="st0" d="M4291.6-1506.9c2.2-6.5,3.7-14.5,3.7-16.9c0-6.5,15,16.1,15,23.4c0,2.4-5.2,4.8-11.2,4.8
		C4291.6-1495.6,4288.6-1500.4,4291.6-1506.9z"/>
	<path class="st0" d="M3902.1-1804.5c-57.7-32.3-112.4-59.7-121.4-59.7c-9.7,0-17.2-3.2-17.2-7.3c0-4.8-9.7-14.5-22.5-22.6
		c-39.7-25-24-27.4,17.2-2.4c22.5,12.9,51.7,24.2,65.9,25c18,0,21.7,1.6,12,5.6c-10.5,4.8-6.7,9.7,21.7,24.2l35.2,18.5l-24.7-30.6
		c-27.7-33.1-82.4-121.8-82.4-133.1c0-17.7,13.5-2.4,33,38.7c33.7,69.4,88.4,129,148.3,161.3c27.7,15.3,50.9,31.5,50.9,35.5
		C4018.2-1738.3,4012.9-1740.8,3902.1-1804.5z"/>
	<path class="st0" d="M4287.1-1765c-3.7-12.9-8.2-25.8-9.7-30.6c-1.5-4-34.5-22.6-72.7-39.5c-83.9-37.9-121.4-73.4-95.1-90.3
		c5.2-4,6-2.4,2.2,4c-9,16.9,25.5,47.6,83.2,73.4c30,12.9,58.4,24.2,62.9,24.2c13.5,0-14.2-44.4-62.9-101.6c-24-29-42-54-39.7-57.3
		c5.2-4.8,107.1,38.7,237.5,101.6c94.4,46,179.8,99.2,179.8,112.1c0,16.9-10.5,15.3-23.2-1.6c-8.2-10.5-47.2-37.9-87.6-60.5
		c-101.9-55.6-278.7-137.9-278.7-129c0,4,4.5,9.7,9.7,12.1c6,2.4,23.2,22.6,39,46s38.2,54.8,49.4,71c22.5,31.5,36.7,87.9,22.5,87.9
		C4299.1-1743.2,4291.6-1752.9,4287.1-1765z"/>
	<path class="st0" d="M4507.4-1748.8c6.7-1.6,18.7-1.6,26.2,0c6.7,2.4,0.7,4-13.5,4C4505.9-1744.8,4499.9-1746.4,4507.4-1748.8z"/>
	<path class="st0" d="M4383-1770.6c-36-10.5-68.2-21-70.4-24.2c-7.5-7.3,9.7-5.6,33,4c11.2,4.8,49.4,15.3,84.7,23.4
		c35.2,8.1,53.9,15.3,41.2,15.3C4459.4-1752.1,4419-1760.1,4383-1770.6z"/>
	<path class="st0" d="M4112.6-1832.7c-16.5-12.9-27-23.4-23.2-23.4c3,0,0-7.3-7.5-16.1c-7.5-8.9-17.2-13.7-21.7-10.5
		c-5.2,3.2-5.2,1.6,0.7-5.6c4.5-5.6,6.7-15.3,4.5-21c-2.2-7.3,1.5-11.3,9-11.3c8.2,0,11.2,4,9,11.3c-4.5,12.9,24,58.1,49.4,79
		c9,7.3,14.2,15.3,12.7,17.7C4143.3-1810.9,4128.3-1819.8,4112.6-1832.7z"/>
	<path class="st0" d="M4725.4-1819.8c-7.5-6.5-26.2-12.1-40.5-12.9c-22.5-1.6-23.2-2.4-6-4.8l20.2-3.2l-23.2-35.5
		c-13.5-20.2-21.7-37.9-19.5-41.1c3-2.4,13.5,9.7,24,25.8c10.5,16.9,33,42.7,50.2,57.3C4760.6-1808.5,4756.1-1794.8,4725.4-1819.8z"
		/>
	<path class="st0" d="M3958.2-1856.1c-9-5.6-9-8.1-0.7-8.1c5.2,0,8.2-4.8,5.2-12.1c-2.2-6.5-1.5-12.1,2.2-12.1
		c10.5,0,24.7,22.6,19.5,32.3C3978.5-1846.4,3972.5-1845.6,3958.2-1856.1z"/>
	<path class="st0" d="M4552.3-1861.7c-5.2-1.6-9.7-8.9-9.7-15.3c0-14.5,14.2-14.5,32.2,0c12,9.7,12,11.3,0.7,16.1
		c-6,2.4-12,4.8-12.7,4C4562.1-1856.9,4556.8-1859.3,4552.3-1861.7z"/>
	<path class="st0" d="M4759.1-1860.1c-0.7-2.4-1.5-8.1-2.2-12.9c0-5.6-7.5-12.9-15.7-16.1c-12-5.6-10.5-6.5,7.5-4.8
		c17.2,0.8,22.5,5.6,23.2,20.2C4772.6-1859.3,4762.1-1847.2,4759.1-1860.1z"/>
	<path class="st0" d="M4044.4-1872.2c-2.2-4.8,0.7-5.6,6.7-3.2c13.5,5.6,15.7,11.3,5.2,11.3
		C4051.9-1864.1,4046.6-1867.4,4044.4-1872.2z"/>
	<path class="st0" d="M4610-1871.4c0-15.3,16.5-18.5,28.5-5.6c11.2,12.1,10.5,12.9-8.2,12.9C4619-1864.1,4610-1867.4,4610-1871.4z"
		/>
	<path class="st0" d="M3720.8-1877.9c6.7-1.6,18.7-1.6,26.2,0c6.7,2.4,0.7,4-13.5,4C3719.3-1873.8,3713.3-1875.4,3720.8-1877.9z"/>
	<path class="st0" d="M4488.6-1918.2c9-1.6,22.5-1.6,30,0c6.7,2.4-0.7,4-17.2,3.2C4484.9-1915,4478.9-1916.6,4488.6-1918.2z"/>
</g>
</svg>
